%TF.GenerationSoftware,KiCad,Pcbnew,7.0.9*%
%TF.CreationDate,2023-12-30T23:00:52+00:00*%
%TF.ProjectId,MacroPad V2,4d616372-6f50-4616-9420-56322e6b6963,rev?*%
%TF.SameCoordinates,Original*%
%TF.FileFunction,Copper,L1,Top*%
%TF.FilePolarity,Positive*%
%FSLAX46Y46*%
G04 Gerber Fmt 4.6, Leading zero omitted, Abs format (unit mm)*
G04 Created by KiCad (PCBNEW 7.0.9) date 2023-12-30 23:00:52*
%MOMM*%
%LPD*%
G01*
G04 APERTURE LIST*
%TA.AperFunction,ComponentPad*%
%ADD10C,2.500000*%
%TD*%
%TA.AperFunction,ComponentPad*%
%ADD11R,2.000000X2.000000*%
%TD*%
%TA.AperFunction,ComponentPad*%
%ADD12C,2.000000*%
%TD*%
%TA.AperFunction,ComponentPad*%
%ADD13R,3.200000X2.000000*%
%TD*%
%TA.AperFunction,ComponentPad*%
%ADD14O,1.600000X2.000000*%
%TD*%
%TA.AperFunction,ComponentPad*%
%ADD15C,1.524000*%
%TD*%
%TA.AperFunction,ComponentPad*%
%ADD16O,1.700000X1.700000*%
%TD*%
%TA.AperFunction,SMDPad,CuDef*%
%ADD17R,3.500000X1.700000*%
%TD*%
%TA.AperFunction,ComponentPad*%
%ADD18R,1.700000X1.700000*%
%TD*%
%TA.AperFunction,SMDPad,CuDef*%
%ADD19R,1.700000X3.500000*%
%TD*%
G04 APERTURE END LIST*
D10*
%TO.P,S2,1,1*%
%TO.N,S2*%
X125712000Y-95582000D03*
%TO.P,S2,2,2*%
%TO.N,GND*%
X132062000Y-93042000D03*
%TD*%
D11*
%TO.P,SW1,A,A*%
%TO.N,A1*%
X83397000Y-133176000D03*
D12*
%TO.P,SW1,B,B*%
%TO.N,B1*%
X83397000Y-138176000D03*
%TO.P,SW1,C,C*%
%TO.N,GND*%
X83397000Y-135676000D03*
D13*
%TO.P,SW1,MP*%
%TO.N,N/C*%
X90897000Y-130076000D03*
X90897000Y-141276000D03*
D12*
%TO.P,SW1,S1,S1*%
%TO.N,SW1*%
X97897000Y-138176000D03*
%TO.P,SW1,S2,S2*%
%TO.N,GND*%
X97897000Y-133176000D03*
%TD*%
D10*
%TO.P,S9,1,1*%
%TO.N,S9*%
X144762000Y-133682000D03*
%TO.P,S9,2,2*%
%TO.N,GND*%
X151112000Y-131142000D03*
%TD*%
%TO.P,S6,1,1*%
%TO.N,S6*%
X144762000Y-114632000D03*
%TO.P,S6,2,2*%
%TO.N,GND*%
X151112000Y-112092000D03*
%TD*%
D11*
%TO.P,SW2,A,A*%
%TO.N,A2*%
X103222000Y-67047000D03*
D12*
%TO.P,SW2,B,B*%
%TO.N,B2*%
X103222000Y-72047000D03*
%TO.P,SW2,C,C*%
%TO.N,GND*%
X103222000Y-69547000D03*
D13*
%TO.P,SW2,MP*%
%TO.N,N/C*%
X110722000Y-63947000D03*
X110722000Y-75147000D03*
D12*
%TO.P,SW2,S1,S1*%
%TO.N,SW2*%
X117722000Y-72047000D03*
%TO.P,SW2,S2,S2*%
%TO.N,GND*%
X117722000Y-67047000D03*
%TD*%
D10*
%TO.P,S4,1,1*%
%TO.N,S4*%
X106662000Y-114632000D03*
%TO.P,S4,2,2*%
%TO.N,GND*%
X113012000Y-112092000D03*
%TD*%
%TO.P,S5,1,1*%
%TO.N,S5*%
X125712000Y-114632000D03*
%TO.P,S5,2,2*%
%TO.N,GND*%
X132062000Y-112092000D03*
%TD*%
%TO.P,S3,1,1*%
%TO.N,S3*%
X144762000Y-95582000D03*
%TO.P,S3,2,2*%
%TO.N,GND*%
X151112000Y-93042000D03*
%TD*%
D14*
%TO.P,Brd1,1,GND*%
%TO.N,GND*%
X140477000Y-58947000D03*
%TO.P,Brd1,2,VCC*%
%TO.N,+5V*%
X143017000Y-58947000D03*
%TO.P,Brd1,3,SCL*%
%TO.N,SCL*%
X145557000Y-58947000D03*
%TO.P,Brd1,4,SDA*%
%TO.N,SDA*%
X148097000Y-58947000D03*
%TD*%
D10*
%TO.P,S8,1,1*%
%TO.N,S8*%
X125712000Y-133682000D03*
%TO.P,S8,2,2*%
%TO.N,GND*%
X132062000Y-131142000D03*
%TD*%
%TO.P,S7,1,1*%
%TO.N,S7*%
X106662000Y-133682000D03*
%TO.P,S7,2,2*%
%TO.N,GND*%
X113012000Y-131142000D03*
%TD*%
D15*
%TO.P,toggle1,1*%
%TO.N,Toggle1*%
X176342000Y-131777000D03*
%TO.P,toggle1,2*%
%TO.N,Toggle2*%
X176342000Y-126697000D03*
%TO.P,toggle1,3*%
%TO.N,GND*%
X176342000Y-129237000D03*
%TD*%
D10*
%TO.P,S1,1,1*%
%TO.N,S1*%
X106662000Y-95582000D03*
%TO.P,S1,2,2*%
%TO.N,GND*%
X113012000Y-93042000D03*
%TD*%
D16*
%TO.P,U1,1,GPIO0*%
%TO.N,SDA*%
X166182000Y-62392000D03*
D17*
X165282000Y-62392000D03*
D16*
%TO.P,U1,2,GPIO1*%
%TO.N,SCL*%
X166182000Y-64932000D03*
D17*
X165282000Y-64932000D03*
D18*
%TO.P,U1,3,GND*%
%TO.N,GND*%
X166182000Y-67472000D03*
D17*
X165282000Y-67472000D03*
D16*
%TO.P,U1,4,GPIO2*%
%TO.N,SW2*%
X166182000Y-70012000D03*
D17*
X165282000Y-70012000D03*
D16*
%TO.P,U1,5,GPIO3*%
%TO.N,B2*%
X166182000Y-72552000D03*
D17*
X165282000Y-72552000D03*
D16*
%TO.P,U1,6,GPIO4*%
%TO.N,A2*%
X166182000Y-75092000D03*
D17*
X165282000Y-75092000D03*
D16*
%TO.P,U1,7,GPIO5*%
%TO.N,A3*%
X166182000Y-77632000D03*
D17*
X165282000Y-77632000D03*
D18*
%TO.P,U1,8,GND*%
%TO.N,GND*%
X166182000Y-80172000D03*
D17*
X165282000Y-80172000D03*
D16*
%TO.P,U1,9,GPIO6*%
%TO.N,B3*%
X166182000Y-82712000D03*
D17*
X165282000Y-82712000D03*
D16*
%TO.P,U1,10,GPIO7*%
%TO.N,SW3*%
X166182000Y-85252000D03*
D17*
X165282000Y-85252000D03*
D16*
%TO.P,U1,11,GPIO8*%
%TO.N,S1*%
X166182000Y-87792000D03*
D17*
X165282000Y-87792000D03*
D16*
%TO.P,U1,12,GPIO9*%
%TO.N,S2*%
X166182000Y-90332000D03*
D17*
X165282000Y-90332000D03*
D18*
%TO.P,U1,13,GND*%
%TO.N,GND*%
X166182000Y-92872000D03*
D17*
X165282000Y-92872000D03*
D16*
%TO.P,U1,14,GPIO10*%
%TO.N,S3*%
X166182000Y-95412000D03*
D17*
X165282000Y-95412000D03*
D16*
%TO.P,U1,15,GPIO11*%
%TO.N,S4*%
X166182000Y-97952000D03*
D17*
X165282000Y-97952000D03*
D16*
%TO.P,U1,16,GPIO12*%
%TO.N,S5*%
X166182000Y-100492000D03*
D17*
X165282000Y-100492000D03*
D16*
%TO.P,U1,17,GPIO13*%
%TO.N,S6*%
X166182000Y-103032000D03*
D17*
X165282000Y-103032000D03*
D18*
%TO.P,U1,18,GND*%
%TO.N,GND*%
X166182000Y-105572000D03*
D17*
X165282000Y-105572000D03*
D16*
%TO.P,U1,19,GPIO14*%
%TO.N,S7*%
X166182000Y-108112000D03*
D17*
X165282000Y-108112000D03*
D16*
%TO.P,U1,20,GPIO15*%
%TO.N,S8*%
X166182000Y-110652000D03*
D17*
X165282000Y-110652000D03*
D16*
%TO.P,U1,21,GPIO16*%
%TO.N,Toggle2*%
X183962000Y-110652000D03*
D17*
X184862000Y-110652000D03*
D16*
%TO.P,U1,22,GPIO17*%
%TO.N,Toggle1*%
X183962000Y-108112000D03*
D17*
X184862000Y-108112000D03*
D18*
%TO.P,U1,23,GND*%
%TO.N,GND*%
X183962000Y-105572000D03*
D17*
X184862000Y-105572000D03*
D16*
%TO.P,U1,24,GPIO18*%
%TO.N,S9*%
X183962000Y-103032000D03*
D17*
X184862000Y-103032000D03*
D16*
%TO.P,U1,25,GPIO19*%
%TO.N,SW1*%
X183962000Y-100492000D03*
D17*
X184862000Y-100492000D03*
D16*
%TO.P,U1,26,GPIO20*%
%TO.N,A1*%
X183962000Y-97952000D03*
D17*
X184862000Y-97952000D03*
D16*
%TO.P,U1,27,GPIO21*%
%TO.N,B1*%
X183962000Y-95412000D03*
D17*
X184862000Y-95412000D03*
D18*
%TO.P,U1,28,GND*%
%TO.N,GND*%
X183962000Y-92872000D03*
D17*
X184862000Y-92872000D03*
D16*
%TO.P,U1,29,GPIO22*%
%TO.N,unconnected-(U1-GPIO22-Pad29)*%
X183962000Y-90332000D03*
D17*
X184862000Y-90332000D03*
D16*
%TO.P,U1,30,RUN*%
%TO.N,unconnected-(U1-RUN-Pad30)*%
X183962000Y-87792000D03*
D17*
X184862000Y-87792000D03*
D16*
%TO.P,U1,31,GPIO26_ADC0*%
%TO.N,unconnected-(U1-GPIO26_ADC0-Pad31)*%
X183962000Y-85252000D03*
D17*
X184862000Y-85252000D03*
D16*
%TO.P,U1,32,GPIO27_ADC1*%
%TO.N,unconnected-(U1-GPIO27_ADC1-Pad32)*%
X183962000Y-82712000D03*
D17*
X184862000Y-82712000D03*
D18*
%TO.P,U1,33,AGND*%
%TO.N,unconnected-(U1-AGND-Pad33)*%
X183962000Y-80172000D03*
D17*
X184862000Y-80172000D03*
D16*
%TO.P,U1,34,GPIO28_ADC2*%
%TO.N,unconnected-(U1-GPIO28_ADC2-Pad34)*%
X183962000Y-77632000D03*
D17*
X184862000Y-77632000D03*
D16*
%TO.P,U1,35,ADC_VREF*%
%TO.N,unconnected-(U1-ADC_VREF-Pad35)*%
X183962000Y-75092000D03*
D17*
X184862000Y-75092000D03*
D16*
%TO.P,U1,36,3V3*%
%TO.N,+3.3V*%
X183962000Y-72552000D03*
D17*
X184862000Y-72552000D03*
D16*
%TO.P,U1,37,3V3_EN*%
%TO.N,unconnected-(U1-3V3_EN-Pad37)*%
X183962000Y-70012000D03*
D17*
X184862000Y-70012000D03*
D18*
%TO.P,U1,38,GND*%
%TO.N,unconnected-(U1-GND-Pad38)*%
X183962000Y-67472000D03*
D17*
X184862000Y-67472000D03*
D16*
%TO.P,U1,39,VSYS*%
%TO.N,+5V*%
X183962000Y-64932000D03*
D17*
X184862000Y-64932000D03*
D16*
%TO.P,U1,40,VBUS*%
%TO.N,unconnected-(U1-VBUS-Pad40)*%
X183962000Y-62392000D03*
D17*
X184862000Y-62392000D03*
D16*
%TO.P,U1,41,SWCLK*%
%TO.N,unconnected-(U1-SWCLK-Pad41)*%
X172532000Y-110422000D03*
D19*
X172532000Y-111322000D03*
D18*
%TO.P,U1,42,GND*%
%TO.N,GND*%
X175072000Y-110422000D03*
D19*
X175072000Y-111322000D03*
D16*
%TO.P,U1,43,SWDIO*%
%TO.N,unconnected-(U1-SWDIO-Pad43)*%
X177612000Y-110422000D03*
D19*
X177612000Y-111322000D03*
%TD*%
D11*
%TO.P,SW3,A,A*%
%TO.N,A3*%
X83397000Y-93197000D03*
D12*
%TO.P,SW3,B,B*%
%TO.N,B3*%
X83397000Y-98197000D03*
%TO.P,SW3,C,C*%
%TO.N,GND*%
X83397000Y-95697000D03*
D13*
%TO.P,SW3,MP*%
%TO.N,N/C*%
X90897000Y-90097000D03*
X90897000Y-101297000D03*
D12*
%TO.P,SW3,S1,S1*%
%TO.N,SW3*%
X97897000Y-98197000D03*
%TO.P,SW3,S2,S2*%
%TO.N,GND*%
X97897000Y-93197000D03*
%TD*%
%TA.AperFunction,Conductor*%
%TO.N,GND*%
G36*
X199904539Y-55900185D02*
G01*
X199950294Y-55952989D01*
X199961500Y-56004500D01*
X199961500Y-151727500D01*
X199941815Y-151794539D01*
X199889011Y-151840294D01*
X199837500Y-151851500D01*
X80896500Y-151851500D01*
X80829461Y-151831815D01*
X80783706Y-151779011D01*
X80772500Y-151727500D01*
X80772500Y-146927373D01*
X83517723Y-146927373D01*
X83547881Y-147227160D01*
X83547882Y-147227162D01*
X83617728Y-147520252D01*
X83617733Y-147520266D01*
X83726020Y-147801427D01*
X83726024Y-147801436D01*
X83870825Y-148065665D01*
X83870829Y-148065671D01*
X84049551Y-148308234D01*
X84049554Y-148308238D01*
X84049561Y-148308245D01*
X84259019Y-148524823D01*
X84495478Y-148711553D01*
X84495480Y-148711554D01*
X84495485Y-148711558D01*
X84754730Y-148865109D01*
X85032128Y-148982736D01*
X85322729Y-149062340D01*
X85621347Y-149102500D01*
X85621351Y-149102500D01*
X85847252Y-149102500D01*
X86011164Y-149091526D01*
X86072634Y-149087412D01*
X86367903Y-149027396D01*
X86652537Y-148928560D01*
X86921459Y-148792668D01*
X87169869Y-148622144D01*
X87393333Y-148420032D01*
X87587865Y-148189939D01*
X87749993Y-147935970D01*
X87876823Y-147662658D01*
X87966093Y-147374879D01*
X88016209Y-147077770D01*
X88021237Y-146927373D01*
X192707723Y-146927373D01*
X192737881Y-147227160D01*
X192737882Y-147227162D01*
X192807728Y-147520252D01*
X192807733Y-147520266D01*
X192916020Y-147801427D01*
X192916024Y-147801436D01*
X193060825Y-148065665D01*
X193060829Y-148065671D01*
X193239551Y-148308234D01*
X193239554Y-148308238D01*
X193239561Y-148308245D01*
X193449019Y-148524823D01*
X193685478Y-148711553D01*
X193685480Y-148711554D01*
X193685485Y-148711558D01*
X193944730Y-148865109D01*
X194222128Y-148982736D01*
X194512729Y-149062340D01*
X194811347Y-149102500D01*
X194811351Y-149102500D01*
X195037252Y-149102500D01*
X195201164Y-149091526D01*
X195262634Y-149087412D01*
X195557903Y-149027396D01*
X195842537Y-148928560D01*
X196111459Y-148792668D01*
X196359869Y-148622144D01*
X196583333Y-148420032D01*
X196777865Y-148189939D01*
X196939993Y-147935970D01*
X197066823Y-147662658D01*
X197156093Y-147374879D01*
X197206209Y-147077770D01*
X197216277Y-146776631D01*
X197186118Y-146476838D01*
X197116269Y-146183739D01*
X197007977Y-145902566D01*
X196863175Y-145638335D01*
X196684446Y-145395762D01*
X196474980Y-145179176D01*
X196351742Y-145081856D01*
X196238521Y-144992446D01*
X196238517Y-144992443D01*
X196238515Y-144992442D01*
X195979270Y-144838891D01*
X195701872Y-144721264D01*
X195701863Y-144721261D01*
X195411272Y-144641660D01*
X195336616Y-144631620D01*
X195112653Y-144601500D01*
X194886756Y-144601500D01*
X194886748Y-144601500D01*
X194661368Y-144616587D01*
X194661359Y-144616589D01*
X194366094Y-144676604D01*
X194081464Y-144775439D01*
X194081459Y-144775441D01*
X193812546Y-144911328D01*
X193564125Y-145081860D01*
X193340665Y-145283969D01*
X193146132Y-145514064D01*
X192984006Y-145768030D01*
X192984005Y-145768032D01*
X192857181Y-146041333D01*
X192857177Y-146041342D01*
X192857176Y-146041346D01*
X192767907Y-146329118D01*
X192717791Y-146626230D01*
X192707723Y-146927373D01*
X88021237Y-146927373D01*
X88026277Y-146776631D01*
X87996118Y-146476838D01*
X87926269Y-146183739D01*
X87817977Y-145902566D01*
X87673175Y-145638335D01*
X87494446Y-145395762D01*
X87284980Y-145179176D01*
X87161742Y-145081856D01*
X87048521Y-144992446D01*
X87048517Y-144992443D01*
X87048515Y-144992442D01*
X86789270Y-144838891D01*
X86511872Y-144721264D01*
X86511863Y-144721261D01*
X86221272Y-144641660D01*
X86146616Y-144631620D01*
X85922653Y-144601500D01*
X85696756Y-144601500D01*
X85696748Y-144601500D01*
X85471368Y-144616587D01*
X85471359Y-144616589D01*
X85176094Y-144676604D01*
X84891464Y-144775439D01*
X84891459Y-144775441D01*
X84622546Y-144911328D01*
X84374125Y-145081860D01*
X84150665Y-145283969D01*
X83956132Y-145514064D01*
X83794006Y-145768030D01*
X83794005Y-145768032D01*
X83667181Y-146041333D01*
X83667177Y-146041342D01*
X83667176Y-146041346D01*
X83577907Y-146329118D01*
X83527791Y-146626230D01*
X83517723Y-146927373D01*
X80772500Y-146927373D01*
X80772500Y-142323870D01*
X88796500Y-142323870D01*
X88796501Y-142323876D01*
X88802908Y-142383483D01*
X88853202Y-142518328D01*
X88853206Y-142518335D01*
X88939452Y-142633544D01*
X88939455Y-142633547D01*
X89054664Y-142719793D01*
X89054671Y-142719797D01*
X89189517Y-142770091D01*
X89189516Y-142770091D01*
X89196444Y-142770835D01*
X89249127Y-142776500D01*
X92544872Y-142776499D01*
X92604483Y-142770091D01*
X92739331Y-142719796D01*
X92854546Y-142633546D01*
X92940796Y-142518331D01*
X92991091Y-142383483D01*
X92997500Y-142323873D01*
X92997499Y-140228128D01*
X92991091Y-140168517D01*
X92940796Y-140033669D01*
X92940795Y-140033668D01*
X92940793Y-140033664D01*
X92854547Y-139918455D01*
X92854544Y-139918452D01*
X92739335Y-139832206D01*
X92739328Y-139832202D01*
X92604482Y-139781908D01*
X92604483Y-139781908D01*
X92544883Y-139775501D01*
X92544881Y-139775500D01*
X92544873Y-139775500D01*
X92544864Y-139775500D01*
X89249129Y-139775500D01*
X89249123Y-139775501D01*
X89189516Y-139781908D01*
X89054671Y-139832202D01*
X89054664Y-139832206D01*
X88939455Y-139918452D01*
X88939452Y-139918455D01*
X88853206Y-140033664D01*
X88853202Y-140033671D01*
X88802908Y-140168517D01*
X88796501Y-140228116D01*
X88796501Y-140228123D01*
X88796500Y-140228135D01*
X88796500Y-142323870D01*
X80772500Y-142323870D01*
X80772500Y-138176005D01*
X81891357Y-138176005D01*
X81911890Y-138423812D01*
X81911892Y-138423824D01*
X81972936Y-138664881D01*
X82072826Y-138892606D01*
X82208833Y-139100782D01*
X82208836Y-139100785D01*
X82377256Y-139283738D01*
X82573491Y-139436474D01*
X82792190Y-139554828D01*
X83027386Y-139635571D01*
X83272665Y-139676500D01*
X83521335Y-139676500D01*
X83766614Y-139635571D01*
X84001810Y-139554828D01*
X84220509Y-139436474D01*
X84416744Y-139283738D01*
X84585164Y-139100785D01*
X84721173Y-138892607D01*
X84821063Y-138664881D01*
X84882108Y-138423821D01*
X84887998Y-138352738D01*
X84902643Y-138176005D01*
X96391357Y-138176005D01*
X96411890Y-138423812D01*
X96411892Y-138423824D01*
X96472936Y-138664881D01*
X96572826Y-138892606D01*
X96708833Y-139100782D01*
X96708836Y-139100785D01*
X96877256Y-139283738D01*
X97073491Y-139436474D01*
X97292190Y-139554828D01*
X97527386Y-139635571D01*
X97772665Y-139676500D01*
X98021335Y-139676500D01*
X98266614Y-139635571D01*
X98501810Y-139554828D01*
X98720509Y-139436474D01*
X98916744Y-139283738D01*
X99085164Y-139100785D01*
X99221173Y-138892607D01*
X99321063Y-138664881D01*
X99382108Y-138423821D01*
X99387998Y-138352738D01*
X99402643Y-138176005D01*
X99402643Y-138175994D01*
X99382109Y-137928187D01*
X99382107Y-137928175D01*
X99321063Y-137687118D01*
X99221173Y-137459393D01*
X99085166Y-137251217D01*
X99011714Y-137171427D01*
X98916744Y-137068262D01*
X98720509Y-136915526D01*
X98720507Y-136915525D01*
X98720506Y-136915524D01*
X98501811Y-136797172D01*
X98501802Y-136797169D01*
X98266616Y-136716429D01*
X98021335Y-136675500D01*
X97772665Y-136675500D01*
X97527383Y-136716429D01*
X97292197Y-136797169D01*
X97292188Y-136797172D01*
X97073493Y-136915524D01*
X96877257Y-137068261D01*
X96708833Y-137251217D01*
X96572826Y-137459393D01*
X96472936Y-137687118D01*
X96411892Y-137928175D01*
X96411890Y-137928187D01*
X96391357Y-138175994D01*
X96391357Y-138176005D01*
X84902643Y-138176005D01*
X84902643Y-138175994D01*
X84882109Y-137928187D01*
X84882107Y-137928175D01*
X84821063Y-137687118D01*
X84721173Y-137459393D01*
X84585166Y-137251217D01*
X84511714Y-137171427D01*
X84416744Y-137068262D01*
X84315623Y-136989556D01*
X84274810Y-136932846D01*
X84270697Y-136903249D01*
X83529533Y-136162086D01*
X83539315Y-136160680D01*
X83670100Y-136100952D01*
X83778761Y-136006798D01*
X83856493Y-135885844D01*
X83880076Y-135805524D01*
X84620434Y-136545882D01*
X84720731Y-136392369D01*
X84819058Y-136168202D01*
X104262660Y-136168202D01*
X104272887Y-136382901D01*
X104323563Y-136591791D01*
X104323565Y-136591795D01*
X104380483Y-136716429D01*
X104412854Y-136787310D01*
X104537534Y-136962399D01*
X104537535Y-136962400D01*
X104537540Y-136962406D01*
X104693094Y-137110725D01*
X104693096Y-137110726D01*
X104693097Y-137110727D01*
X104873920Y-137226935D01*
X105073468Y-137306822D01*
X105178998Y-137327161D01*
X105284527Y-137347500D01*
X105284528Y-137347500D01*
X105445612Y-137347500D01*
X105445618Y-137347500D01*
X105605971Y-137332188D01*
X105812209Y-137271631D01*
X106003259Y-137173138D01*
X106172217Y-137040268D01*
X106312976Y-136877824D01*
X106420448Y-136691677D01*
X106490750Y-136488554D01*
X106518237Y-136297373D01*
X108217723Y-136297373D01*
X108247881Y-136597160D01*
X108247882Y-136597162D01*
X108317728Y-136890252D01*
X108317733Y-136890266D01*
X108426020Y-137171427D01*
X108426024Y-137171436D01*
X108570825Y-137435665D01*
X108570829Y-137435671D01*
X108749551Y-137678234D01*
X108749554Y-137678238D01*
X108749561Y-137678245D01*
X108959019Y-137894823D01*
X109195478Y-138081553D01*
X109195480Y-138081554D01*
X109195485Y-138081558D01*
X109454730Y-138235109D01*
X109732128Y-138352736D01*
X110022729Y-138432340D01*
X110321347Y-138472500D01*
X110321351Y-138472500D01*
X110547252Y-138472500D01*
X110711164Y-138461526D01*
X110772634Y-138457412D01*
X111067903Y-138397396D01*
X111352537Y-138298560D01*
X111621459Y-138162668D01*
X111869869Y-137992144D01*
X112093333Y-137790032D01*
X112287865Y-137559939D01*
X112449993Y-137305970D01*
X112576823Y-137032658D01*
X112666093Y-136744879D01*
X112716209Y-136447770D01*
X112725556Y-136168202D01*
X114422660Y-136168202D01*
X114432887Y-136382901D01*
X114483563Y-136591791D01*
X114483565Y-136591795D01*
X114540483Y-136716429D01*
X114572854Y-136787310D01*
X114697534Y-136962399D01*
X114697535Y-136962400D01*
X114697540Y-136962406D01*
X114853094Y-137110725D01*
X114853096Y-137110726D01*
X114853097Y-137110727D01*
X115033920Y-137226935D01*
X115233468Y-137306822D01*
X115338998Y-137327161D01*
X115444527Y-137347500D01*
X115444528Y-137347500D01*
X115605612Y-137347500D01*
X115605618Y-137347500D01*
X115765971Y-137332188D01*
X115972209Y-137271631D01*
X116163259Y-137173138D01*
X116332217Y-137040268D01*
X116472976Y-136877824D01*
X116580448Y-136691677D01*
X116650750Y-136488554D01*
X116681339Y-136275797D01*
X116676214Y-136168202D01*
X123312660Y-136168202D01*
X123322887Y-136382901D01*
X123373563Y-136591791D01*
X123373565Y-136591795D01*
X123430483Y-136716429D01*
X123462854Y-136787310D01*
X123587534Y-136962399D01*
X123587535Y-136962400D01*
X123587540Y-136962406D01*
X123743094Y-137110725D01*
X123743096Y-137110726D01*
X123743097Y-137110727D01*
X123923920Y-137226935D01*
X124123468Y-137306822D01*
X124228998Y-137327161D01*
X124334527Y-137347500D01*
X124334528Y-137347500D01*
X124495612Y-137347500D01*
X124495618Y-137347500D01*
X124655971Y-137332188D01*
X124862209Y-137271631D01*
X125053259Y-137173138D01*
X125222217Y-137040268D01*
X125362976Y-136877824D01*
X125470448Y-136691677D01*
X125540750Y-136488554D01*
X125568237Y-136297373D01*
X127267723Y-136297373D01*
X127297881Y-136597160D01*
X127297882Y-136597162D01*
X127367728Y-136890252D01*
X127367733Y-136890266D01*
X127476020Y-137171427D01*
X127476024Y-137171436D01*
X127620825Y-137435665D01*
X127620829Y-137435671D01*
X127799551Y-137678234D01*
X127799554Y-137678238D01*
X127799561Y-137678245D01*
X128009019Y-137894823D01*
X128245478Y-138081553D01*
X128245480Y-138081554D01*
X128245485Y-138081558D01*
X128504730Y-138235109D01*
X128782128Y-138352736D01*
X129072729Y-138432340D01*
X129371347Y-138472500D01*
X129371351Y-138472500D01*
X129597252Y-138472500D01*
X129761164Y-138461526D01*
X129822634Y-138457412D01*
X130117903Y-138397396D01*
X130402537Y-138298560D01*
X130671459Y-138162668D01*
X130919869Y-137992144D01*
X131143333Y-137790032D01*
X131337865Y-137559939D01*
X131499993Y-137305970D01*
X131626823Y-137032658D01*
X131716093Y-136744879D01*
X131766209Y-136447770D01*
X131775556Y-136168202D01*
X133472660Y-136168202D01*
X133482887Y-136382901D01*
X133533563Y-136591791D01*
X133533565Y-136591795D01*
X133590483Y-136716429D01*
X133622854Y-136787310D01*
X133747534Y-136962399D01*
X133747535Y-136962400D01*
X133747540Y-136962406D01*
X133903094Y-137110725D01*
X133903096Y-137110726D01*
X133903097Y-137110727D01*
X134083920Y-137226935D01*
X134283468Y-137306822D01*
X134388998Y-137327161D01*
X134494527Y-137347500D01*
X134494528Y-137347500D01*
X134655612Y-137347500D01*
X134655618Y-137347500D01*
X134815971Y-137332188D01*
X135022209Y-137271631D01*
X135213259Y-137173138D01*
X135382217Y-137040268D01*
X135522976Y-136877824D01*
X135630448Y-136691677D01*
X135700750Y-136488554D01*
X135731339Y-136275797D01*
X135726214Y-136168202D01*
X142362660Y-136168202D01*
X142372887Y-136382901D01*
X142423563Y-136591791D01*
X142423565Y-136591795D01*
X142480483Y-136716429D01*
X142512854Y-136787310D01*
X142637534Y-136962399D01*
X142637535Y-136962400D01*
X142637540Y-136962406D01*
X142793094Y-137110725D01*
X142793096Y-137110726D01*
X142793097Y-137110727D01*
X142973920Y-137226935D01*
X143173468Y-137306822D01*
X143278998Y-137327161D01*
X143384527Y-137347500D01*
X143384528Y-137347500D01*
X143545612Y-137347500D01*
X143545618Y-137347500D01*
X143705971Y-137332188D01*
X143912209Y-137271631D01*
X144103259Y-137173138D01*
X144272217Y-137040268D01*
X144412976Y-136877824D01*
X144520448Y-136691677D01*
X144590750Y-136488554D01*
X144618237Y-136297373D01*
X146317723Y-136297373D01*
X146347881Y-136597160D01*
X146347882Y-136597162D01*
X146417728Y-136890252D01*
X146417733Y-136890266D01*
X146526020Y-137171427D01*
X146526024Y-137171436D01*
X146670825Y-137435665D01*
X146670829Y-137435671D01*
X146849551Y-137678234D01*
X146849554Y-137678238D01*
X146849561Y-137678245D01*
X147059019Y-137894823D01*
X147295478Y-138081553D01*
X147295480Y-138081554D01*
X147295485Y-138081558D01*
X147554730Y-138235109D01*
X147832128Y-138352736D01*
X148122729Y-138432340D01*
X148421347Y-138472500D01*
X148421351Y-138472500D01*
X148647252Y-138472500D01*
X148811164Y-138461526D01*
X148872634Y-138457412D01*
X149167903Y-138397396D01*
X149452537Y-138298560D01*
X149721459Y-138162668D01*
X149969869Y-137992144D01*
X150193333Y-137790032D01*
X150387865Y-137559939D01*
X150549993Y-137305970D01*
X150676823Y-137032658D01*
X150766093Y-136744879D01*
X150816209Y-136447770D01*
X150825556Y-136168202D01*
X152522660Y-136168202D01*
X152532887Y-136382901D01*
X152583563Y-136591791D01*
X152583565Y-136591795D01*
X152640483Y-136716429D01*
X152672854Y-136787310D01*
X152797534Y-136962399D01*
X152797535Y-136962400D01*
X152797540Y-136962406D01*
X152953094Y-137110725D01*
X152953096Y-137110726D01*
X152953097Y-137110727D01*
X153133920Y-137226935D01*
X153333468Y-137306822D01*
X153438998Y-137327161D01*
X153544527Y-137347500D01*
X153544528Y-137347500D01*
X153705612Y-137347500D01*
X153705618Y-137347500D01*
X153865971Y-137332188D01*
X154072209Y-137271631D01*
X154263259Y-137173138D01*
X154432217Y-137040268D01*
X154572976Y-136877824D01*
X154680448Y-136691677D01*
X154750750Y-136488554D01*
X154781339Y-136275797D01*
X154771112Y-136061096D01*
X154720437Y-135852210D01*
X154631146Y-135656690D01*
X154506466Y-135481601D01*
X154506464Y-135481599D01*
X154506459Y-135481593D01*
X154350905Y-135333274D01*
X154170080Y-135217065D01*
X153970530Y-135137177D01*
X153759473Y-135096500D01*
X153759472Y-135096500D01*
X153598382Y-135096500D01*
X153438050Y-135111810D01*
X153438029Y-135111812D01*
X153438025Y-135111813D01*
X153231793Y-135172368D01*
X153040736Y-135270864D01*
X152871785Y-135403729D01*
X152871782Y-135403733D01*
X152731021Y-135566178D01*
X152623553Y-135752319D01*
X152553251Y-135955442D01*
X152553250Y-135955444D01*
X152522661Y-136168200D01*
X152522660Y-136168202D01*
X150825556Y-136168202D01*
X150826277Y-136146631D01*
X150796118Y-135846838D01*
X150726269Y-135553739D01*
X150617977Y-135272566D01*
X150473175Y-135008335D01*
X150294446Y-134765762D01*
X150084980Y-134549176D01*
X149961742Y-134451856D01*
X149848521Y-134362446D01*
X149848517Y-134362443D01*
X149848515Y-134362442D01*
X149589270Y-134208891D01*
X149311872Y-134091264D01*
X149311863Y-134091261D01*
X149021272Y-134011660D01*
X148946616Y-134001620D01*
X148722653Y-133971500D01*
X148496756Y-133971500D01*
X148496748Y-133971500D01*
X148271368Y-133986587D01*
X148271359Y-133986589D01*
X147976094Y-134046604D01*
X147691464Y-134145439D01*
X147691459Y-134145441D01*
X147422546Y-134281328D01*
X147174125Y-134451860D01*
X146950665Y-134653969D01*
X146756132Y-134884064D01*
X146594006Y-135138030D01*
X146594005Y-135138032D01*
X146503404Y-135333274D01*
X146467177Y-135411342D01*
X146461929Y-135428261D01*
X146377907Y-135699118D01*
X146368933Y-135752323D01*
X146327791Y-135996230D01*
X146322042Y-136168202D01*
X146317723Y-136297373D01*
X144618237Y-136297373D01*
X144621339Y-136275797D01*
X144611112Y-136061096D01*
X144560437Y-135852210D01*
X144471146Y-135656690D01*
X144442664Y-135616692D01*
X144419811Y-135550665D01*
X144436284Y-135482765D01*
X144486851Y-135434549D01*
X144555458Y-135421326D01*
X144562140Y-135422148D01*
X144630818Y-135432500D01*
X144893182Y-135432500D01*
X145152615Y-135393396D01*
X145403323Y-135316063D01*
X145639704Y-135202228D01*
X145856479Y-135054433D01*
X146048805Y-134875981D01*
X146212386Y-134670857D01*
X146343568Y-134443643D01*
X146439420Y-134199416D01*
X146497802Y-133943630D01*
X146497803Y-133943620D01*
X146517408Y-133682004D01*
X146517408Y-133681995D01*
X146497803Y-133420379D01*
X146497802Y-133420374D01*
X146497802Y-133420370D01*
X146439420Y-133164584D01*
X146343568Y-132920357D01*
X146212386Y-132693143D01*
X146048805Y-132488019D01*
X146048804Y-132488018D01*
X146048801Y-132488014D01*
X145856479Y-132309567D01*
X145851417Y-132306116D01*
X145639704Y-132161772D01*
X145639700Y-132161770D01*
X145639697Y-132161768D01*
X145639696Y-132161767D01*
X145403325Y-132047938D01*
X145403327Y-132047938D01*
X145152623Y-131970606D01*
X145152619Y-131970605D01*
X145152615Y-131970604D01*
X145027823Y-131951794D01*
X144893187Y-131931500D01*
X144893182Y-131931500D01*
X144630818Y-131931500D01*
X144630812Y-131931500D01*
X144469247Y-131955853D01*
X144371385Y-131970604D01*
X144371382Y-131970605D01*
X144371376Y-131970606D01*
X144120673Y-132047938D01*
X143884303Y-132161767D01*
X143884302Y-132161768D01*
X143667520Y-132309567D01*
X143475198Y-132488014D01*
X143311614Y-132693143D01*
X143180432Y-132920356D01*
X143084582Y-133164578D01*
X143084576Y-133164597D01*
X143026197Y-133420374D01*
X143026196Y-133420379D01*
X143006592Y-133681995D01*
X143006592Y-133682004D01*
X143026196Y-133943620D01*
X143026197Y-133943625D01*
X143084576Y-134199402D01*
X143084578Y-134199411D01*
X143084580Y-134199416D01*
X143180432Y-134443643D01*
X143311614Y-134670857D01*
X143475195Y-134875981D01*
X143475197Y-134875983D01*
X143475198Y-134875984D01*
X143484569Y-134884679D01*
X143520324Y-134944707D01*
X143517950Y-135014536D01*
X143478200Y-135071997D01*
X143413695Y-135098846D01*
X143412016Y-135099017D01*
X143278039Y-135111810D01*
X143278030Y-135111811D01*
X143278029Y-135111812D01*
X143278027Y-135111812D01*
X143278025Y-135111813D01*
X143071793Y-135172368D01*
X142880736Y-135270864D01*
X142711785Y-135403729D01*
X142711782Y-135403733D01*
X142571021Y-135566178D01*
X142463553Y-135752319D01*
X142393251Y-135955442D01*
X142393250Y-135955444D01*
X142362661Y-136168200D01*
X142362660Y-136168202D01*
X135726214Y-136168202D01*
X135721112Y-136061096D01*
X135670437Y-135852210D01*
X135581146Y-135656690D01*
X135456466Y-135481601D01*
X135456464Y-135481599D01*
X135456459Y-135481593D01*
X135300905Y-135333274D01*
X135120080Y-135217065D01*
X134920530Y-135137177D01*
X134709473Y-135096500D01*
X134709472Y-135096500D01*
X134548382Y-135096500D01*
X134388050Y-135111810D01*
X134388029Y-135111812D01*
X134388025Y-135111813D01*
X134181793Y-135172368D01*
X133990736Y-135270864D01*
X133821785Y-135403729D01*
X133821782Y-135403733D01*
X133681021Y-135566178D01*
X133573553Y-135752319D01*
X133503251Y-135955442D01*
X133503250Y-135955444D01*
X133472661Y-136168200D01*
X133472660Y-136168202D01*
X131775556Y-136168202D01*
X131776277Y-136146631D01*
X131746118Y-135846838D01*
X131676269Y-135553739D01*
X131567977Y-135272566D01*
X131423175Y-135008335D01*
X131244446Y-134765762D01*
X131034980Y-134549176D01*
X130911742Y-134451856D01*
X130798521Y-134362446D01*
X130798517Y-134362443D01*
X130798515Y-134362442D01*
X130539270Y-134208891D01*
X130261872Y-134091264D01*
X130261863Y-134091261D01*
X129971272Y-134011660D01*
X129896616Y-134001620D01*
X129672653Y-133971500D01*
X129446756Y-133971500D01*
X129446748Y-133971500D01*
X129221368Y-133986587D01*
X129221359Y-133986589D01*
X128926094Y-134046604D01*
X128641464Y-134145439D01*
X128641459Y-134145441D01*
X128372546Y-134281328D01*
X128124125Y-134451860D01*
X127900665Y-134653969D01*
X127706132Y-134884064D01*
X127544006Y-135138030D01*
X127544005Y-135138032D01*
X127453404Y-135333274D01*
X127417177Y-135411342D01*
X127411929Y-135428261D01*
X127327907Y-135699118D01*
X127318933Y-135752323D01*
X127277791Y-135996230D01*
X127272042Y-136168202D01*
X127267723Y-136297373D01*
X125568237Y-136297373D01*
X125571339Y-136275797D01*
X125561112Y-136061096D01*
X125510437Y-135852210D01*
X125421146Y-135656690D01*
X125392664Y-135616692D01*
X125369811Y-135550665D01*
X125386284Y-135482765D01*
X125436851Y-135434549D01*
X125505458Y-135421326D01*
X125512140Y-135422148D01*
X125580818Y-135432500D01*
X125843182Y-135432500D01*
X126102615Y-135393396D01*
X126353323Y-135316063D01*
X126589704Y-135202228D01*
X126806479Y-135054433D01*
X126998805Y-134875981D01*
X127162386Y-134670857D01*
X127293568Y-134443643D01*
X127389420Y-134199416D01*
X127447802Y-133943630D01*
X127447803Y-133943620D01*
X127467408Y-133682004D01*
X127467408Y-133681995D01*
X127447803Y-133420379D01*
X127447802Y-133420374D01*
X127447802Y-133420370D01*
X127389420Y-133164584D01*
X127293568Y-132920357D01*
X127162386Y-132693143D01*
X126998805Y-132488019D01*
X126998804Y-132488018D01*
X126998801Y-132488014D01*
X126806479Y-132309567D01*
X126801417Y-132306116D01*
X126589704Y-132161772D01*
X126589700Y-132161770D01*
X126589697Y-132161768D01*
X126589696Y-132161767D01*
X126353325Y-132047938D01*
X126353327Y-132047938D01*
X126102623Y-131970606D01*
X126102619Y-131970605D01*
X126102615Y-131970604D01*
X125977823Y-131951794D01*
X125843187Y-131931500D01*
X125843182Y-131931500D01*
X125580818Y-131931500D01*
X125580812Y-131931500D01*
X125419247Y-131955853D01*
X125321385Y-131970604D01*
X125321382Y-131970605D01*
X125321376Y-131970606D01*
X125070673Y-132047938D01*
X124834303Y-132161767D01*
X124834302Y-132161768D01*
X124617520Y-132309567D01*
X124425198Y-132488014D01*
X124261614Y-132693143D01*
X124130432Y-132920356D01*
X124034582Y-133164578D01*
X124034576Y-133164597D01*
X123976197Y-133420374D01*
X123976196Y-133420379D01*
X123956592Y-133681995D01*
X123956592Y-133682004D01*
X123976196Y-133943620D01*
X123976197Y-133943625D01*
X124034576Y-134199402D01*
X124034578Y-134199411D01*
X124034580Y-134199416D01*
X124130432Y-134443643D01*
X124261614Y-134670857D01*
X124425195Y-134875981D01*
X124425197Y-134875983D01*
X124425198Y-134875984D01*
X124434569Y-134884679D01*
X124470324Y-134944707D01*
X124467950Y-135014536D01*
X124428200Y-135071997D01*
X124363695Y-135098846D01*
X124362016Y-135099017D01*
X124228039Y-135111810D01*
X124228030Y-135111811D01*
X124228029Y-135111812D01*
X124228027Y-135111812D01*
X124228025Y-135111813D01*
X124021793Y-135172368D01*
X123830736Y-135270864D01*
X123661785Y-135403729D01*
X123661782Y-135403733D01*
X123521021Y-135566178D01*
X123413553Y-135752319D01*
X123343251Y-135955442D01*
X123343250Y-135955444D01*
X123312661Y-136168200D01*
X123312660Y-136168202D01*
X116676214Y-136168202D01*
X116671112Y-136061096D01*
X116620437Y-135852210D01*
X116531146Y-135656690D01*
X116406466Y-135481601D01*
X116406464Y-135481599D01*
X116406459Y-135481593D01*
X116250905Y-135333274D01*
X116070080Y-135217065D01*
X115870530Y-135137177D01*
X115659473Y-135096500D01*
X115659472Y-135096500D01*
X115498382Y-135096500D01*
X115338050Y-135111810D01*
X115338029Y-135111812D01*
X115338025Y-135111813D01*
X115131793Y-135172368D01*
X114940736Y-135270864D01*
X114771785Y-135403729D01*
X114771782Y-135403733D01*
X114631021Y-135566178D01*
X114523553Y-135752319D01*
X114453251Y-135955442D01*
X114453250Y-135955444D01*
X114422661Y-136168200D01*
X114422660Y-136168202D01*
X112725556Y-136168202D01*
X112726277Y-136146631D01*
X112696118Y-135846838D01*
X112626269Y-135553739D01*
X112517977Y-135272566D01*
X112373175Y-135008335D01*
X112194446Y-134765762D01*
X111984980Y-134549176D01*
X111861742Y-134451856D01*
X111748521Y-134362446D01*
X111748517Y-134362443D01*
X111748515Y-134362442D01*
X111489270Y-134208891D01*
X111211872Y-134091264D01*
X111211863Y-134091261D01*
X110921272Y-134011660D01*
X110846616Y-134001620D01*
X110622653Y-133971500D01*
X110396756Y-133971500D01*
X110396748Y-133971500D01*
X110171368Y-133986587D01*
X110171359Y-133986589D01*
X109876094Y-134046604D01*
X109591464Y-134145439D01*
X109591459Y-134145441D01*
X109322546Y-134281328D01*
X109074125Y-134451860D01*
X108850665Y-134653969D01*
X108656132Y-134884064D01*
X108494006Y-135138030D01*
X108494005Y-135138032D01*
X108403404Y-135333274D01*
X108367177Y-135411342D01*
X108361929Y-135428261D01*
X108277907Y-135699118D01*
X108268933Y-135752323D01*
X108227791Y-135996230D01*
X108222042Y-136168202D01*
X108217723Y-136297373D01*
X106518237Y-136297373D01*
X106521339Y-136275797D01*
X106511112Y-136061096D01*
X106460437Y-135852210D01*
X106371146Y-135656690D01*
X106342664Y-135616692D01*
X106319811Y-135550665D01*
X106336284Y-135482765D01*
X106386851Y-135434549D01*
X106455458Y-135421326D01*
X106462140Y-135422148D01*
X106530818Y-135432500D01*
X106793182Y-135432500D01*
X107052615Y-135393396D01*
X107303323Y-135316063D01*
X107539704Y-135202228D01*
X107756479Y-135054433D01*
X107948805Y-134875981D01*
X108112386Y-134670857D01*
X108243568Y-134443643D01*
X108339420Y-134199416D01*
X108397802Y-133943630D01*
X108397803Y-133943620D01*
X108417408Y-133682004D01*
X108417408Y-133681995D01*
X108397803Y-133420379D01*
X108397802Y-133420374D01*
X108397802Y-133420370D01*
X108339420Y-133164584D01*
X108243568Y-132920357D01*
X108112386Y-132693143D01*
X107948805Y-132488019D01*
X107948804Y-132488018D01*
X107948801Y-132488014D01*
X107756479Y-132309567D01*
X107751417Y-132306116D01*
X107539704Y-132161772D01*
X107539700Y-132161770D01*
X107539697Y-132161768D01*
X107539696Y-132161767D01*
X107303325Y-132047938D01*
X107303327Y-132047938D01*
X107052623Y-131970606D01*
X107052619Y-131970605D01*
X107052615Y-131970604D01*
X106927823Y-131951794D01*
X106793187Y-131931500D01*
X106793182Y-131931500D01*
X106530818Y-131931500D01*
X106530812Y-131931500D01*
X106369247Y-131955853D01*
X106271385Y-131970604D01*
X106271382Y-131970605D01*
X106271376Y-131970606D01*
X106020673Y-132047938D01*
X105784303Y-132161767D01*
X105784302Y-132161768D01*
X105567520Y-132309567D01*
X105375198Y-132488014D01*
X105211614Y-132693143D01*
X105080432Y-132920356D01*
X104984582Y-133164578D01*
X104984576Y-133164597D01*
X104926197Y-133420374D01*
X104926196Y-133420379D01*
X104906592Y-133681995D01*
X104906592Y-133682004D01*
X104926196Y-133943620D01*
X104926197Y-133943625D01*
X104984576Y-134199402D01*
X104984578Y-134199411D01*
X104984580Y-134199416D01*
X105080432Y-134443643D01*
X105211614Y-134670857D01*
X105375195Y-134875981D01*
X105375197Y-134875983D01*
X105375198Y-134875984D01*
X105384569Y-134884679D01*
X105420324Y-134944707D01*
X105417950Y-135014536D01*
X105378200Y-135071997D01*
X105313695Y-135098846D01*
X105312016Y-135099017D01*
X105178039Y-135111810D01*
X105178030Y-135111811D01*
X105178029Y-135111812D01*
X105178027Y-135111812D01*
X105178025Y-135111813D01*
X104971793Y-135172368D01*
X104780736Y-135270864D01*
X104611785Y-135403729D01*
X104611782Y-135403733D01*
X104471021Y-135566178D01*
X104363553Y-135752319D01*
X104293251Y-135955442D01*
X104293250Y-135955444D01*
X104262661Y-136168200D01*
X104262660Y-136168202D01*
X84819058Y-136168202D01*
X84820587Y-136164717D01*
X84881612Y-135923738D01*
X84881614Y-135923729D01*
X84902141Y-135676005D01*
X84902141Y-135675994D01*
X84881614Y-135428270D01*
X84881612Y-135428261D01*
X84820587Y-135187282D01*
X84720732Y-134959632D01*
X84608515Y-134787870D01*
X84588328Y-134720981D01*
X84607508Y-134653795D01*
X84638013Y-134620782D01*
X84639329Y-134619796D01*
X84639331Y-134619796D01*
X84754546Y-134533546D01*
X84840796Y-134418331D01*
X84891091Y-134283483D01*
X84897500Y-134223873D01*
X84897500Y-133176005D01*
X96391859Y-133176005D01*
X96412385Y-133423729D01*
X96412387Y-133423738D01*
X96473412Y-133664717D01*
X96573266Y-133892364D01*
X96673564Y-134045882D01*
X97413923Y-133305523D01*
X97437507Y-133385844D01*
X97515239Y-133506798D01*
X97623900Y-133600952D01*
X97754685Y-133660680D01*
X97764466Y-133662086D01*
X97026942Y-134399609D01*
X97073768Y-134436055D01*
X97073770Y-134436056D01*
X97292385Y-134554364D01*
X97292396Y-134554369D01*
X97527506Y-134635083D01*
X97772707Y-134676000D01*
X98021293Y-134676000D01*
X98266493Y-134635083D01*
X98501603Y-134554369D01*
X98501614Y-134554364D01*
X98720228Y-134436057D01*
X98720231Y-134436055D01*
X98767056Y-134399609D01*
X98029533Y-133662086D01*
X98039315Y-133660680D01*
X98170100Y-133600952D01*
X98278761Y-133506798D01*
X98356493Y-133385844D01*
X98380076Y-133305524D01*
X99120434Y-134045882D01*
X99220731Y-133892369D01*
X99320587Y-133664717D01*
X99381612Y-133423738D01*
X99381614Y-133423729D01*
X99402141Y-133176005D01*
X99402141Y-133175994D01*
X99381614Y-132928270D01*
X99381612Y-132928261D01*
X99320587Y-132687282D01*
X99220731Y-132459630D01*
X99120434Y-132306116D01*
X98380076Y-133046475D01*
X98356493Y-132966156D01*
X98278761Y-132845202D01*
X98170100Y-132751048D01*
X98039315Y-132691320D01*
X98029534Y-132689913D01*
X98767057Y-131952390D01*
X98767056Y-131952389D01*
X98720229Y-131915943D01*
X98501614Y-131797635D01*
X98501603Y-131797630D01*
X98266493Y-131716916D01*
X98021293Y-131676000D01*
X97772707Y-131676000D01*
X97527506Y-131716916D01*
X97292396Y-131797630D01*
X97292390Y-131797632D01*
X97073761Y-131915949D01*
X97026942Y-131952388D01*
X97026942Y-131952390D01*
X97764466Y-132689913D01*
X97754685Y-132691320D01*
X97623900Y-132751048D01*
X97515239Y-132845202D01*
X97437507Y-132966156D01*
X97413923Y-133046475D01*
X96673564Y-132306116D01*
X96573267Y-132459632D01*
X96473412Y-132687282D01*
X96412387Y-132928261D01*
X96412385Y-132928270D01*
X96391859Y-133175994D01*
X96391859Y-133176005D01*
X84897500Y-133176005D01*
X84897499Y-132128128D01*
X84891091Y-132068517D01*
X84883415Y-132047937D01*
X84840797Y-131933671D01*
X84840793Y-131933664D01*
X84754547Y-131818455D01*
X84754544Y-131818452D01*
X84639335Y-131732206D01*
X84639328Y-131732202D01*
X84504482Y-131681908D01*
X84504483Y-131681908D01*
X84444883Y-131675501D01*
X84444881Y-131675500D01*
X84444873Y-131675500D01*
X84444864Y-131675500D01*
X82349129Y-131675500D01*
X82349123Y-131675501D01*
X82289516Y-131681908D01*
X82154671Y-131732202D01*
X82154664Y-131732206D01*
X82039455Y-131818452D01*
X82039452Y-131818455D01*
X81953206Y-131933664D01*
X81953202Y-131933671D01*
X81902908Y-132068517D01*
X81896501Y-132128116D01*
X81896501Y-132128123D01*
X81896500Y-132128135D01*
X81896500Y-134223870D01*
X81896501Y-134223876D01*
X81902908Y-134283483D01*
X81953202Y-134418328D01*
X81953206Y-134418335D01*
X82039452Y-134533544D01*
X82039455Y-134533547D01*
X82155986Y-134620783D01*
X82197857Y-134676717D01*
X82202841Y-134746408D01*
X82185484Y-134787870D01*
X82073267Y-134959631D01*
X81973412Y-135187282D01*
X81912387Y-135428261D01*
X81912385Y-135428270D01*
X81891859Y-135675994D01*
X81891859Y-135676005D01*
X81912385Y-135923729D01*
X81912387Y-135923738D01*
X81973412Y-136164717D01*
X82073266Y-136392364D01*
X82173564Y-136545882D01*
X82913922Y-135805523D01*
X82937507Y-135885844D01*
X83015239Y-136006798D01*
X83123900Y-136100952D01*
X83254685Y-136160680D01*
X83264466Y-136162086D01*
X82521100Y-136905450D01*
X82510482Y-136952148D01*
X82478376Y-136989556D01*
X82377255Y-137068262D01*
X82208833Y-137251217D01*
X82072826Y-137459393D01*
X81972936Y-137687118D01*
X81911892Y-137928175D01*
X81911890Y-137928187D01*
X81891357Y-138175994D01*
X81891357Y-138176005D01*
X80772500Y-138176005D01*
X80772500Y-131123870D01*
X88796500Y-131123870D01*
X88796501Y-131123876D01*
X88802908Y-131183483D01*
X88853202Y-131318328D01*
X88853206Y-131318335D01*
X88939452Y-131433544D01*
X88939455Y-131433547D01*
X89054664Y-131519793D01*
X89054671Y-131519797D01*
X89189517Y-131570091D01*
X89189516Y-131570091D01*
X89196444Y-131570835D01*
X89249127Y-131576500D01*
X92544872Y-131576499D01*
X92604483Y-131570091D01*
X92739331Y-131519796D01*
X92854546Y-131433546D01*
X92940796Y-131318331D01*
X92991091Y-131183483D01*
X92995551Y-131142004D01*
X111257093Y-131142004D01*
X111276692Y-131403545D01*
X111276693Y-131403550D01*
X111335058Y-131659270D01*
X111430883Y-131903426D01*
X111430882Y-131903426D01*
X111562030Y-132130577D01*
X111609873Y-132190571D01*
X111609874Y-132190571D01*
X112334803Y-131465641D01*
X112358059Y-131519553D01*
X112462756Y-131660185D01*
X112597062Y-131772882D01*
X112688665Y-131818886D01*
X111962831Y-132544720D01*
X112134546Y-132661793D01*
X112134550Y-132661795D01*
X112370854Y-132775594D01*
X112370858Y-132775595D01*
X112621494Y-132852907D01*
X112621500Y-132852909D01*
X112880848Y-132891999D01*
X112880857Y-132892000D01*
X113143143Y-132892000D01*
X113143151Y-132891999D01*
X113402499Y-132852909D01*
X113402505Y-132852907D01*
X113653143Y-132775595D01*
X113889445Y-132661798D01*
X113889456Y-132661791D01*
X114061167Y-132544720D01*
X113337946Y-131821498D01*
X113350891Y-131816787D01*
X113497373Y-131720445D01*
X113617688Y-131592918D01*
X113690447Y-131466894D01*
X114414124Y-132190571D01*
X114461974Y-132130570D01*
X114593116Y-131903426D01*
X114688941Y-131659270D01*
X114747306Y-131403550D01*
X114747307Y-131403545D01*
X114766907Y-131142004D01*
X130307093Y-131142004D01*
X130326692Y-131403545D01*
X130326693Y-131403550D01*
X130385058Y-131659270D01*
X130480883Y-131903426D01*
X130480882Y-131903426D01*
X130612030Y-132130577D01*
X130659873Y-132190571D01*
X130659874Y-132190571D01*
X131384803Y-131465641D01*
X131408059Y-131519553D01*
X131512756Y-131660185D01*
X131647062Y-131772882D01*
X131738665Y-131818886D01*
X131012831Y-132544720D01*
X131184546Y-132661793D01*
X131184550Y-132661795D01*
X131420854Y-132775594D01*
X131420858Y-132775595D01*
X131671494Y-132852907D01*
X131671500Y-132852909D01*
X131930848Y-132891999D01*
X131930857Y-132892000D01*
X132193143Y-132892000D01*
X132193151Y-132891999D01*
X132452499Y-132852909D01*
X132452505Y-132852907D01*
X132703143Y-132775595D01*
X132939445Y-132661798D01*
X132939456Y-132661791D01*
X133111167Y-132544720D01*
X132387946Y-131821498D01*
X132400891Y-131816787D01*
X132547373Y-131720445D01*
X132667688Y-131592918D01*
X132740447Y-131466894D01*
X133464124Y-132190571D01*
X133511974Y-132130570D01*
X133643116Y-131903426D01*
X133738941Y-131659270D01*
X133797306Y-131403550D01*
X133797307Y-131403545D01*
X133816907Y-131142004D01*
X149357093Y-131142004D01*
X149376692Y-131403545D01*
X149376693Y-131403550D01*
X149435058Y-131659270D01*
X149530883Y-131903426D01*
X149530882Y-131903426D01*
X149662030Y-132130577D01*
X149709873Y-132190571D01*
X149709874Y-132190571D01*
X150434803Y-131465641D01*
X150458059Y-131519553D01*
X150562756Y-131660185D01*
X150697062Y-131772882D01*
X150788665Y-131818886D01*
X150062831Y-132544720D01*
X150234546Y-132661793D01*
X150234550Y-132661795D01*
X150470854Y-132775594D01*
X150470858Y-132775595D01*
X150721494Y-132852907D01*
X150721500Y-132852909D01*
X150980848Y-132891999D01*
X150980857Y-132892000D01*
X151243143Y-132892000D01*
X151243151Y-132891999D01*
X151502499Y-132852909D01*
X151502505Y-132852907D01*
X151753143Y-132775595D01*
X151989445Y-132661798D01*
X151989456Y-132661791D01*
X152161167Y-132544720D01*
X151437946Y-131821498D01*
X151450891Y-131816787D01*
X151597373Y-131720445D01*
X151717688Y-131592918D01*
X151790447Y-131466894D01*
X152514124Y-132190571D01*
X152561974Y-132130570D01*
X152693116Y-131903426D01*
X152742734Y-131777002D01*
X175074677Y-131777002D01*
X175093929Y-131997062D01*
X175093930Y-131997070D01*
X175151104Y-132210445D01*
X175151105Y-132210447D01*
X175151106Y-132210450D01*
X175195716Y-132306116D01*
X175244466Y-132410662D01*
X175244468Y-132410666D01*
X175371170Y-132591615D01*
X175371175Y-132591621D01*
X175527378Y-132747824D01*
X175527384Y-132747829D01*
X175708333Y-132874531D01*
X175708335Y-132874532D01*
X175708338Y-132874534D01*
X175908550Y-132967894D01*
X176121932Y-133025070D01*
X176279123Y-133038822D01*
X176341998Y-133044323D01*
X176342000Y-133044323D01*
X176342002Y-133044323D01*
X176397017Y-133039509D01*
X176562068Y-133025070D01*
X176775450Y-132967894D01*
X176975662Y-132874534D01*
X177156620Y-132747826D01*
X177312826Y-132591620D01*
X177439534Y-132410662D01*
X177532894Y-132210450D01*
X177590070Y-131997068D01*
X177609323Y-131777000D01*
X177604066Y-131716916D01*
X177591782Y-131576500D01*
X177590070Y-131556932D01*
X177532894Y-131343550D01*
X177439534Y-131143339D01*
X177312826Y-130962380D01*
X177156620Y-130806174D01*
X177156616Y-130806171D01*
X177156615Y-130806170D01*
X176975666Y-130679468D01*
X176975658Y-130679464D01*
X176846219Y-130619106D01*
X176793779Y-130572934D01*
X176774627Y-130505741D01*
X176794843Y-130438859D01*
X176846219Y-130394342D01*
X176975408Y-130334100D01*
X176975420Y-130334093D01*
X177040186Y-130288742D01*
X177040187Y-130288740D01*
X176369448Y-129618000D01*
X176373569Y-129618000D01*
X176467421Y-129602339D01*
X176579251Y-129541820D01*
X176665371Y-129448269D01*
X176716448Y-129331823D01*
X176722105Y-129263552D01*
X177393740Y-129935187D01*
X177393742Y-129935186D01*
X177439093Y-129870420D01*
X177439100Y-129870408D01*
X177532419Y-129670284D01*
X177532424Y-129670270D01*
X177589573Y-129456986D01*
X177589575Y-129456976D01*
X177608821Y-129237000D01*
X177608821Y-129236999D01*
X177589575Y-129017023D01*
X177589573Y-129017013D01*
X177532424Y-128803729D01*
X177532420Y-128803720D01*
X177439098Y-128603590D01*
X177393740Y-128538811D01*
X176726903Y-129205648D01*
X176726949Y-129205102D01*
X176695734Y-129081838D01*
X176626187Y-128975388D01*
X176525843Y-128897287D01*
X176405578Y-128856000D01*
X176369447Y-128856000D01*
X177040187Y-128185258D01*
X176975409Y-128139900D01*
X176975407Y-128139899D01*
X176846219Y-128079658D01*
X176793779Y-128033486D01*
X176774627Y-127966293D01*
X176794843Y-127899411D01*
X176846219Y-127854894D01*
X176975662Y-127794534D01*
X177156620Y-127667826D01*
X177312826Y-127511620D01*
X177439534Y-127330662D01*
X177532894Y-127130450D01*
X177590070Y-126917068D01*
X177609323Y-126697000D01*
X177590070Y-126476932D01*
X177532894Y-126263550D01*
X177439534Y-126063339D01*
X177312826Y-125882380D01*
X177156620Y-125726174D01*
X177156616Y-125726171D01*
X177156615Y-125726170D01*
X176975666Y-125599468D01*
X176975662Y-125599466D01*
X176975660Y-125599465D01*
X176775450Y-125506106D01*
X176775447Y-125506105D01*
X176775445Y-125506104D01*
X176562070Y-125448930D01*
X176562062Y-125448929D01*
X176342002Y-125429677D01*
X176341998Y-125429677D01*
X176121937Y-125448929D01*
X176121929Y-125448930D01*
X175908554Y-125506104D01*
X175908548Y-125506107D01*
X175708340Y-125599465D01*
X175708338Y-125599466D01*
X175527377Y-125726175D01*
X175371175Y-125882377D01*
X175244466Y-126063338D01*
X175244465Y-126063340D01*
X175151107Y-126263548D01*
X175151104Y-126263554D01*
X175093930Y-126476929D01*
X175093929Y-126476937D01*
X175074677Y-126696997D01*
X175074677Y-126697002D01*
X175093929Y-126917062D01*
X175093930Y-126917070D01*
X175151104Y-127130445D01*
X175151105Y-127130447D01*
X175151106Y-127130450D01*
X175244466Y-127330662D01*
X175244468Y-127330666D01*
X175371170Y-127511615D01*
X175371175Y-127511621D01*
X175527378Y-127667824D01*
X175527384Y-127667829D01*
X175708333Y-127794531D01*
X175708335Y-127794532D01*
X175708338Y-127794534D01*
X175837781Y-127854894D01*
X175890220Y-127901066D01*
X175909372Y-127968260D01*
X175889156Y-128035141D01*
X175837781Y-128079658D01*
X175708586Y-128139903D01*
X175643812Y-128185257D01*
X175643811Y-128185258D01*
X176314554Y-128856000D01*
X176310431Y-128856000D01*
X176216579Y-128871661D01*
X176104749Y-128932180D01*
X176018629Y-129025731D01*
X175967552Y-129142177D01*
X175961894Y-129210447D01*
X175290258Y-128538811D01*
X175290257Y-128538812D01*
X175244903Y-128603586D01*
X175151579Y-128803720D01*
X175151575Y-128803729D01*
X175094426Y-129017013D01*
X175094424Y-129017023D01*
X175075179Y-129236999D01*
X175075179Y-129237000D01*
X175094424Y-129456976D01*
X175094426Y-129456986D01*
X175151575Y-129670270D01*
X175151580Y-129670284D01*
X175244899Y-129870407D01*
X175244900Y-129870409D01*
X175290258Y-129935187D01*
X175957096Y-129268349D01*
X175957051Y-129268898D01*
X175988266Y-129392162D01*
X176057813Y-129498612D01*
X176158157Y-129576713D01*
X176278422Y-129618000D01*
X176314553Y-129618000D01*
X175643811Y-130288741D01*
X175708582Y-130334094D01*
X175708588Y-130334098D01*
X175837781Y-130394342D01*
X175890220Y-130440514D01*
X175909372Y-130507708D01*
X175889156Y-130574589D01*
X175837781Y-130619106D01*
X175708340Y-130679465D01*
X175708338Y-130679466D01*
X175527377Y-130806175D01*
X175371175Y-130962377D01*
X175244466Y-131143338D01*
X175244465Y-131143340D01*
X175151107Y-131343548D01*
X175151104Y-131343554D01*
X175093930Y-131556929D01*
X175093929Y-131556937D01*
X175074677Y-131776997D01*
X175074677Y-131777002D01*
X152742734Y-131777002D01*
X152788941Y-131659270D01*
X152847306Y-131403550D01*
X152847307Y-131403545D01*
X152866907Y-131142004D01*
X152866907Y-131141995D01*
X152847307Y-130880454D01*
X152847306Y-130880449D01*
X152788941Y-130624729D01*
X152693116Y-130380573D01*
X152693117Y-130380573D01*
X152561971Y-130153426D01*
X152514125Y-130093427D01*
X151789195Y-130818357D01*
X151765941Y-130764447D01*
X151661244Y-130623815D01*
X151526938Y-130511118D01*
X151435333Y-130465112D01*
X152161167Y-129739278D01*
X151989447Y-129622202D01*
X151989445Y-129622201D01*
X151753142Y-129508404D01*
X151753144Y-129508404D01*
X151502505Y-129431092D01*
X151502499Y-129431090D01*
X151243151Y-129392000D01*
X150980848Y-129392000D01*
X150721500Y-129431090D01*
X150721494Y-129431092D01*
X150470858Y-129508404D01*
X150470854Y-129508405D01*
X150234550Y-129622204D01*
X150234546Y-129622206D01*
X150062832Y-129739278D01*
X150786055Y-130462501D01*
X150773109Y-130467213D01*
X150626627Y-130563555D01*
X150506312Y-130691082D01*
X150433552Y-130817106D01*
X149709873Y-130093427D01*
X149662029Y-130153423D01*
X149530883Y-130380573D01*
X149435058Y-130624729D01*
X149376693Y-130880449D01*
X149376692Y-130880454D01*
X149357093Y-131141995D01*
X149357093Y-131142004D01*
X133816907Y-131142004D01*
X133816907Y-131141995D01*
X133797307Y-130880454D01*
X133797306Y-130880449D01*
X133738941Y-130624729D01*
X133643116Y-130380573D01*
X133643117Y-130380573D01*
X133511971Y-130153426D01*
X133464125Y-130093427D01*
X132739195Y-130818357D01*
X132715941Y-130764447D01*
X132611244Y-130623815D01*
X132476938Y-130511118D01*
X132385333Y-130465112D01*
X133111167Y-129739278D01*
X132939447Y-129622202D01*
X132939445Y-129622201D01*
X132703142Y-129508404D01*
X132703144Y-129508404D01*
X132452505Y-129431092D01*
X132452499Y-129431090D01*
X132193151Y-129392000D01*
X131930848Y-129392000D01*
X131671500Y-129431090D01*
X131671494Y-129431092D01*
X131420858Y-129508404D01*
X131420854Y-129508405D01*
X131184550Y-129622204D01*
X131184546Y-129622206D01*
X131012832Y-129739278D01*
X131736055Y-130462501D01*
X131723109Y-130467213D01*
X131576627Y-130563555D01*
X131456312Y-130691082D01*
X131383552Y-130817105D01*
X130659873Y-130093427D01*
X130612029Y-130153423D01*
X130480883Y-130380573D01*
X130385058Y-130624729D01*
X130326693Y-130880449D01*
X130326692Y-130880454D01*
X130307093Y-131141995D01*
X130307093Y-131142004D01*
X114766907Y-131142004D01*
X114766907Y-131141995D01*
X114747307Y-130880454D01*
X114747306Y-130880449D01*
X114688941Y-130624729D01*
X114593116Y-130380573D01*
X114593117Y-130380573D01*
X114461971Y-130153426D01*
X114414125Y-130093427D01*
X113689195Y-130818357D01*
X113665941Y-130764447D01*
X113561244Y-130623815D01*
X113426938Y-130511118D01*
X113335333Y-130465112D01*
X114061167Y-129739278D01*
X113889447Y-129622202D01*
X113889445Y-129622201D01*
X113653142Y-129508404D01*
X113653144Y-129508404D01*
X113402505Y-129431092D01*
X113402499Y-129431090D01*
X113143151Y-129392000D01*
X112880848Y-129392000D01*
X112621500Y-129431090D01*
X112621494Y-129431092D01*
X112370858Y-129508404D01*
X112370854Y-129508405D01*
X112134550Y-129622204D01*
X112134546Y-129622206D01*
X111962832Y-129739278D01*
X112686055Y-130462501D01*
X112673109Y-130467213D01*
X112526627Y-130563555D01*
X112406312Y-130691082D01*
X112333552Y-130817106D01*
X111609873Y-130093427D01*
X111562029Y-130153423D01*
X111430883Y-130380573D01*
X111335058Y-130624729D01*
X111276693Y-130880449D01*
X111276692Y-130880454D01*
X111257093Y-131141995D01*
X111257093Y-131142004D01*
X92995551Y-131142004D01*
X92997500Y-131123873D01*
X92997499Y-129028128D01*
X92991091Y-128968517D01*
X92977538Y-128932180D01*
X92940797Y-128833671D01*
X92940793Y-128833664D01*
X92854547Y-128718455D01*
X92854544Y-128718452D01*
X92739335Y-128632206D01*
X92739328Y-128632202D01*
X92604482Y-128581908D01*
X92604483Y-128581908D01*
X92544883Y-128575501D01*
X92544881Y-128575500D01*
X92544873Y-128575500D01*
X92544864Y-128575500D01*
X89249129Y-128575500D01*
X89249123Y-128575501D01*
X89189516Y-128581908D01*
X89054671Y-128632202D01*
X89054664Y-128632206D01*
X88939455Y-128718452D01*
X88939452Y-128718455D01*
X88853206Y-128833664D01*
X88853202Y-128833671D01*
X88802908Y-128968517D01*
X88796501Y-129028116D01*
X88796501Y-129028123D01*
X88796500Y-129028135D01*
X88796500Y-131123870D01*
X80772500Y-131123870D01*
X80772500Y-117118202D01*
X104262660Y-117118202D01*
X104272887Y-117332901D01*
X104298519Y-117438557D01*
X104323563Y-117541790D01*
X104412854Y-117737310D01*
X104537534Y-117912399D01*
X104537535Y-117912400D01*
X104537540Y-117912406D01*
X104693094Y-118060725D01*
X104693096Y-118060726D01*
X104693097Y-118060727D01*
X104873920Y-118176935D01*
X105073468Y-118256822D01*
X105178998Y-118277161D01*
X105284527Y-118297500D01*
X105284528Y-118297500D01*
X105445612Y-118297500D01*
X105445618Y-118297500D01*
X105605971Y-118282188D01*
X105812209Y-118221631D01*
X106003259Y-118123138D01*
X106172217Y-117990268D01*
X106312976Y-117827824D01*
X106420448Y-117641677D01*
X106490750Y-117438554D01*
X106518237Y-117247373D01*
X108217723Y-117247373D01*
X108247881Y-117547160D01*
X108247882Y-117547162D01*
X108317728Y-117840252D01*
X108317733Y-117840266D01*
X108426020Y-118121427D01*
X108426024Y-118121436D01*
X108570825Y-118385665D01*
X108570829Y-118385671D01*
X108749551Y-118628234D01*
X108749554Y-118628238D01*
X108749561Y-118628245D01*
X108959019Y-118844823D01*
X109195478Y-119031553D01*
X109195480Y-119031554D01*
X109195485Y-119031558D01*
X109454730Y-119185109D01*
X109732128Y-119302736D01*
X110022729Y-119382340D01*
X110321347Y-119422500D01*
X110321351Y-119422500D01*
X110547252Y-119422500D01*
X110711164Y-119411526D01*
X110772634Y-119407412D01*
X111067903Y-119347396D01*
X111352537Y-119248560D01*
X111621459Y-119112668D01*
X111869869Y-118942144D01*
X112093333Y-118740032D01*
X112287865Y-118509939D01*
X112449993Y-118255970D01*
X112576823Y-117982658D01*
X112666093Y-117694879D01*
X112716209Y-117397770D01*
X112725556Y-117118202D01*
X114422660Y-117118202D01*
X114432887Y-117332901D01*
X114458519Y-117438557D01*
X114483563Y-117541790D01*
X114572854Y-117737310D01*
X114697534Y-117912399D01*
X114697535Y-117912400D01*
X114697540Y-117912406D01*
X114853094Y-118060725D01*
X114853096Y-118060726D01*
X114853097Y-118060727D01*
X115033920Y-118176935D01*
X115233468Y-118256822D01*
X115338998Y-118277161D01*
X115444527Y-118297500D01*
X115444528Y-118297500D01*
X115605612Y-118297500D01*
X115605618Y-118297500D01*
X115765971Y-118282188D01*
X115972209Y-118221631D01*
X116163259Y-118123138D01*
X116332217Y-117990268D01*
X116472976Y-117827824D01*
X116580448Y-117641677D01*
X116650750Y-117438554D01*
X116681339Y-117225797D01*
X116676214Y-117118202D01*
X123312660Y-117118202D01*
X123322887Y-117332901D01*
X123348519Y-117438557D01*
X123373563Y-117541790D01*
X123462854Y-117737310D01*
X123587534Y-117912399D01*
X123587535Y-117912400D01*
X123587540Y-117912406D01*
X123743094Y-118060725D01*
X123743096Y-118060726D01*
X123743097Y-118060727D01*
X123923920Y-118176935D01*
X124123468Y-118256822D01*
X124228998Y-118277161D01*
X124334527Y-118297500D01*
X124334528Y-118297500D01*
X124495612Y-118297500D01*
X124495618Y-118297500D01*
X124655971Y-118282188D01*
X124862209Y-118221631D01*
X125053259Y-118123138D01*
X125222217Y-117990268D01*
X125362976Y-117827824D01*
X125470448Y-117641677D01*
X125540750Y-117438554D01*
X125568237Y-117247373D01*
X127267723Y-117247373D01*
X127297881Y-117547160D01*
X127297882Y-117547162D01*
X127367728Y-117840252D01*
X127367733Y-117840266D01*
X127476020Y-118121427D01*
X127476024Y-118121436D01*
X127620825Y-118385665D01*
X127620829Y-118385671D01*
X127799551Y-118628234D01*
X127799554Y-118628238D01*
X127799561Y-118628245D01*
X128009019Y-118844823D01*
X128245478Y-119031553D01*
X128245480Y-119031554D01*
X128245485Y-119031558D01*
X128504730Y-119185109D01*
X128782128Y-119302736D01*
X129072729Y-119382340D01*
X129371347Y-119422500D01*
X129371351Y-119422500D01*
X129597252Y-119422500D01*
X129761164Y-119411526D01*
X129822634Y-119407412D01*
X130117903Y-119347396D01*
X130402537Y-119248560D01*
X130671459Y-119112668D01*
X130919869Y-118942144D01*
X131143333Y-118740032D01*
X131337865Y-118509939D01*
X131499993Y-118255970D01*
X131626823Y-117982658D01*
X131716093Y-117694879D01*
X131766209Y-117397770D01*
X131775556Y-117118202D01*
X133472660Y-117118202D01*
X133482887Y-117332901D01*
X133508519Y-117438557D01*
X133533563Y-117541790D01*
X133622854Y-117737310D01*
X133747534Y-117912399D01*
X133747535Y-117912400D01*
X133747540Y-117912406D01*
X133903094Y-118060725D01*
X133903096Y-118060726D01*
X133903097Y-118060727D01*
X134083920Y-118176935D01*
X134283468Y-118256822D01*
X134388998Y-118277161D01*
X134494527Y-118297500D01*
X134494528Y-118297500D01*
X134655612Y-118297500D01*
X134655618Y-118297500D01*
X134815971Y-118282188D01*
X135022209Y-118221631D01*
X135213259Y-118123138D01*
X135382217Y-117990268D01*
X135522976Y-117827824D01*
X135630448Y-117641677D01*
X135700750Y-117438554D01*
X135731339Y-117225797D01*
X135726214Y-117118202D01*
X142362660Y-117118202D01*
X142372887Y-117332901D01*
X142398519Y-117438557D01*
X142423563Y-117541790D01*
X142512854Y-117737310D01*
X142637534Y-117912399D01*
X142637535Y-117912400D01*
X142637540Y-117912406D01*
X142793094Y-118060725D01*
X142793096Y-118060726D01*
X142793097Y-118060727D01*
X142973920Y-118176935D01*
X143173468Y-118256822D01*
X143278998Y-118277161D01*
X143384527Y-118297500D01*
X143384528Y-118297500D01*
X143545612Y-118297500D01*
X143545618Y-118297500D01*
X143705971Y-118282188D01*
X143912209Y-118221631D01*
X144103259Y-118123138D01*
X144272217Y-117990268D01*
X144412976Y-117827824D01*
X144520448Y-117641677D01*
X144590750Y-117438554D01*
X144618237Y-117247373D01*
X146317723Y-117247373D01*
X146347881Y-117547160D01*
X146347882Y-117547162D01*
X146417728Y-117840252D01*
X146417733Y-117840266D01*
X146526020Y-118121427D01*
X146526024Y-118121436D01*
X146670825Y-118385665D01*
X146670829Y-118385671D01*
X146849551Y-118628234D01*
X146849554Y-118628238D01*
X146849561Y-118628245D01*
X147059019Y-118844823D01*
X147295478Y-119031553D01*
X147295480Y-119031554D01*
X147295485Y-119031558D01*
X147554730Y-119185109D01*
X147832128Y-119302736D01*
X148122729Y-119382340D01*
X148421347Y-119422500D01*
X148421351Y-119422500D01*
X148647252Y-119422500D01*
X148811164Y-119411526D01*
X148872634Y-119407412D01*
X149167903Y-119347396D01*
X149452537Y-119248560D01*
X149721459Y-119112668D01*
X149969869Y-118942144D01*
X150193333Y-118740032D01*
X150387865Y-118509939D01*
X150549993Y-118255970D01*
X150676823Y-117982658D01*
X150766093Y-117694879D01*
X150816209Y-117397770D01*
X150825556Y-117118202D01*
X152522660Y-117118202D01*
X152532887Y-117332901D01*
X152558519Y-117438557D01*
X152583563Y-117541790D01*
X152672854Y-117737310D01*
X152797534Y-117912399D01*
X152797535Y-117912400D01*
X152797540Y-117912406D01*
X152953094Y-118060725D01*
X152953096Y-118060726D01*
X152953097Y-118060727D01*
X153133920Y-118176935D01*
X153333468Y-118256822D01*
X153438998Y-118277161D01*
X153544527Y-118297500D01*
X153544528Y-118297500D01*
X153705612Y-118297500D01*
X153705618Y-118297500D01*
X153865971Y-118282188D01*
X154072209Y-118221631D01*
X154263259Y-118123138D01*
X154432217Y-117990268D01*
X154572976Y-117827824D01*
X154680448Y-117641677D01*
X154750750Y-117438554D01*
X154781339Y-117225797D01*
X154771112Y-117011096D01*
X154720437Y-116802210D01*
X154631146Y-116606690D01*
X154506466Y-116431601D01*
X154506464Y-116431599D01*
X154506459Y-116431593D01*
X154350905Y-116283274D01*
X154170080Y-116167065D01*
X153970530Y-116087177D01*
X153759473Y-116046500D01*
X153759472Y-116046500D01*
X153598382Y-116046500D01*
X153438050Y-116061810D01*
X153438029Y-116061812D01*
X153438025Y-116061813D01*
X153231793Y-116122368D01*
X153040736Y-116220864D01*
X152871785Y-116353729D01*
X152871782Y-116353733D01*
X152731021Y-116516178D01*
X152623553Y-116702319D01*
X152553251Y-116905442D01*
X152553250Y-116905444D01*
X152522661Y-117118200D01*
X152522660Y-117118202D01*
X150825556Y-117118202D01*
X150826277Y-117096631D01*
X150796118Y-116796838D01*
X150726269Y-116503739D01*
X150617977Y-116222566D01*
X150473175Y-115958335D01*
X150294446Y-115715762D01*
X150084980Y-115499176D01*
X149961742Y-115401856D01*
X149848521Y-115312446D01*
X149848517Y-115312443D01*
X149848515Y-115312442D01*
X149589270Y-115158891D01*
X149311872Y-115041264D01*
X149311863Y-115041261D01*
X149021272Y-114961660D01*
X148946616Y-114951620D01*
X148722653Y-114921500D01*
X148496756Y-114921500D01*
X148496748Y-114921500D01*
X148271368Y-114936587D01*
X148271359Y-114936589D01*
X147976094Y-114996604D01*
X147691464Y-115095439D01*
X147691459Y-115095441D01*
X147422546Y-115231328D01*
X147174125Y-115401860D01*
X146950665Y-115603969D01*
X146756132Y-115834064D01*
X146594006Y-116088030D01*
X146594005Y-116088032D01*
X146503404Y-116283274D01*
X146467177Y-116361342D01*
X146460614Y-116382499D01*
X146377907Y-116649118D01*
X146368933Y-116702323D01*
X146327791Y-116946230D01*
X146322042Y-117118202D01*
X146317723Y-117247373D01*
X144618237Y-117247373D01*
X144621339Y-117225797D01*
X144611112Y-117011096D01*
X144560437Y-116802210D01*
X144471146Y-116606690D01*
X144442664Y-116566692D01*
X144419811Y-116500665D01*
X144436284Y-116432765D01*
X144486851Y-116384549D01*
X144555458Y-116371326D01*
X144562140Y-116372148D01*
X144630818Y-116382500D01*
X144893182Y-116382500D01*
X145152615Y-116343396D01*
X145403323Y-116266063D01*
X145639704Y-116152228D01*
X145856479Y-116004433D01*
X146048805Y-115825981D01*
X146212386Y-115620857D01*
X146343568Y-115393643D01*
X146439420Y-115149416D01*
X146497802Y-114893630D01*
X146517408Y-114632000D01*
X146497802Y-114370370D01*
X146439420Y-114114584D01*
X146343568Y-113870357D01*
X146212386Y-113643143D01*
X146048805Y-113438019D01*
X146048804Y-113438018D01*
X146048801Y-113438014D01*
X145856479Y-113259567D01*
X145639704Y-113111772D01*
X145639700Y-113111770D01*
X145639697Y-113111768D01*
X145639696Y-113111767D01*
X145403325Y-112997938D01*
X145403327Y-112997938D01*
X145152623Y-112920606D01*
X145152619Y-112920605D01*
X145152615Y-112920604D01*
X145027823Y-112901794D01*
X144893187Y-112881500D01*
X144893182Y-112881500D01*
X144630818Y-112881500D01*
X144630812Y-112881500D01*
X144469247Y-112905853D01*
X144371385Y-112920604D01*
X144371382Y-112920605D01*
X144371376Y-112920606D01*
X144120673Y-112997938D01*
X143884303Y-113111767D01*
X143884302Y-113111768D01*
X143884296Y-113111771D01*
X143884296Y-113111772D01*
X143872416Y-113119872D01*
X143667520Y-113259567D01*
X143475198Y-113438014D01*
X143311614Y-113643143D01*
X143180432Y-113870356D01*
X143084582Y-114114578D01*
X143084576Y-114114597D01*
X143026197Y-114370374D01*
X143026196Y-114370379D01*
X143006592Y-114631995D01*
X143006592Y-114632004D01*
X143026196Y-114893620D01*
X143026197Y-114893625D01*
X143084576Y-115149402D01*
X143084578Y-115149411D01*
X143084580Y-115149416D01*
X143180432Y-115393643D01*
X143311614Y-115620857D01*
X143475195Y-115825981D01*
X143475197Y-115825983D01*
X143475198Y-115825984D01*
X143484569Y-115834679D01*
X143520324Y-115894707D01*
X143517950Y-115964536D01*
X143478200Y-116021997D01*
X143413695Y-116048846D01*
X143412016Y-116049017D01*
X143278039Y-116061810D01*
X143278030Y-116061811D01*
X143278029Y-116061812D01*
X143278027Y-116061812D01*
X143278025Y-116061813D01*
X143071793Y-116122368D01*
X142880736Y-116220864D01*
X142711785Y-116353729D01*
X142711782Y-116353733D01*
X142571021Y-116516178D01*
X142463553Y-116702319D01*
X142393251Y-116905442D01*
X142393250Y-116905444D01*
X142362661Y-117118200D01*
X142362660Y-117118202D01*
X135726214Y-117118202D01*
X135721112Y-117011096D01*
X135670437Y-116802210D01*
X135581146Y-116606690D01*
X135456466Y-116431601D01*
X135456464Y-116431599D01*
X135456459Y-116431593D01*
X135300905Y-116283274D01*
X135120080Y-116167065D01*
X134920530Y-116087177D01*
X134709473Y-116046500D01*
X134709472Y-116046500D01*
X134548382Y-116046500D01*
X134388050Y-116061810D01*
X134388029Y-116061812D01*
X134388025Y-116061813D01*
X134181793Y-116122368D01*
X133990736Y-116220864D01*
X133821785Y-116353729D01*
X133821782Y-116353733D01*
X133681021Y-116516178D01*
X133573553Y-116702319D01*
X133503251Y-116905442D01*
X133503250Y-116905444D01*
X133472661Y-117118200D01*
X133472660Y-117118202D01*
X131775556Y-117118202D01*
X131776277Y-117096631D01*
X131746118Y-116796838D01*
X131676269Y-116503739D01*
X131567977Y-116222566D01*
X131423175Y-115958335D01*
X131244446Y-115715762D01*
X131034980Y-115499176D01*
X130911742Y-115401856D01*
X130798521Y-115312446D01*
X130798517Y-115312443D01*
X130798515Y-115312442D01*
X130539270Y-115158891D01*
X130261872Y-115041264D01*
X130261863Y-115041261D01*
X129971272Y-114961660D01*
X129896616Y-114951620D01*
X129672653Y-114921500D01*
X129446756Y-114921500D01*
X129446748Y-114921500D01*
X129221368Y-114936587D01*
X129221359Y-114936589D01*
X128926094Y-114996604D01*
X128641464Y-115095439D01*
X128641459Y-115095441D01*
X128372546Y-115231328D01*
X128124125Y-115401860D01*
X127900665Y-115603969D01*
X127706132Y-115834064D01*
X127544006Y-116088030D01*
X127544005Y-116088032D01*
X127453404Y-116283274D01*
X127417177Y-116361342D01*
X127410614Y-116382499D01*
X127327907Y-116649118D01*
X127318933Y-116702323D01*
X127277791Y-116946230D01*
X127272042Y-117118202D01*
X127267723Y-117247373D01*
X125568237Y-117247373D01*
X125571339Y-117225797D01*
X125561112Y-117011096D01*
X125510437Y-116802210D01*
X125421146Y-116606690D01*
X125392664Y-116566692D01*
X125369811Y-116500665D01*
X125386284Y-116432765D01*
X125436851Y-116384549D01*
X125505458Y-116371326D01*
X125512140Y-116372148D01*
X125580818Y-116382500D01*
X125843182Y-116382500D01*
X126102615Y-116343396D01*
X126353323Y-116266063D01*
X126589704Y-116152228D01*
X126806479Y-116004433D01*
X126998805Y-115825981D01*
X127162386Y-115620857D01*
X127293568Y-115393643D01*
X127389420Y-115149416D01*
X127447802Y-114893630D01*
X127467408Y-114632000D01*
X127447802Y-114370370D01*
X127389420Y-114114584D01*
X127293568Y-113870357D01*
X127162386Y-113643143D01*
X126998805Y-113438019D01*
X126998804Y-113438018D01*
X126998801Y-113438014D01*
X126806479Y-113259567D01*
X126589704Y-113111772D01*
X126589700Y-113111770D01*
X126589697Y-113111768D01*
X126589696Y-113111767D01*
X126353325Y-112997938D01*
X126353327Y-112997938D01*
X126102623Y-112920606D01*
X126102619Y-112920605D01*
X126102615Y-112920604D01*
X125977823Y-112901794D01*
X125843187Y-112881500D01*
X125843182Y-112881500D01*
X125580818Y-112881500D01*
X125580812Y-112881500D01*
X125419247Y-112905853D01*
X125321385Y-112920604D01*
X125321382Y-112920605D01*
X125321376Y-112920606D01*
X125070673Y-112997938D01*
X124834303Y-113111767D01*
X124834302Y-113111768D01*
X124834296Y-113111771D01*
X124834296Y-113111772D01*
X124822416Y-113119872D01*
X124617520Y-113259567D01*
X124425198Y-113438014D01*
X124261614Y-113643143D01*
X124130432Y-113870356D01*
X124034582Y-114114578D01*
X124034576Y-114114597D01*
X123976197Y-114370374D01*
X123976196Y-114370379D01*
X123956592Y-114631995D01*
X123956592Y-114632004D01*
X123976196Y-114893620D01*
X123976197Y-114893625D01*
X124034576Y-115149402D01*
X124034578Y-115149411D01*
X124034580Y-115149416D01*
X124130432Y-115393643D01*
X124261614Y-115620857D01*
X124425195Y-115825981D01*
X124425197Y-115825983D01*
X124425198Y-115825984D01*
X124434569Y-115834679D01*
X124470324Y-115894707D01*
X124467950Y-115964536D01*
X124428200Y-116021997D01*
X124363695Y-116048846D01*
X124362016Y-116049017D01*
X124228039Y-116061810D01*
X124228030Y-116061811D01*
X124228029Y-116061812D01*
X124228027Y-116061812D01*
X124228025Y-116061813D01*
X124021793Y-116122368D01*
X123830736Y-116220864D01*
X123661785Y-116353729D01*
X123661782Y-116353733D01*
X123521021Y-116516178D01*
X123413553Y-116702319D01*
X123343251Y-116905442D01*
X123343250Y-116905444D01*
X123312661Y-117118200D01*
X123312660Y-117118202D01*
X116676214Y-117118202D01*
X116671112Y-117011096D01*
X116620437Y-116802210D01*
X116531146Y-116606690D01*
X116406466Y-116431601D01*
X116406464Y-116431599D01*
X116406459Y-116431593D01*
X116250905Y-116283274D01*
X116070080Y-116167065D01*
X115870530Y-116087177D01*
X115659473Y-116046500D01*
X115659472Y-116046500D01*
X115498382Y-116046500D01*
X115338050Y-116061810D01*
X115338029Y-116061812D01*
X115338025Y-116061813D01*
X115131793Y-116122368D01*
X114940736Y-116220864D01*
X114771785Y-116353729D01*
X114771782Y-116353733D01*
X114631021Y-116516178D01*
X114523553Y-116702319D01*
X114453251Y-116905442D01*
X114453250Y-116905444D01*
X114422661Y-117118200D01*
X114422660Y-117118202D01*
X112725556Y-117118202D01*
X112726277Y-117096631D01*
X112696118Y-116796838D01*
X112626269Y-116503739D01*
X112517977Y-116222566D01*
X112373175Y-115958335D01*
X112194446Y-115715762D01*
X111984980Y-115499176D01*
X111861742Y-115401856D01*
X111748521Y-115312446D01*
X111748517Y-115312443D01*
X111748515Y-115312442D01*
X111489270Y-115158891D01*
X111211872Y-115041264D01*
X111211863Y-115041261D01*
X110921272Y-114961660D01*
X110846616Y-114951620D01*
X110622653Y-114921500D01*
X110396756Y-114921500D01*
X110396748Y-114921500D01*
X110171368Y-114936587D01*
X110171359Y-114936589D01*
X109876094Y-114996604D01*
X109591464Y-115095439D01*
X109591459Y-115095441D01*
X109322546Y-115231328D01*
X109074125Y-115401860D01*
X108850665Y-115603969D01*
X108656132Y-115834064D01*
X108494006Y-116088030D01*
X108494005Y-116088032D01*
X108403404Y-116283274D01*
X108367177Y-116361342D01*
X108360614Y-116382499D01*
X108277907Y-116649118D01*
X108268933Y-116702323D01*
X108227791Y-116946230D01*
X108222042Y-117118202D01*
X108217723Y-117247373D01*
X106518237Y-117247373D01*
X106521339Y-117225797D01*
X106511112Y-117011096D01*
X106460437Y-116802210D01*
X106371146Y-116606690D01*
X106342664Y-116566692D01*
X106319811Y-116500665D01*
X106336284Y-116432765D01*
X106386851Y-116384549D01*
X106455458Y-116371326D01*
X106462140Y-116372148D01*
X106530818Y-116382500D01*
X106793182Y-116382500D01*
X107052615Y-116343396D01*
X107303323Y-116266063D01*
X107539704Y-116152228D01*
X107756479Y-116004433D01*
X107948805Y-115825981D01*
X108112386Y-115620857D01*
X108243568Y-115393643D01*
X108339420Y-115149416D01*
X108397802Y-114893630D01*
X108417408Y-114632000D01*
X108397802Y-114370370D01*
X108339420Y-114114584D01*
X108243568Y-113870357D01*
X108112386Y-113643143D01*
X107948805Y-113438019D01*
X107948804Y-113438018D01*
X107948801Y-113438014D01*
X107756479Y-113259567D01*
X107539704Y-113111772D01*
X107539700Y-113111770D01*
X107539697Y-113111768D01*
X107539696Y-113111767D01*
X107303325Y-112997938D01*
X107303327Y-112997938D01*
X107052623Y-112920606D01*
X107052619Y-112920605D01*
X107052615Y-112920604D01*
X106927823Y-112901794D01*
X106793187Y-112881500D01*
X106793182Y-112881500D01*
X106530818Y-112881500D01*
X106530812Y-112881500D01*
X106369247Y-112905853D01*
X106271385Y-112920604D01*
X106271382Y-112920605D01*
X106271376Y-112920606D01*
X106020673Y-112997938D01*
X105784303Y-113111767D01*
X105784302Y-113111768D01*
X105784296Y-113111771D01*
X105784296Y-113111772D01*
X105772416Y-113119872D01*
X105567520Y-113259567D01*
X105375198Y-113438014D01*
X105211614Y-113643143D01*
X105080432Y-113870356D01*
X104984582Y-114114578D01*
X104984576Y-114114597D01*
X104926197Y-114370374D01*
X104926196Y-114370379D01*
X104906592Y-114631995D01*
X104906592Y-114632004D01*
X104926196Y-114893620D01*
X104926197Y-114893625D01*
X104984576Y-115149402D01*
X104984578Y-115149411D01*
X104984580Y-115149416D01*
X105080432Y-115393643D01*
X105211614Y-115620857D01*
X105375195Y-115825981D01*
X105375197Y-115825983D01*
X105375198Y-115825984D01*
X105384569Y-115834679D01*
X105420324Y-115894707D01*
X105417950Y-115964536D01*
X105378200Y-116021997D01*
X105313695Y-116048846D01*
X105312016Y-116049017D01*
X105178039Y-116061810D01*
X105178030Y-116061811D01*
X105178029Y-116061812D01*
X105178027Y-116061812D01*
X105178025Y-116061813D01*
X104971793Y-116122368D01*
X104780736Y-116220864D01*
X104611785Y-116353729D01*
X104611782Y-116353733D01*
X104471021Y-116516178D01*
X104363553Y-116702319D01*
X104293251Y-116905442D01*
X104293250Y-116905444D01*
X104262661Y-117118200D01*
X104262660Y-117118202D01*
X80772500Y-117118202D01*
X80772500Y-112092004D01*
X111257093Y-112092004D01*
X111276692Y-112353545D01*
X111276693Y-112353550D01*
X111335058Y-112609270D01*
X111430883Y-112853426D01*
X111430882Y-112853426D01*
X111562030Y-113080577D01*
X111609873Y-113140571D01*
X111609874Y-113140571D01*
X112334803Y-112415641D01*
X112358059Y-112469553D01*
X112462756Y-112610185D01*
X112597062Y-112722882D01*
X112688665Y-112768886D01*
X111962831Y-113494720D01*
X112134546Y-113611793D01*
X112134550Y-113611795D01*
X112370854Y-113725594D01*
X112370858Y-113725595D01*
X112621494Y-113802907D01*
X112621500Y-113802909D01*
X112880848Y-113841999D01*
X112880857Y-113842000D01*
X113143143Y-113842000D01*
X113143151Y-113841999D01*
X113402499Y-113802909D01*
X113402505Y-113802907D01*
X113653143Y-113725595D01*
X113889445Y-113611798D01*
X113889456Y-113611791D01*
X114061167Y-113494720D01*
X113337946Y-112771498D01*
X113350891Y-112766787D01*
X113497373Y-112670445D01*
X113617688Y-112542918D01*
X113690447Y-112416894D01*
X114414124Y-113140571D01*
X114461974Y-113080570D01*
X114593116Y-112853426D01*
X114688941Y-112609270D01*
X114747306Y-112353550D01*
X114747307Y-112353545D01*
X114766907Y-112092004D01*
X130307093Y-112092004D01*
X130326692Y-112353545D01*
X130326693Y-112353550D01*
X130385058Y-112609270D01*
X130480883Y-112853426D01*
X130480882Y-112853426D01*
X130612030Y-113080577D01*
X130659873Y-113140571D01*
X130659874Y-113140571D01*
X131384803Y-112415641D01*
X131408059Y-112469553D01*
X131512756Y-112610185D01*
X131647062Y-112722882D01*
X131738665Y-112768886D01*
X131012831Y-113494720D01*
X131184546Y-113611793D01*
X131184550Y-113611795D01*
X131420854Y-113725594D01*
X131420858Y-113725595D01*
X131671494Y-113802907D01*
X131671500Y-113802909D01*
X131930848Y-113841999D01*
X131930857Y-113842000D01*
X132193143Y-113842000D01*
X132193151Y-113841999D01*
X132452499Y-113802909D01*
X132452505Y-113802907D01*
X132703143Y-113725595D01*
X132939445Y-113611798D01*
X132939456Y-113611791D01*
X133111167Y-113494720D01*
X132387946Y-112771498D01*
X132400891Y-112766787D01*
X132547373Y-112670445D01*
X132667688Y-112542918D01*
X132740447Y-112416894D01*
X133464124Y-113140571D01*
X133511974Y-113080570D01*
X133643116Y-112853426D01*
X133738941Y-112609270D01*
X133797306Y-112353550D01*
X133797307Y-112353545D01*
X133816907Y-112092004D01*
X149357093Y-112092004D01*
X149376692Y-112353545D01*
X149376693Y-112353550D01*
X149435058Y-112609270D01*
X149530883Y-112853426D01*
X149530882Y-112853426D01*
X149662030Y-113080577D01*
X149709873Y-113140571D01*
X149709874Y-113140571D01*
X150434803Y-112415641D01*
X150458059Y-112469553D01*
X150562756Y-112610185D01*
X150697062Y-112722882D01*
X150788665Y-112768886D01*
X150062831Y-113494720D01*
X150234546Y-113611793D01*
X150234550Y-113611795D01*
X150470854Y-113725594D01*
X150470858Y-113725595D01*
X150721494Y-113802907D01*
X150721500Y-113802909D01*
X150980848Y-113841999D01*
X150980857Y-113842000D01*
X151243143Y-113842000D01*
X151243151Y-113841999D01*
X151502499Y-113802909D01*
X151502505Y-113802907D01*
X151753143Y-113725595D01*
X151989445Y-113611798D01*
X151989456Y-113611791D01*
X152161167Y-113494720D01*
X151437946Y-112771498D01*
X151450891Y-112766787D01*
X151597373Y-112670445D01*
X151717688Y-112542918D01*
X151790447Y-112416894D01*
X152514124Y-113140571D01*
X152561974Y-113080570D01*
X152693116Y-112853426D01*
X152788941Y-112609270D01*
X152847306Y-112353550D01*
X152847307Y-112353545D01*
X152866907Y-112092004D01*
X152866907Y-112091995D01*
X152847307Y-111830454D01*
X152847306Y-111830449D01*
X152788941Y-111574729D01*
X152779184Y-111549870D01*
X163031500Y-111549870D01*
X163031501Y-111549876D01*
X163037908Y-111609483D01*
X163088202Y-111744328D01*
X163088206Y-111744335D01*
X163174452Y-111859544D01*
X163174455Y-111859547D01*
X163289664Y-111945793D01*
X163289671Y-111945797D01*
X163424517Y-111996091D01*
X163424516Y-111996091D01*
X163431444Y-111996835D01*
X163484127Y-112002500D01*
X166120317Y-112002499D01*
X166125721Y-112002734D01*
X166148774Y-112004751D01*
X166181999Y-112007659D01*
X166181999Y-112007658D01*
X166182000Y-112007659D01*
X166238280Y-112002734D01*
X166243682Y-112002499D01*
X167079871Y-112002499D01*
X167079872Y-112002499D01*
X167139483Y-111996091D01*
X167274331Y-111945796D01*
X167389546Y-111859546D01*
X167475796Y-111744331D01*
X167526091Y-111609483D01*
X167532500Y-111549873D01*
X167532499Y-110713677D01*
X167532735Y-110708272D01*
X167537659Y-110652000D01*
X167537659Y-110651999D01*
X167532735Y-110595726D01*
X167532499Y-110590319D01*
X167532499Y-110422001D01*
X171176341Y-110422001D01*
X171181264Y-110478269D01*
X171181500Y-110483675D01*
X171181500Y-113119870D01*
X171181501Y-113119876D01*
X171187908Y-113179483D01*
X171238202Y-113314328D01*
X171238206Y-113314335D01*
X171324452Y-113429544D01*
X171324455Y-113429547D01*
X171439664Y-113515793D01*
X171439671Y-113515797D01*
X171574517Y-113566091D01*
X171574516Y-113566091D01*
X171581444Y-113566835D01*
X171634127Y-113572500D01*
X173429872Y-113572499D01*
X173489483Y-113566091D01*
X173624331Y-113515796D01*
X173728106Y-113438109D01*
X173793570Y-113413692D01*
X173861843Y-113428543D01*
X173876729Y-113438110D01*
X173979910Y-113515352D01*
X173979913Y-113515354D01*
X174114620Y-113565596D01*
X174114627Y-113565598D01*
X174174155Y-113571999D01*
X174174172Y-113572000D01*
X174822000Y-113572000D01*
X174822000Y-110868494D01*
X174926839Y-110916373D01*
X175035527Y-110932000D01*
X175108473Y-110932000D01*
X175217161Y-110916373D01*
X175322000Y-110868494D01*
X175322000Y-113572000D01*
X175969828Y-113572000D01*
X175969844Y-113571999D01*
X176029372Y-113565598D01*
X176029379Y-113565596D01*
X176164086Y-113515354D01*
X176164089Y-113515352D01*
X176267271Y-113438110D01*
X176332735Y-113413692D01*
X176401008Y-113428543D01*
X176415888Y-113438105D01*
X176519076Y-113515352D01*
X176519668Y-113515795D01*
X176519671Y-113515797D01*
X176654517Y-113566091D01*
X176654516Y-113566091D01*
X176661444Y-113566835D01*
X176714127Y-113572500D01*
X178509872Y-113572499D01*
X178569483Y-113566091D01*
X178704331Y-113515796D01*
X178819546Y-113429546D01*
X178905796Y-113314331D01*
X178956091Y-113179483D01*
X178962500Y-113119873D01*
X178962499Y-110652001D01*
X182606341Y-110652001D01*
X182611264Y-110708271D01*
X182611500Y-110713677D01*
X182611500Y-111549870D01*
X182611501Y-111549876D01*
X182617908Y-111609483D01*
X182668202Y-111744328D01*
X182668206Y-111744335D01*
X182754452Y-111859544D01*
X182754455Y-111859547D01*
X182869664Y-111945793D01*
X182869671Y-111945797D01*
X183004517Y-111996091D01*
X183004516Y-111996091D01*
X183011444Y-111996835D01*
X183064127Y-112002500D01*
X183900322Y-112002499D01*
X183905727Y-112002734D01*
X183962000Y-112007659D01*
X184018272Y-112002734D01*
X184023678Y-112002499D01*
X186659871Y-112002499D01*
X186659872Y-112002499D01*
X186719483Y-111996091D01*
X186854331Y-111945796D01*
X186969546Y-111859546D01*
X187055796Y-111744331D01*
X187106091Y-111609483D01*
X187112500Y-111549873D01*
X187112499Y-109754128D01*
X187106091Y-109694517D01*
X187055796Y-109559669D01*
X186978421Y-109456309D01*
X186954004Y-109390848D01*
X186968855Y-109322575D01*
X186978416Y-109307696D01*
X187055796Y-109204331D01*
X187106091Y-109069483D01*
X187112500Y-109009873D01*
X187112499Y-107214128D01*
X187106091Y-107154517D01*
X187055796Y-107019669D01*
X186978109Y-106915893D01*
X186953692Y-106850430D01*
X186968543Y-106782157D01*
X186978110Y-106767271D01*
X187055352Y-106664089D01*
X187055354Y-106664086D01*
X187105596Y-106529379D01*
X187105598Y-106529372D01*
X187111999Y-106469844D01*
X187112000Y-106469827D01*
X187112000Y-105822000D01*
X184407572Y-105822000D01*
X184430682Y-105786040D01*
X184472000Y-105645327D01*
X184472000Y-105498673D01*
X184430682Y-105357960D01*
X184407572Y-105322000D01*
X187112000Y-105322000D01*
X187112000Y-104674172D01*
X187111999Y-104674155D01*
X187105598Y-104614627D01*
X187105596Y-104614620D01*
X187055354Y-104479913D01*
X187055352Y-104479910D01*
X186978110Y-104376729D01*
X186953692Y-104311265D01*
X186968543Y-104242992D01*
X186978105Y-104228111D01*
X187055796Y-104124331D01*
X187106091Y-103989483D01*
X187112500Y-103929873D01*
X187112499Y-102134128D01*
X187106091Y-102074517D01*
X187055796Y-101939669D01*
X186978421Y-101836309D01*
X186954004Y-101770848D01*
X186968855Y-101702575D01*
X186978416Y-101687696D01*
X187055796Y-101584331D01*
X187106091Y-101449483D01*
X187112500Y-101389873D01*
X187112499Y-99594128D01*
X187106091Y-99534517D01*
X187078275Y-99459939D01*
X187055797Y-99399671D01*
X187055795Y-99399668D01*
X186978421Y-99296309D01*
X186954004Y-99230848D01*
X186968855Y-99162575D01*
X186978416Y-99147696D01*
X187055796Y-99044331D01*
X187106091Y-98909483D01*
X187112500Y-98849873D01*
X187112499Y-97054128D01*
X187106091Y-96994517D01*
X187091140Y-96954432D01*
X187055797Y-96859671D01*
X187055795Y-96859668D01*
X186999658Y-96784679D01*
X186978421Y-96756309D01*
X186954004Y-96690848D01*
X186968855Y-96622575D01*
X186978416Y-96607696D01*
X187055796Y-96504331D01*
X187106091Y-96369483D01*
X187112500Y-96309873D01*
X187112499Y-94514128D01*
X187106091Y-94454517D01*
X187100428Y-94439335D01*
X187055797Y-94319671D01*
X187055795Y-94319668D01*
X186978109Y-94215893D01*
X186953692Y-94150430D01*
X186968543Y-94082157D01*
X186978110Y-94067271D01*
X187055352Y-93964089D01*
X187055354Y-93964086D01*
X187105596Y-93829379D01*
X187105598Y-93829372D01*
X187111999Y-93769844D01*
X187112000Y-93769827D01*
X187112000Y-93122000D01*
X184407572Y-93122000D01*
X184430682Y-93086040D01*
X184472000Y-92945327D01*
X184472000Y-92798673D01*
X184430682Y-92657960D01*
X184407572Y-92622000D01*
X187112000Y-92622000D01*
X187112000Y-91974172D01*
X187111999Y-91974155D01*
X187105598Y-91914627D01*
X187105596Y-91914620D01*
X187055354Y-91779913D01*
X187055352Y-91779910D01*
X186978110Y-91676729D01*
X186953692Y-91611265D01*
X186968543Y-91542992D01*
X186978105Y-91528111D01*
X187055796Y-91424331D01*
X187106091Y-91289483D01*
X187112500Y-91229873D01*
X187112499Y-89434128D01*
X187106091Y-89374517D01*
X187055796Y-89239669D01*
X186978421Y-89136309D01*
X186954004Y-89070848D01*
X186968855Y-89002575D01*
X186978416Y-88987696D01*
X187055796Y-88884331D01*
X187106091Y-88749483D01*
X187112500Y-88689873D01*
X187112499Y-86894128D01*
X187106091Y-86834517D01*
X187055796Y-86699669D01*
X186978421Y-86596309D01*
X186954004Y-86530848D01*
X186968855Y-86462575D01*
X186978416Y-86447696D01*
X187055796Y-86344331D01*
X187106091Y-86209483D01*
X187112500Y-86149873D01*
X187112499Y-84354128D01*
X187106091Y-84294517D01*
X187055796Y-84159669D01*
X186978421Y-84056309D01*
X186954004Y-83990848D01*
X186968855Y-83922575D01*
X186978416Y-83907696D01*
X187055796Y-83804331D01*
X187106091Y-83669483D01*
X187112500Y-83609873D01*
X187112499Y-81814128D01*
X187106091Y-81754517D01*
X187055796Y-81619669D01*
X186978421Y-81516309D01*
X186954004Y-81450848D01*
X186968855Y-81382575D01*
X186978416Y-81367696D01*
X187055796Y-81264331D01*
X187106091Y-81129483D01*
X187112500Y-81069873D01*
X187112499Y-79274128D01*
X187106091Y-79214517D01*
X187055796Y-79079669D01*
X186978421Y-78976309D01*
X186954004Y-78910848D01*
X186968855Y-78842575D01*
X186978416Y-78827696D01*
X187055796Y-78724331D01*
X187106091Y-78589483D01*
X187112500Y-78529873D01*
X187112499Y-76734128D01*
X187106091Y-76674517D01*
X187096014Y-76647500D01*
X187055797Y-76539671D01*
X187055795Y-76539668D01*
X186978421Y-76436309D01*
X186954004Y-76370848D01*
X186968855Y-76302575D01*
X186978416Y-76287696D01*
X187055796Y-76184331D01*
X187106091Y-76049483D01*
X187112500Y-75989873D01*
X187112499Y-74194128D01*
X187106091Y-74134517D01*
X187092894Y-74099135D01*
X187055797Y-73999671D01*
X187055795Y-73999668D01*
X186984680Y-73904671D01*
X186978421Y-73896309D01*
X186954004Y-73830848D01*
X186968855Y-73762575D01*
X186978416Y-73747696D01*
X187055796Y-73644331D01*
X187106091Y-73509483D01*
X187112500Y-73449873D01*
X187112499Y-71654128D01*
X187106091Y-71594517D01*
X187092515Y-71558119D01*
X187055797Y-71459671D01*
X187055795Y-71459668D01*
X186978421Y-71356309D01*
X186954004Y-71290848D01*
X186968855Y-71222575D01*
X186978416Y-71207696D01*
X187055796Y-71104331D01*
X187106091Y-70969483D01*
X187112500Y-70909873D01*
X187112499Y-69114128D01*
X187106091Y-69054517D01*
X187103287Y-69047000D01*
X187055797Y-68919671D01*
X187055795Y-68919668D01*
X186978421Y-68816309D01*
X186954004Y-68750848D01*
X186968855Y-68682575D01*
X186978416Y-68667696D01*
X187055796Y-68564331D01*
X187106091Y-68429483D01*
X187112500Y-68369873D01*
X187112499Y-66574128D01*
X187106091Y-66514517D01*
X187105748Y-66513598D01*
X187055797Y-66379671D01*
X187055795Y-66379668D01*
X186978421Y-66276309D01*
X186954004Y-66210848D01*
X186968855Y-66142575D01*
X186978416Y-66127696D01*
X187055796Y-66024331D01*
X187106091Y-65889483D01*
X187112500Y-65829873D01*
X187112499Y-64034128D01*
X187106091Y-63974517D01*
X187083178Y-63913085D01*
X187055797Y-63839671D01*
X187055795Y-63839668D01*
X187045011Y-63825262D01*
X186978421Y-63736309D01*
X186954004Y-63670848D01*
X186968855Y-63602575D01*
X186978416Y-63587696D01*
X187055796Y-63484331D01*
X187106091Y-63349483D01*
X187112500Y-63289873D01*
X187112499Y-61494128D01*
X187106091Y-61434517D01*
X187103817Y-61428421D01*
X187055797Y-61299671D01*
X187055793Y-61299664D01*
X186969547Y-61184455D01*
X186969544Y-61184452D01*
X186854335Y-61098206D01*
X186854328Y-61098202D01*
X186719482Y-61047908D01*
X186719483Y-61047908D01*
X186659883Y-61041501D01*
X186659881Y-61041500D01*
X186659873Y-61041500D01*
X186659865Y-61041500D01*
X184023680Y-61041500D01*
X184018278Y-61041264D01*
X183979494Y-61037871D01*
X183962001Y-61036341D01*
X183961998Y-61036341D01*
X183934715Y-61038727D01*
X183905719Y-61041264D01*
X183900319Y-61041500D01*
X183064129Y-61041500D01*
X183064123Y-61041501D01*
X183004516Y-61047908D01*
X182869671Y-61098202D01*
X182869664Y-61098206D01*
X182754455Y-61184452D01*
X182754452Y-61184455D01*
X182668206Y-61299664D01*
X182668202Y-61299671D01*
X182617908Y-61434517D01*
X182611877Y-61490621D01*
X182611501Y-61494123D01*
X182611500Y-61494135D01*
X182611500Y-62330322D01*
X182611264Y-62335728D01*
X182606341Y-62391998D01*
X182606341Y-62392001D01*
X182611264Y-62448271D01*
X182611500Y-62453677D01*
X182611500Y-63289870D01*
X182611501Y-63289876D01*
X182617908Y-63349483D01*
X182668202Y-63484328D01*
X182668203Y-63484330D01*
X182745578Y-63587689D01*
X182769995Y-63653153D01*
X182755144Y-63721426D01*
X182745578Y-63736311D01*
X182668203Y-63839669D01*
X182668202Y-63839671D01*
X182617908Y-63974517D01*
X182611501Y-64034116D01*
X182611501Y-64034123D01*
X182611500Y-64034135D01*
X182611500Y-64870322D01*
X182611264Y-64875728D01*
X182606341Y-64931998D01*
X182606341Y-64932001D01*
X182611264Y-64988271D01*
X182611500Y-64993677D01*
X182611500Y-65829870D01*
X182611501Y-65829876D01*
X182617908Y-65889483D01*
X182668202Y-66024328D01*
X182668203Y-66024330D01*
X182668204Y-66024331D01*
X182734561Y-66112973D01*
X182745578Y-66127689D01*
X182769995Y-66193153D01*
X182755144Y-66261426D01*
X182745578Y-66276309D01*
X182745265Y-66276729D01*
X182668203Y-66379669D01*
X182668202Y-66379671D01*
X182617908Y-66514517D01*
X182612769Y-66562320D01*
X182611501Y-66574123D01*
X182611500Y-66574135D01*
X182611500Y-68369870D01*
X182611501Y-68369876D01*
X182617908Y-68429483D01*
X182668202Y-68564328D01*
X182668203Y-68564330D01*
X182745578Y-68667689D01*
X182769995Y-68733153D01*
X182755144Y-68801426D01*
X182745578Y-68816311D01*
X182668203Y-68919669D01*
X182668202Y-68919671D01*
X182617908Y-69054517D01*
X182611501Y-69114116D01*
X182611501Y-69114123D01*
X182611500Y-69114135D01*
X182611500Y-69950322D01*
X182611264Y-69955723D01*
X182608626Y-69985875D01*
X182606341Y-70011998D01*
X182606341Y-70012001D01*
X182611264Y-70068271D01*
X182611500Y-70073677D01*
X182611500Y-70909870D01*
X182611501Y-70909876D01*
X182617908Y-70969483D01*
X182668202Y-71104328D01*
X182668203Y-71104330D01*
X182745578Y-71207689D01*
X182769995Y-71273153D01*
X182755144Y-71341426D01*
X182745578Y-71356311D01*
X182668203Y-71459669D01*
X182668202Y-71459671D01*
X182617908Y-71594517D01*
X182611501Y-71654116D01*
X182611501Y-71654123D01*
X182611500Y-71654135D01*
X182611500Y-72490322D01*
X182611264Y-72495728D01*
X182606341Y-72551998D01*
X182606341Y-72552001D01*
X182611264Y-72608271D01*
X182611500Y-72613677D01*
X182611500Y-73449870D01*
X182611501Y-73449876D01*
X182617908Y-73509483D01*
X182668202Y-73644328D01*
X182668203Y-73644330D01*
X182745578Y-73747689D01*
X182769995Y-73813153D01*
X182755144Y-73881426D01*
X182745578Y-73896311D01*
X182668203Y-73999669D01*
X182668202Y-73999671D01*
X182617908Y-74134517D01*
X182611501Y-74194116D01*
X182611501Y-74194123D01*
X182611500Y-74194135D01*
X182611500Y-75030322D01*
X182611264Y-75035728D01*
X182606341Y-75091998D01*
X182606341Y-75092001D01*
X182611264Y-75148271D01*
X182611500Y-75153677D01*
X182611500Y-75989870D01*
X182611501Y-75989876D01*
X182617908Y-76049483D01*
X182668202Y-76184328D01*
X182668203Y-76184330D01*
X182745578Y-76287689D01*
X182769995Y-76353153D01*
X182755144Y-76421426D01*
X182745578Y-76436311D01*
X182668203Y-76539669D01*
X182668202Y-76539671D01*
X182617908Y-76674517D01*
X182611501Y-76734116D01*
X182611501Y-76734123D01*
X182611500Y-76734135D01*
X182611500Y-77570322D01*
X182611264Y-77575728D01*
X182606341Y-77631998D01*
X182606341Y-77632001D01*
X182611264Y-77688271D01*
X182611500Y-77693677D01*
X182611500Y-78529870D01*
X182611501Y-78529876D01*
X182617908Y-78589483D01*
X182668202Y-78724328D01*
X182668203Y-78724330D01*
X182745578Y-78827689D01*
X182769995Y-78893153D01*
X182755144Y-78961426D01*
X182745578Y-78976309D01*
X182745265Y-78976729D01*
X182668203Y-79079669D01*
X182668202Y-79079671D01*
X182617908Y-79214517D01*
X182611501Y-79274116D01*
X182611501Y-79274123D01*
X182611500Y-79274135D01*
X182611500Y-81069870D01*
X182611501Y-81069876D01*
X182617908Y-81129483D01*
X182668202Y-81264328D01*
X182668203Y-81264330D01*
X182745578Y-81367689D01*
X182769995Y-81433153D01*
X182755144Y-81501426D01*
X182745578Y-81516311D01*
X182668203Y-81619669D01*
X182668202Y-81619671D01*
X182617908Y-81754517D01*
X182611501Y-81814116D01*
X182611501Y-81814123D01*
X182611500Y-81814135D01*
X182611500Y-82650322D01*
X182611264Y-82655728D01*
X182606341Y-82711998D01*
X182606341Y-82712001D01*
X182611264Y-82768271D01*
X182611500Y-82773677D01*
X182611500Y-83609870D01*
X182611501Y-83609876D01*
X182617908Y-83669483D01*
X182668202Y-83804328D01*
X182668203Y-83804330D01*
X182745578Y-83907689D01*
X182769995Y-83973153D01*
X182755144Y-84041426D01*
X182745578Y-84056311D01*
X182668203Y-84159669D01*
X182668202Y-84159671D01*
X182617908Y-84294517D01*
X182611501Y-84354116D01*
X182611501Y-84354123D01*
X182611500Y-84354135D01*
X182611500Y-85190322D01*
X182611264Y-85195728D01*
X182606341Y-85251998D01*
X182606341Y-85252001D01*
X182611264Y-85308271D01*
X182611500Y-85313677D01*
X182611500Y-86149870D01*
X182611501Y-86149876D01*
X182617908Y-86209483D01*
X182668202Y-86344328D01*
X182668203Y-86344330D01*
X182745578Y-86447689D01*
X182769995Y-86513153D01*
X182755144Y-86581426D01*
X182745578Y-86596311D01*
X182668203Y-86699669D01*
X182668202Y-86699671D01*
X182617908Y-86834517D01*
X182611501Y-86894116D01*
X182611501Y-86894123D01*
X182611500Y-86894135D01*
X182611500Y-87730322D01*
X182611264Y-87735728D01*
X182606341Y-87791998D01*
X182606341Y-87792001D01*
X182611264Y-87848271D01*
X182611500Y-87853677D01*
X182611500Y-88689870D01*
X182611501Y-88689876D01*
X182617908Y-88749483D01*
X182668202Y-88884328D01*
X182668203Y-88884330D01*
X182745578Y-88987689D01*
X182769995Y-89053153D01*
X182755144Y-89121426D01*
X182745578Y-89136311D01*
X182668203Y-89239669D01*
X182668202Y-89239671D01*
X182617908Y-89374517D01*
X182611501Y-89434116D01*
X182611501Y-89434123D01*
X182611500Y-89434135D01*
X182611500Y-90270322D01*
X182611264Y-90275728D01*
X182606341Y-90331998D01*
X182606341Y-90332001D01*
X182611264Y-90388271D01*
X182611500Y-90393677D01*
X182611500Y-91229870D01*
X182611501Y-91229876D01*
X182617908Y-91289483D01*
X182668202Y-91424328D01*
X182668206Y-91424335D01*
X182745889Y-91528105D01*
X182770307Y-91593569D01*
X182755456Y-91661842D01*
X182745890Y-91676727D01*
X182668647Y-91779910D01*
X182668645Y-91779913D01*
X182618403Y-91914620D01*
X182618401Y-91914627D01*
X182612000Y-91974155D01*
X182612000Y-92622000D01*
X183516428Y-92622000D01*
X183493318Y-92657960D01*
X183452000Y-92798673D01*
X183452000Y-92945327D01*
X183493318Y-93086040D01*
X183516428Y-93122000D01*
X182612000Y-93122000D01*
X182612000Y-93769844D01*
X182618401Y-93829372D01*
X182618403Y-93829379D01*
X182668645Y-93964086D01*
X182668646Y-93964088D01*
X182745890Y-94067272D01*
X182770307Y-94132736D01*
X182755456Y-94201009D01*
X182745890Y-94215894D01*
X182668204Y-94319669D01*
X182668202Y-94319671D01*
X182617908Y-94454517D01*
X182611501Y-94514116D01*
X182611501Y-94514123D01*
X182611500Y-94514135D01*
X182611500Y-95350322D01*
X182611264Y-95355723D01*
X182606341Y-95412000D01*
X182609601Y-95449270D01*
X182611264Y-95468271D01*
X182611500Y-95473677D01*
X182611500Y-96309870D01*
X182611501Y-96309876D01*
X182617908Y-96369483D01*
X182668202Y-96504328D01*
X182668203Y-96504330D01*
X182745578Y-96607689D01*
X182769995Y-96673153D01*
X182755144Y-96741426D01*
X182745578Y-96756311D01*
X182668203Y-96859669D01*
X182668202Y-96859671D01*
X182617908Y-96994517D01*
X182613230Y-97038032D01*
X182611501Y-97054123D01*
X182611500Y-97054135D01*
X182611500Y-97890322D01*
X182611264Y-97895728D01*
X182606341Y-97951998D01*
X182606341Y-97952001D01*
X182611264Y-98008271D01*
X182611500Y-98013677D01*
X182611500Y-98849870D01*
X182611501Y-98849876D01*
X182617908Y-98909483D01*
X182668202Y-99044328D01*
X182668203Y-99044330D01*
X182745578Y-99147689D01*
X182769995Y-99213153D01*
X182755144Y-99281426D01*
X182745578Y-99296311D01*
X182668203Y-99399669D01*
X182668202Y-99399671D01*
X182617908Y-99534517D01*
X182611501Y-99594116D01*
X182611501Y-99594123D01*
X182611500Y-99594135D01*
X182611500Y-100430322D01*
X182611264Y-100435728D01*
X182606341Y-100491998D01*
X182606341Y-100492001D01*
X182611264Y-100548271D01*
X182611500Y-100553677D01*
X182611500Y-101389870D01*
X182611501Y-101389876D01*
X182617908Y-101449483D01*
X182668202Y-101584328D01*
X182668203Y-101584330D01*
X182745578Y-101687689D01*
X182769995Y-101753153D01*
X182755144Y-101821426D01*
X182745578Y-101836311D01*
X182668203Y-101939669D01*
X182668202Y-101939671D01*
X182617908Y-102074517D01*
X182611501Y-102134116D01*
X182611501Y-102134123D01*
X182611500Y-102134135D01*
X182611500Y-102970322D01*
X182611264Y-102975728D01*
X182606341Y-103031998D01*
X182606341Y-103032001D01*
X182611264Y-103088271D01*
X182611500Y-103093677D01*
X182611500Y-103929870D01*
X182611501Y-103929876D01*
X182617908Y-103989483D01*
X182668202Y-104124328D01*
X182668206Y-104124335D01*
X182745889Y-104228105D01*
X182770307Y-104293569D01*
X182755456Y-104361842D01*
X182745890Y-104376727D01*
X182668647Y-104479910D01*
X182668645Y-104479913D01*
X182618403Y-104614620D01*
X182618401Y-104614627D01*
X182612000Y-104674155D01*
X182612000Y-105322000D01*
X183516428Y-105322000D01*
X183493318Y-105357960D01*
X183452000Y-105498673D01*
X183452000Y-105645327D01*
X183493318Y-105786040D01*
X183516428Y-105822000D01*
X182612000Y-105822000D01*
X182612000Y-106469844D01*
X182618401Y-106529372D01*
X182618403Y-106529379D01*
X182668645Y-106664086D01*
X182668646Y-106664088D01*
X182745890Y-106767272D01*
X182770307Y-106832736D01*
X182755456Y-106901009D01*
X182745890Y-106915894D01*
X182668204Y-107019669D01*
X182668202Y-107019671D01*
X182617908Y-107154517D01*
X182611501Y-107214116D01*
X182611501Y-107214123D01*
X182611500Y-107214135D01*
X182611500Y-108050322D01*
X182611264Y-108055728D01*
X182606341Y-108111998D01*
X182606341Y-108112001D01*
X182611264Y-108168271D01*
X182611500Y-108173677D01*
X182611500Y-109009870D01*
X182611501Y-109009876D01*
X182617908Y-109069483D01*
X182668202Y-109204328D01*
X182668203Y-109204330D01*
X182745578Y-109307689D01*
X182769995Y-109373153D01*
X182755144Y-109441426D01*
X182745578Y-109456311D01*
X182668203Y-109559669D01*
X182668202Y-109559671D01*
X182617908Y-109694517D01*
X182611501Y-109754116D01*
X182611501Y-109754123D01*
X182611500Y-109754135D01*
X182611500Y-110590322D01*
X182611264Y-110595728D01*
X182606341Y-110651998D01*
X182606341Y-110652001D01*
X178962499Y-110652001D01*
X178962499Y-110483675D01*
X178962735Y-110478274D01*
X178962736Y-110478269D01*
X178967659Y-110422000D01*
X178962734Y-110365720D01*
X178962499Y-110360316D01*
X178962499Y-109524129D01*
X178962498Y-109524123D01*
X178962497Y-109524116D01*
X178956091Y-109464517D01*
X178953030Y-109456311D01*
X178905797Y-109329671D01*
X178905793Y-109329664D01*
X178819547Y-109214455D01*
X178819544Y-109214452D01*
X178704335Y-109128206D01*
X178704328Y-109128202D01*
X178569482Y-109077908D01*
X178569483Y-109077908D01*
X178509883Y-109071501D01*
X178509881Y-109071500D01*
X178509873Y-109071500D01*
X178509865Y-109071500D01*
X177673677Y-109071500D01*
X177668275Y-109071264D01*
X177637849Y-109068602D01*
X177612002Y-109066341D01*
X177611999Y-109066341D01*
X177594750Y-109067849D01*
X177555722Y-109071264D01*
X177550322Y-109071500D01*
X176714129Y-109071500D01*
X176714123Y-109071501D01*
X176654516Y-109077908D01*
X176519671Y-109128202D01*
X176519669Y-109128204D01*
X176415894Y-109205890D01*
X176350430Y-109230307D01*
X176282157Y-109215456D01*
X176267272Y-109205890D01*
X176164088Y-109128646D01*
X176164086Y-109128645D01*
X176029379Y-109078403D01*
X176029372Y-109078401D01*
X175969844Y-109072000D01*
X175322000Y-109072000D01*
X175322000Y-109975505D01*
X175217161Y-109927627D01*
X175108473Y-109912000D01*
X175035527Y-109912000D01*
X174926839Y-109927627D01*
X174822000Y-109975505D01*
X174822000Y-109072000D01*
X174174155Y-109072000D01*
X174114627Y-109078401D01*
X174114620Y-109078403D01*
X173979913Y-109128645D01*
X173979910Y-109128647D01*
X173876727Y-109205890D01*
X173811262Y-109230307D01*
X173742989Y-109215455D01*
X173728105Y-109205889D01*
X173624335Y-109128206D01*
X173624328Y-109128202D01*
X173489482Y-109077908D01*
X173489483Y-109077908D01*
X173429883Y-109071501D01*
X173429881Y-109071500D01*
X173429873Y-109071500D01*
X173429865Y-109071500D01*
X172593677Y-109071500D01*
X172588275Y-109071264D01*
X172557849Y-109068602D01*
X172532002Y-109066341D01*
X172531999Y-109066341D01*
X172514750Y-109067849D01*
X172475722Y-109071264D01*
X172470322Y-109071500D01*
X171634129Y-109071500D01*
X171634123Y-109071501D01*
X171574516Y-109077908D01*
X171439671Y-109128202D01*
X171439664Y-109128206D01*
X171324455Y-109214452D01*
X171324452Y-109214455D01*
X171238206Y-109329664D01*
X171238202Y-109329671D01*
X171187908Y-109464517D01*
X171181501Y-109524116D01*
X171181501Y-109524123D01*
X171181500Y-109524135D01*
X171181500Y-110360324D01*
X171181264Y-110365730D01*
X171176341Y-110421998D01*
X171176341Y-110422001D01*
X167532499Y-110422001D01*
X167532499Y-109754129D01*
X167532498Y-109754123D01*
X167532497Y-109754116D01*
X167526091Y-109694517D01*
X167475796Y-109559669D01*
X167398421Y-109456309D01*
X167374004Y-109390848D01*
X167388855Y-109322575D01*
X167398416Y-109307696D01*
X167475796Y-109204331D01*
X167526091Y-109069483D01*
X167532500Y-109009873D01*
X167532499Y-108173677D01*
X167532735Y-108168272D01*
X167537659Y-108112000D01*
X167537659Y-108111999D01*
X167532735Y-108055726D01*
X167532499Y-108050319D01*
X167532499Y-107214129D01*
X167532498Y-107214123D01*
X167532497Y-107214116D01*
X167526091Y-107154517D01*
X167475796Y-107019669D01*
X167398109Y-106915893D01*
X167373692Y-106850430D01*
X167388543Y-106782157D01*
X167398110Y-106767271D01*
X167475352Y-106664089D01*
X167475354Y-106664086D01*
X167525596Y-106529379D01*
X167525598Y-106529372D01*
X167531999Y-106469844D01*
X167532000Y-106469827D01*
X167532000Y-105822000D01*
X166627572Y-105822000D01*
X166650682Y-105786040D01*
X166692000Y-105645327D01*
X166692000Y-105498673D01*
X166650682Y-105357960D01*
X166627572Y-105322000D01*
X167532000Y-105322000D01*
X167532000Y-104674172D01*
X167531999Y-104674155D01*
X167525598Y-104614627D01*
X167525596Y-104614620D01*
X167475354Y-104479913D01*
X167475352Y-104479910D01*
X167398110Y-104376729D01*
X167373692Y-104311265D01*
X167388543Y-104242992D01*
X167398105Y-104228111D01*
X167475796Y-104124331D01*
X167526091Y-103989483D01*
X167532500Y-103929873D01*
X167532499Y-103093677D01*
X167532735Y-103088272D01*
X167537659Y-103032000D01*
X167537659Y-103031999D01*
X167532735Y-102975726D01*
X167532499Y-102970319D01*
X167532499Y-102134129D01*
X167532498Y-102134123D01*
X167532497Y-102134116D01*
X167526091Y-102074517D01*
X167475796Y-101939669D01*
X167398421Y-101836309D01*
X167374004Y-101770848D01*
X167388855Y-101702575D01*
X167398416Y-101687696D01*
X167475796Y-101584331D01*
X167526091Y-101449483D01*
X167532500Y-101389873D01*
X167532499Y-100553677D01*
X167532735Y-100548272D01*
X167537659Y-100492000D01*
X167537659Y-100491999D01*
X167532735Y-100435726D01*
X167532499Y-100430319D01*
X167532499Y-99594129D01*
X167532498Y-99594123D01*
X167532497Y-99594116D01*
X167526091Y-99534517D01*
X167498275Y-99459939D01*
X167475797Y-99399671D01*
X167475795Y-99399668D01*
X167398421Y-99296309D01*
X167374004Y-99230848D01*
X167388855Y-99162575D01*
X167398416Y-99147696D01*
X167475796Y-99044331D01*
X167526091Y-98909483D01*
X167532500Y-98849873D01*
X167532499Y-98013677D01*
X167532735Y-98008272D01*
X167537659Y-97952000D01*
X167537659Y-97951999D01*
X167532735Y-97895726D01*
X167532499Y-97890319D01*
X167532499Y-97054129D01*
X167532498Y-97054123D01*
X167532497Y-97054116D01*
X167526091Y-96994517D01*
X167511140Y-96954432D01*
X167475797Y-96859671D01*
X167475795Y-96859668D01*
X167419658Y-96784679D01*
X167398421Y-96756309D01*
X167374004Y-96690848D01*
X167388855Y-96622575D01*
X167398416Y-96607696D01*
X167475796Y-96504331D01*
X167526091Y-96369483D01*
X167532500Y-96309873D01*
X167532499Y-95473677D01*
X167532735Y-95468272D01*
X167537659Y-95412000D01*
X167537659Y-95411999D01*
X167532735Y-95355726D01*
X167532499Y-95350319D01*
X167532499Y-94514129D01*
X167532498Y-94514123D01*
X167532497Y-94514116D01*
X167526091Y-94454517D01*
X167520428Y-94439335D01*
X167475797Y-94319671D01*
X167475795Y-94319668D01*
X167398109Y-94215893D01*
X167373692Y-94150430D01*
X167388543Y-94082157D01*
X167398110Y-94067271D01*
X167475352Y-93964089D01*
X167475354Y-93964086D01*
X167525596Y-93829379D01*
X167525598Y-93829372D01*
X167531999Y-93769844D01*
X167532000Y-93769827D01*
X167532000Y-93122000D01*
X166627572Y-93122000D01*
X166650682Y-93086040D01*
X166692000Y-92945327D01*
X166692000Y-92798673D01*
X166650682Y-92657960D01*
X166627572Y-92622000D01*
X167532000Y-92622000D01*
X167532000Y-91974172D01*
X167531999Y-91974155D01*
X167525598Y-91914627D01*
X167525596Y-91914620D01*
X167475354Y-91779913D01*
X167475352Y-91779910D01*
X167398110Y-91676729D01*
X167373692Y-91611265D01*
X167388543Y-91542992D01*
X167398105Y-91528111D01*
X167475796Y-91424331D01*
X167526091Y-91289483D01*
X167532500Y-91229873D01*
X167532499Y-90393677D01*
X167532735Y-90388272D01*
X167537659Y-90332000D01*
X167537659Y-90331999D01*
X167532735Y-90275726D01*
X167532499Y-90270319D01*
X167532499Y-89434129D01*
X167532498Y-89434123D01*
X167532497Y-89434116D01*
X167526091Y-89374517D01*
X167475796Y-89239669D01*
X167398421Y-89136309D01*
X167374004Y-89070848D01*
X167388855Y-89002575D01*
X167398416Y-88987696D01*
X167475796Y-88884331D01*
X167526091Y-88749483D01*
X167532500Y-88689873D01*
X167532499Y-87853677D01*
X167532735Y-87848272D01*
X167537659Y-87792000D01*
X167537659Y-87791999D01*
X167532735Y-87735726D01*
X167532499Y-87730319D01*
X167532499Y-86894129D01*
X167532498Y-86894123D01*
X167532497Y-86894116D01*
X167526091Y-86834517D01*
X167475796Y-86699669D01*
X167398421Y-86596309D01*
X167374004Y-86530848D01*
X167388855Y-86462575D01*
X167398416Y-86447696D01*
X167475796Y-86344331D01*
X167526091Y-86209483D01*
X167532500Y-86149873D01*
X167532499Y-85313677D01*
X167532735Y-85308272D01*
X167537659Y-85252000D01*
X167537659Y-85251999D01*
X167532735Y-85195726D01*
X167532499Y-85190319D01*
X167532499Y-84354129D01*
X167532498Y-84354123D01*
X167532497Y-84354116D01*
X167526091Y-84294517D01*
X167475796Y-84159669D01*
X167398421Y-84056309D01*
X167374004Y-83990848D01*
X167388855Y-83922575D01*
X167398416Y-83907696D01*
X167475796Y-83804331D01*
X167526091Y-83669483D01*
X167532500Y-83609873D01*
X167532499Y-82773677D01*
X167532735Y-82768272D01*
X167537659Y-82712000D01*
X167537659Y-82711999D01*
X167532735Y-82655726D01*
X167532499Y-82650319D01*
X167532499Y-81814129D01*
X167532498Y-81814123D01*
X167532497Y-81814116D01*
X167526091Y-81754517D01*
X167475796Y-81619669D01*
X167398109Y-81515893D01*
X167373692Y-81450430D01*
X167388543Y-81382157D01*
X167398110Y-81367271D01*
X167475352Y-81264089D01*
X167475354Y-81264086D01*
X167525596Y-81129379D01*
X167525598Y-81129372D01*
X167531999Y-81069844D01*
X167532000Y-81069827D01*
X167532000Y-80422000D01*
X166627572Y-80422000D01*
X166650682Y-80386040D01*
X166692000Y-80245327D01*
X166692000Y-80098673D01*
X166650682Y-79957960D01*
X166627572Y-79922000D01*
X167532000Y-79922000D01*
X167532000Y-79274172D01*
X167531999Y-79274155D01*
X167525598Y-79214627D01*
X167525596Y-79214620D01*
X167475354Y-79079913D01*
X167475352Y-79079910D01*
X167398110Y-78976729D01*
X167373692Y-78911265D01*
X167388543Y-78842992D01*
X167398105Y-78828111D01*
X167475796Y-78724331D01*
X167526091Y-78589483D01*
X167532500Y-78529873D01*
X167532499Y-77693677D01*
X167532735Y-77688272D01*
X167537659Y-77632000D01*
X167537659Y-77631999D01*
X167532735Y-77575726D01*
X167532499Y-77570319D01*
X167532499Y-76734129D01*
X167532498Y-76734123D01*
X167532497Y-76734116D01*
X167526091Y-76674517D01*
X167516014Y-76647500D01*
X167475797Y-76539671D01*
X167475795Y-76539668D01*
X167398421Y-76436309D01*
X167374004Y-76370848D01*
X167388855Y-76302575D01*
X167398416Y-76287696D01*
X167475796Y-76184331D01*
X167526091Y-76049483D01*
X167532500Y-75989873D01*
X167532499Y-75153677D01*
X167532735Y-75148272D01*
X167537659Y-75092000D01*
X167537659Y-75091999D01*
X167532735Y-75035726D01*
X167532499Y-75030319D01*
X167532499Y-74194129D01*
X167532498Y-74194123D01*
X167532497Y-74194116D01*
X167526091Y-74134517D01*
X167512894Y-74099135D01*
X167475797Y-73999671D01*
X167475795Y-73999668D01*
X167404680Y-73904671D01*
X167398421Y-73896309D01*
X167374004Y-73830848D01*
X167388855Y-73762575D01*
X167398416Y-73747696D01*
X167475796Y-73644331D01*
X167526091Y-73509483D01*
X167532500Y-73449873D01*
X167532499Y-72613677D01*
X167532735Y-72608272D01*
X167537659Y-72552000D01*
X167537659Y-72551999D01*
X167532735Y-72495726D01*
X167532499Y-72490319D01*
X167532499Y-71654129D01*
X167532498Y-71654123D01*
X167532497Y-71654116D01*
X167526091Y-71594517D01*
X167512515Y-71558119D01*
X167475797Y-71459671D01*
X167475795Y-71459668D01*
X167398421Y-71356309D01*
X167374004Y-71290848D01*
X167388855Y-71222575D01*
X167398416Y-71207696D01*
X167475796Y-71104331D01*
X167526091Y-70969483D01*
X167532500Y-70909873D01*
X167532499Y-70073677D01*
X167532735Y-70068272D01*
X167537659Y-70012000D01*
X167537659Y-70011999D01*
X167532735Y-69955726D01*
X167532499Y-69950319D01*
X167532499Y-69114129D01*
X167532498Y-69114123D01*
X167532497Y-69114116D01*
X167526091Y-69054517D01*
X167523287Y-69047000D01*
X167475797Y-68919671D01*
X167475795Y-68919668D01*
X167398109Y-68815893D01*
X167373692Y-68750430D01*
X167388543Y-68682157D01*
X167398110Y-68667271D01*
X167475352Y-68564089D01*
X167475354Y-68564086D01*
X167525596Y-68429379D01*
X167525598Y-68429372D01*
X167531999Y-68369844D01*
X167532000Y-68369827D01*
X167532000Y-67722000D01*
X166627572Y-67722000D01*
X166650682Y-67686040D01*
X166692000Y-67545327D01*
X166692000Y-67398673D01*
X166650682Y-67257960D01*
X166627572Y-67222000D01*
X167532000Y-67222000D01*
X167532000Y-66574172D01*
X167531999Y-66574155D01*
X167525598Y-66514627D01*
X167525596Y-66514620D01*
X167475354Y-66379913D01*
X167475352Y-66379910D01*
X167398110Y-66276729D01*
X167373692Y-66211265D01*
X167388543Y-66142992D01*
X167398105Y-66128111D01*
X167475796Y-66024331D01*
X167526091Y-65889483D01*
X167532500Y-65829873D01*
X167532500Y-65552003D01*
X171391723Y-65552003D01*
X171393688Y-65574470D01*
X171393862Y-65582660D01*
X171392709Y-65608324D01*
X171392710Y-65608328D01*
X171403641Y-65689031D01*
X171403966Y-65691949D01*
X171410792Y-65769972D01*
X171410795Y-65769987D01*
X171417482Y-65794941D01*
X171419034Y-65802670D01*
X171422924Y-65831381D01*
X171422926Y-65831392D01*
X171447075Y-65905713D01*
X171447997Y-65908825D01*
X171467423Y-65981324D01*
X171467427Y-65981336D01*
X171479736Y-66007732D01*
X171482512Y-66014779D01*
X171492483Y-66045464D01*
X171527970Y-66111411D01*
X171529558Y-66114576D01*
X171559898Y-66179639D01*
X171578490Y-66206191D01*
X171582303Y-66212378D01*
X171599146Y-66243678D01*
X171599152Y-66243687D01*
X171643792Y-66299663D01*
X171646106Y-66302758D01*
X171672510Y-66340465D01*
X171685402Y-66358877D01*
X171685405Y-66358880D01*
X171710646Y-66384121D01*
X171715283Y-66389309D01*
X171739492Y-66419666D01*
X171790959Y-66464632D01*
X171794008Y-66467483D01*
X171840116Y-66513592D01*
X171840122Y-66513597D01*
X171840123Y-66513598D01*
X171841434Y-66514516D01*
X171872055Y-66535957D01*
X171877290Y-66540057D01*
X171909004Y-66567765D01*
X171909013Y-66567771D01*
X171964849Y-66601131D01*
X171968613Y-66603568D01*
X172019359Y-66639101D01*
X172019364Y-66639104D01*
X172041917Y-66649620D01*
X172057677Y-66656969D01*
X172063271Y-66659935D01*
X172100349Y-66682088D01*
X172102236Y-66683215D01*
X172120828Y-66690192D01*
X172160083Y-66704925D01*
X172164503Y-66706782D01*
X172217670Y-66731575D01*
X172217674Y-66731577D01*
X172248069Y-66739720D01*
X172261677Y-66743366D01*
X172267413Y-66745207D01*
X172284264Y-66751531D01*
X172312976Y-66762307D01*
X172370545Y-66772754D01*
X172375511Y-66773868D01*
X172429023Y-66788207D01*
X172477689Y-66792464D01*
X172483306Y-66793218D01*
X172534453Y-66802500D01*
X172589691Y-66802500D01*
X172595092Y-66802735D01*
X172623548Y-66805225D01*
X172646998Y-66807277D01*
X172647000Y-66807277D01*
X172699992Y-66802640D01*
X172703121Y-66802500D01*
X172703155Y-66802500D01*
X172757172Y-66797638D01*
X172864977Y-66788207D01*
X172865000Y-66788200D01*
X172865475Y-66788117D01*
X172870713Y-66787419D01*
X172871188Y-66787377D01*
X172974997Y-66758726D01*
X173076330Y-66731575D01*
X173076337Y-66731571D01*
X173083254Y-66729053D01*
X173087948Y-66727554D01*
X173088170Y-66727493D01*
X173088181Y-66727487D01*
X173088183Y-66727487D01*
X173182454Y-66682088D01*
X173274639Y-66639102D01*
X173274644Y-66639097D01*
X173279327Y-66636395D01*
X173279400Y-66636522D01*
X173290164Y-66630218D01*
X173290973Y-66629829D01*
X173373156Y-66570118D01*
X173453877Y-66513598D01*
X173454747Y-66512727D01*
X173469550Y-66500084D01*
X173473078Y-66497522D01*
X173541131Y-66426343D01*
X173608598Y-66358877D01*
X173611285Y-66355039D01*
X173623239Y-66340465D01*
X173628629Y-66334828D01*
X173628628Y-66334828D01*
X173628632Y-66334825D01*
X173681164Y-66255241D01*
X173734102Y-66179639D01*
X173737543Y-66172259D01*
X173746432Y-66156364D01*
X173752635Y-66146968D01*
X173788889Y-66062146D01*
X173826575Y-65981330D01*
X173829570Y-65970148D01*
X173835325Y-65953505D01*
X173841103Y-65939988D01*
X173860936Y-65853092D01*
X173883207Y-65769977D01*
X173884887Y-65750766D01*
X173886206Y-65742377D01*
X173886445Y-65741325D01*
X173891191Y-65720537D01*
X173895050Y-65634602D01*
X173902277Y-65552003D01*
X176241723Y-65552003D01*
X176243688Y-65574470D01*
X176243862Y-65582660D01*
X176242709Y-65608324D01*
X176242710Y-65608328D01*
X176253641Y-65689031D01*
X176253966Y-65691949D01*
X176260792Y-65769972D01*
X176260795Y-65769987D01*
X176267482Y-65794941D01*
X176269034Y-65802670D01*
X176272924Y-65831381D01*
X176272926Y-65831392D01*
X176297075Y-65905713D01*
X176297997Y-65908825D01*
X176317423Y-65981324D01*
X176317427Y-65981336D01*
X176329736Y-66007732D01*
X176332512Y-66014779D01*
X176342483Y-66045464D01*
X176377970Y-66111411D01*
X176379558Y-66114576D01*
X176409898Y-66179639D01*
X176428490Y-66206191D01*
X176432303Y-66212378D01*
X176449146Y-66243678D01*
X176449152Y-66243687D01*
X176493792Y-66299663D01*
X176496106Y-66302758D01*
X176522510Y-66340465D01*
X176535402Y-66358877D01*
X176535405Y-66358880D01*
X176560646Y-66384121D01*
X176565283Y-66389309D01*
X176589492Y-66419666D01*
X176640959Y-66464632D01*
X176644008Y-66467483D01*
X176690116Y-66513592D01*
X176690122Y-66513597D01*
X176690123Y-66513598D01*
X176691434Y-66514516D01*
X176722055Y-66535957D01*
X176727290Y-66540057D01*
X176759004Y-66567765D01*
X176759013Y-66567771D01*
X176814849Y-66601131D01*
X176818613Y-66603568D01*
X176869359Y-66639101D01*
X176869364Y-66639104D01*
X176891917Y-66649620D01*
X176907677Y-66656969D01*
X176913271Y-66659935D01*
X176950349Y-66682088D01*
X176952236Y-66683215D01*
X176970828Y-66690192D01*
X177010083Y-66704925D01*
X177014503Y-66706782D01*
X177067670Y-66731575D01*
X177067674Y-66731577D01*
X177098069Y-66739720D01*
X177111677Y-66743366D01*
X177117413Y-66745207D01*
X177134264Y-66751531D01*
X177162976Y-66762307D01*
X177220545Y-66772754D01*
X177225511Y-66773868D01*
X177279023Y-66788207D01*
X177327689Y-66792464D01*
X177333306Y-66793218D01*
X177384453Y-66802500D01*
X177439691Y-66802500D01*
X177445092Y-66802735D01*
X177473548Y-66805225D01*
X177496998Y-66807277D01*
X177497000Y-66807277D01*
X177549992Y-66802640D01*
X177553121Y-66802500D01*
X177553155Y-66802500D01*
X177607172Y-66797638D01*
X177714977Y-66788207D01*
X177715000Y-66788200D01*
X177715475Y-66788117D01*
X177720713Y-66787419D01*
X177721188Y-66787377D01*
X177824997Y-66758726D01*
X177926330Y-66731575D01*
X177926337Y-66731571D01*
X177933254Y-66729053D01*
X177937948Y-66727554D01*
X177938170Y-66727493D01*
X177938181Y-66727487D01*
X177938183Y-66727487D01*
X178032454Y-66682088D01*
X178124639Y-66639102D01*
X178124644Y-66639097D01*
X178129327Y-66636395D01*
X178129400Y-66636522D01*
X178140164Y-66630218D01*
X178140973Y-66629829D01*
X178223156Y-66570118D01*
X178303877Y-66513598D01*
X178304747Y-66512727D01*
X178319550Y-66500084D01*
X178323078Y-66497522D01*
X178391131Y-66426343D01*
X178458598Y-66358877D01*
X178461285Y-66355039D01*
X178473239Y-66340465D01*
X178478629Y-66334828D01*
X178478628Y-66334828D01*
X178478632Y-66334825D01*
X178531164Y-66255241D01*
X178584102Y-66179639D01*
X178587543Y-66172259D01*
X178596432Y-66156364D01*
X178602635Y-66146968D01*
X178638889Y-66062146D01*
X178676575Y-65981330D01*
X178679570Y-65970148D01*
X178685325Y-65953505D01*
X178691103Y-65939988D01*
X178710936Y-65853092D01*
X178733207Y-65769977D01*
X178734887Y-65750766D01*
X178736206Y-65742377D01*
X178736445Y-65741325D01*
X178741191Y-65720537D01*
X178745050Y-65634602D01*
X178752277Y-65552000D01*
X178750310Y-65529528D01*
X178750137Y-65521334D01*
X178751290Y-65495670D01*
X178740353Y-65414939D01*
X178740034Y-65412067D01*
X178733207Y-65334023D01*
X178726515Y-65309053D01*
X178724963Y-65301322D01*
X178721076Y-65272618D01*
X178721075Y-65272616D01*
X178721075Y-65272613D01*
X178696921Y-65198276D01*
X178695998Y-65195161D01*
X178676576Y-65122673D01*
X178676574Y-65122669D01*
X178664266Y-65096274D01*
X178661488Y-65089222D01*
X178651519Y-65058541D01*
X178651517Y-65058537D01*
X178651517Y-65058536D01*
X178638988Y-65035253D01*
X178616027Y-64992583D01*
X178614432Y-64989405D01*
X178599338Y-64957036D01*
X178584102Y-64924362D01*
X178565512Y-64897813D01*
X178561698Y-64891625D01*
X178561359Y-64890995D01*
X178544852Y-64860319D01*
X178500192Y-64804318D01*
X178497896Y-64801247D01*
X178458598Y-64745123D01*
X178433353Y-64719878D01*
X178428715Y-64714689D01*
X178404506Y-64684332D01*
X178353039Y-64639366D01*
X178349990Y-64636515D01*
X178303878Y-64590402D01*
X178271940Y-64568039D01*
X178266705Y-64563939D01*
X178234996Y-64536235D01*
X178234994Y-64536233D01*
X178234992Y-64536232D01*
X178179149Y-64502868D01*
X178175386Y-64500431D01*
X178124641Y-64464899D01*
X178086333Y-64447035D01*
X178080735Y-64444067D01*
X178041769Y-64420787D01*
X178041767Y-64420786D01*
X177983928Y-64399079D01*
X177979515Y-64397226D01*
X177926330Y-64372425D01*
X177882321Y-64360632D01*
X177876581Y-64358790D01*
X177831025Y-64341692D01*
X177773456Y-64331245D01*
X177768480Y-64330128D01*
X177714977Y-64315793D01*
X177666327Y-64311536D01*
X177660659Y-64310775D01*
X177609551Y-64301500D01*
X177609547Y-64301500D01*
X177554309Y-64301500D01*
X177548907Y-64301264D01*
X177520451Y-64298774D01*
X177497002Y-64296723D01*
X177496997Y-64296723D01*
X177444050Y-64301355D01*
X177440862Y-64301499D01*
X177440851Y-64301500D01*
X177440845Y-64301500D01*
X177394671Y-64305655D01*
X177386826Y-64306361D01*
X177279020Y-64315793D01*
X177278468Y-64315891D01*
X177273275Y-64316581D01*
X177272812Y-64316622D01*
X177272809Y-64316623D01*
X177169002Y-64345273D01*
X177067659Y-64372428D01*
X177060739Y-64374946D01*
X177056050Y-64376444D01*
X177055849Y-64376499D01*
X177055832Y-64376505D01*
X176961528Y-64421919D01*
X176869358Y-64464899D01*
X176864670Y-64467606D01*
X176864598Y-64467481D01*
X176853871Y-64473764D01*
X176853030Y-64474168D01*
X176770831Y-64533889D01*
X176690123Y-64590401D01*
X176689241Y-64591284D01*
X176674461Y-64603906D01*
X176670928Y-64606472D01*
X176670916Y-64606483D01*
X176639477Y-64639366D01*
X176602868Y-64677656D01*
X176580379Y-64700144D01*
X176535403Y-64745120D01*
X176535402Y-64745121D01*
X176532711Y-64748965D01*
X176520773Y-64763521D01*
X176515368Y-64769174D01*
X176494476Y-64800822D01*
X176462828Y-64848768D01*
X176409898Y-64924362D01*
X176409891Y-64924374D01*
X176406457Y-64931738D01*
X176397572Y-64947628D01*
X176391362Y-64957035D01*
X176391362Y-64957036D01*
X176375189Y-64994876D01*
X176355108Y-65041858D01*
X176349221Y-65054483D01*
X176317425Y-65122669D01*
X176317424Y-65122671D01*
X176314425Y-65133860D01*
X176308681Y-65150475D01*
X176302899Y-65164005D01*
X176302896Y-65164016D01*
X176283063Y-65250907D01*
X176260793Y-65334022D01*
X176260793Y-65334023D01*
X176259112Y-65353226D01*
X176257793Y-65361625D01*
X176252809Y-65383459D01*
X176252809Y-65383464D01*
X176248949Y-65469397D01*
X176241723Y-65551996D01*
X176241723Y-65552003D01*
X173902277Y-65552003D01*
X173902277Y-65552000D01*
X173900310Y-65529528D01*
X173900137Y-65521334D01*
X173901290Y-65495670D01*
X173890353Y-65414939D01*
X173890034Y-65412067D01*
X173883207Y-65334023D01*
X173876515Y-65309053D01*
X173874963Y-65301322D01*
X173871076Y-65272618D01*
X173871075Y-65272616D01*
X173871075Y-65272613D01*
X173846921Y-65198276D01*
X173845998Y-65195161D01*
X173826576Y-65122673D01*
X173826574Y-65122669D01*
X173814266Y-65096274D01*
X173811488Y-65089222D01*
X173801519Y-65058541D01*
X173801517Y-65058537D01*
X173801517Y-65058536D01*
X173788988Y-65035253D01*
X173766027Y-64992583D01*
X173764432Y-64989405D01*
X173749338Y-64957036D01*
X173734102Y-64924362D01*
X173715512Y-64897813D01*
X173711698Y-64891625D01*
X173711359Y-64890995D01*
X173694852Y-64860319D01*
X173650192Y-64804318D01*
X173647896Y-64801247D01*
X173608598Y-64745123D01*
X173583353Y-64719878D01*
X173578715Y-64714689D01*
X173554506Y-64684332D01*
X173503039Y-64639366D01*
X173499990Y-64636515D01*
X173453878Y-64590402D01*
X173421940Y-64568039D01*
X173416705Y-64563939D01*
X173384996Y-64536235D01*
X173384994Y-64536233D01*
X173384992Y-64536232D01*
X173329149Y-64502868D01*
X173325386Y-64500431D01*
X173274641Y-64464899D01*
X173236333Y-64447035D01*
X173230735Y-64444067D01*
X173191769Y-64420787D01*
X173191767Y-64420786D01*
X173133928Y-64399079D01*
X173129515Y-64397226D01*
X173076330Y-64372425D01*
X173032321Y-64360632D01*
X173026581Y-64358790D01*
X172981025Y-64341692D01*
X172923456Y-64331245D01*
X172918480Y-64330128D01*
X172864977Y-64315793D01*
X172816327Y-64311536D01*
X172810659Y-64310775D01*
X172759551Y-64301500D01*
X172759547Y-64301500D01*
X172704309Y-64301500D01*
X172698907Y-64301264D01*
X172670451Y-64298774D01*
X172647002Y-64296723D01*
X172646997Y-64296723D01*
X172594050Y-64301355D01*
X172590862Y-64301499D01*
X172590851Y-64301500D01*
X172590845Y-64301500D01*
X172544671Y-64305655D01*
X172536826Y-64306361D01*
X172429020Y-64315793D01*
X172428468Y-64315891D01*
X172423275Y-64316581D01*
X172422812Y-64316622D01*
X172422809Y-64316623D01*
X172319002Y-64345273D01*
X172217659Y-64372428D01*
X172210739Y-64374946D01*
X172206050Y-64376444D01*
X172205849Y-64376499D01*
X172205832Y-64376505D01*
X172111528Y-64421919D01*
X172019358Y-64464899D01*
X172014670Y-64467606D01*
X172014598Y-64467481D01*
X172003871Y-64473764D01*
X172003030Y-64474168D01*
X171920831Y-64533889D01*
X171840123Y-64590401D01*
X171839241Y-64591284D01*
X171824461Y-64603906D01*
X171820928Y-64606472D01*
X171820916Y-64606483D01*
X171789477Y-64639366D01*
X171752868Y-64677656D01*
X171730379Y-64700144D01*
X171685403Y-64745120D01*
X171685402Y-64745121D01*
X171682711Y-64748965D01*
X171670773Y-64763521D01*
X171665368Y-64769174D01*
X171644476Y-64800822D01*
X171612828Y-64848768D01*
X171559898Y-64924362D01*
X171559891Y-64924374D01*
X171556457Y-64931738D01*
X171547572Y-64947628D01*
X171541362Y-64957035D01*
X171541362Y-64957036D01*
X171525189Y-64994876D01*
X171505108Y-65041858D01*
X171499221Y-65054483D01*
X171467425Y-65122669D01*
X171467424Y-65122671D01*
X171464425Y-65133860D01*
X171458681Y-65150475D01*
X171452899Y-65164005D01*
X171452896Y-65164016D01*
X171433063Y-65250907D01*
X171410793Y-65334022D01*
X171410793Y-65334023D01*
X171409112Y-65353226D01*
X171407793Y-65361625D01*
X171402809Y-65383459D01*
X171402809Y-65383464D01*
X171398949Y-65469397D01*
X171391723Y-65551996D01*
X171391723Y-65552003D01*
X167532500Y-65552003D01*
X167532499Y-64993677D01*
X167532735Y-64988272D01*
X167536292Y-64947628D01*
X167537659Y-64932000D01*
X167532734Y-64875722D01*
X167532499Y-64870319D01*
X167532499Y-64034129D01*
X167532498Y-64034123D01*
X167532497Y-64034116D01*
X167526091Y-63974517D01*
X167503178Y-63913085D01*
X167475797Y-63839671D01*
X167475795Y-63839668D01*
X167465011Y-63825262D01*
X167398421Y-63736309D01*
X167374004Y-63670848D01*
X167388855Y-63602575D01*
X167398416Y-63587696D01*
X167475796Y-63484331D01*
X167526091Y-63349483D01*
X167532500Y-63289873D01*
X167532499Y-62522000D01*
X170941700Y-62522000D01*
X170947289Y-62589454D01*
X170948955Y-62609567D01*
X170952819Y-62700523D01*
X170952820Y-62700534D01*
X170957939Y-62724284D01*
X170959120Y-62732233D01*
X170960865Y-62753301D01*
X170960865Y-62753304D01*
X170960866Y-62753305D01*
X170977925Y-62820671D01*
X170983205Y-62841519D01*
X171003046Y-62933582D01*
X171010883Y-62953084D01*
X171013458Y-62960987D01*
X171017844Y-62978303D01*
X171055655Y-63064504D01*
X171091934Y-63154787D01*
X171091935Y-63154788D01*
X171101232Y-63169888D01*
X171105218Y-63177495D01*
X171111076Y-63190850D01*
X171164275Y-63272277D01*
X171216930Y-63357794D01*
X171223543Y-63365308D01*
X171234263Y-63379402D01*
X171236738Y-63383189D01*
X171238021Y-63385153D01*
X171306027Y-63459028D01*
X171374436Y-63536755D01*
X171379564Y-63540895D01*
X171392882Y-63553377D01*
X171395216Y-63555913D01*
X171476933Y-63619515D01*
X171559920Y-63686523D01*
X171559922Y-63686524D01*
X171562678Y-63688064D01*
X171578360Y-63698460D01*
X171578367Y-63698465D01*
X171578371Y-63698467D01*
X171578374Y-63698470D01*
X171626389Y-63724454D01*
X171672162Y-63749225D01*
X171768046Y-63802790D01*
X171770849Y-63804058D01*
X171777695Y-63807097D01*
X171777794Y-63806873D01*
X171782490Y-63808932D01*
X171782497Y-63808936D01*
X171886276Y-63844563D01*
X171992829Y-63882211D01*
X171993398Y-63882308D01*
X171998129Y-63883312D01*
X172002007Y-63884294D01*
X172002019Y-63884298D01*
X172113324Y-63902871D01*
X172227791Y-63922499D01*
X172227800Y-63922500D01*
X172463044Y-63922500D01*
X172463049Y-63922500D01*
X172496073Y-63916988D01*
X172519469Y-63913085D01*
X172524407Y-63912463D01*
X172584541Y-63907346D01*
X172636615Y-63893786D01*
X172642017Y-63892634D01*
X172691981Y-63884298D01*
X172749186Y-63864658D01*
X172753663Y-63863309D01*
X172815249Y-63847275D01*
X172821249Y-63844563D01*
X172826262Y-63842296D01*
X172861297Y-63826459D01*
X172866681Y-63824322D01*
X172911503Y-63808936D01*
X172967554Y-63778601D01*
X172971527Y-63776632D01*
X172980156Y-63772730D01*
X173032486Y-63749077D01*
X173071647Y-63722608D01*
X173076820Y-63719469D01*
X173115626Y-63698470D01*
X173168532Y-63657290D01*
X173171850Y-63654881D01*
X173230003Y-63615579D01*
X173261770Y-63585131D01*
X173266548Y-63581002D01*
X173298784Y-63555913D01*
X173301109Y-63553388D01*
X173316420Y-63536755D01*
X173346389Y-63504198D01*
X173349101Y-63501432D01*
X173402118Y-63450621D01*
X173426329Y-63417883D01*
X173430540Y-63412785D01*
X173455979Y-63385153D01*
X173496206Y-63323578D01*
X173498241Y-63320652D01*
X173543879Y-63258947D01*
X173560733Y-63225517D01*
X173564170Y-63219552D01*
X173582924Y-63190849D01*
X173613805Y-63120445D01*
X173615174Y-63117538D01*
X173651207Y-63046074D01*
X173661208Y-63013413D01*
X173663701Y-63006694D01*
X173676157Y-62978300D01*
X173695827Y-62900621D01*
X173696635Y-62897732D01*
X173721016Y-62818123D01*
X173724936Y-62787508D01*
X173726330Y-62780170D01*
X173733134Y-62753305D01*
X173740132Y-62668845D01*
X173751298Y-62581654D01*
X173750126Y-62554079D01*
X173750281Y-62546355D01*
X173752300Y-62522000D01*
X176391700Y-62522000D01*
X176397289Y-62589454D01*
X176398955Y-62609567D01*
X176402819Y-62700523D01*
X176402820Y-62700534D01*
X176407939Y-62724284D01*
X176409120Y-62732233D01*
X176410865Y-62753301D01*
X176410865Y-62753304D01*
X176410866Y-62753305D01*
X176427925Y-62820671D01*
X176433205Y-62841519D01*
X176453046Y-62933582D01*
X176460883Y-62953084D01*
X176463458Y-62960987D01*
X176467844Y-62978303D01*
X176505655Y-63064504D01*
X176541934Y-63154787D01*
X176541935Y-63154788D01*
X176551232Y-63169888D01*
X176555218Y-63177495D01*
X176561076Y-63190850D01*
X176614275Y-63272277D01*
X176666930Y-63357794D01*
X176673543Y-63365308D01*
X176684263Y-63379402D01*
X176686738Y-63383189D01*
X176688021Y-63385153D01*
X176756027Y-63459028D01*
X176824436Y-63536755D01*
X176829564Y-63540895D01*
X176842882Y-63553377D01*
X176845216Y-63555913D01*
X176926933Y-63619515D01*
X177009920Y-63686523D01*
X177009922Y-63686524D01*
X177012678Y-63688064D01*
X177028360Y-63698460D01*
X177028367Y-63698465D01*
X177028371Y-63698467D01*
X177028374Y-63698470D01*
X177076389Y-63724454D01*
X177122162Y-63749225D01*
X177218046Y-63802790D01*
X177220849Y-63804058D01*
X177227695Y-63807097D01*
X177227794Y-63806873D01*
X177232490Y-63808932D01*
X177232497Y-63808936D01*
X177336276Y-63844563D01*
X177442829Y-63882211D01*
X177443398Y-63882308D01*
X177448129Y-63883312D01*
X177452007Y-63884294D01*
X177452019Y-63884298D01*
X177563324Y-63902871D01*
X177677791Y-63922499D01*
X177677800Y-63922500D01*
X177913044Y-63922500D01*
X177913049Y-63922500D01*
X177946073Y-63916988D01*
X177969469Y-63913085D01*
X177974407Y-63912463D01*
X178034541Y-63907346D01*
X178086615Y-63893786D01*
X178092017Y-63892634D01*
X178141981Y-63884298D01*
X178199186Y-63864658D01*
X178203663Y-63863309D01*
X178265249Y-63847275D01*
X178271249Y-63844563D01*
X178276262Y-63842296D01*
X178311297Y-63826459D01*
X178316681Y-63824322D01*
X178361503Y-63808936D01*
X178417554Y-63778601D01*
X178421527Y-63776632D01*
X178430156Y-63772730D01*
X178482486Y-63749077D01*
X178521647Y-63722608D01*
X178526820Y-63719469D01*
X178565626Y-63698470D01*
X178618532Y-63657290D01*
X178621850Y-63654881D01*
X178680003Y-63615579D01*
X178711770Y-63585131D01*
X178716548Y-63581002D01*
X178748784Y-63555913D01*
X178751109Y-63553388D01*
X178766420Y-63536755D01*
X178796389Y-63504198D01*
X178799101Y-63501432D01*
X178852118Y-63450621D01*
X178876329Y-63417883D01*
X178880540Y-63412785D01*
X178905979Y-63385153D01*
X178946206Y-63323578D01*
X178948241Y-63320652D01*
X178993879Y-63258947D01*
X179010733Y-63225517D01*
X179014170Y-63219552D01*
X179032924Y-63190849D01*
X179063805Y-63120445D01*
X179065174Y-63117538D01*
X179101207Y-63046074D01*
X179111208Y-63013413D01*
X179113701Y-63006694D01*
X179126157Y-62978300D01*
X179145827Y-62900621D01*
X179146635Y-62897732D01*
X179171016Y-62818123D01*
X179174936Y-62787508D01*
X179176330Y-62780170D01*
X179183134Y-62753305D01*
X179190132Y-62668845D01*
X179201298Y-62581654D01*
X179200126Y-62554079D01*
X179200281Y-62546355D01*
X179202300Y-62522000D01*
X179200742Y-62503202D01*
X179195044Y-62434432D01*
X179191180Y-62343468D01*
X179186059Y-62319709D01*
X179184879Y-62311762D01*
X179183134Y-62290695D01*
X179183133Y-62290692D01*
X179183133Y-62290688D01*
X179160794Y-62202480D01*
X179148682Y-62146279D01*
X179140954Y-62110419D01*
X179133115Y-62090912D01*
X179130541Y-62083015D01*
X179126157Y-62065700D01*
X179088344Y-61979495D01*
X179052064Y-61889210D01*
X179042768Y-61874112D01*
X179038779Y-61866500D01*
X179032924Y-61853151D01*
X178979724Y-61771721D01*
X178927071Y-61686208D01*
X178927070Y-61686207D01*
X178927069Y-61686205D01*
X178920451Y-61678686D01*
X178909727Y-61664584D01*
X178905978Y-61658845D01*
X178837972Y-61584971D01*
X178769565Y-61507246D01*
X178764439Y-61503107D01*
X178751117Y-61490621D01*
X178748785Y-61488088D01*
X178748783Y-61488086D01*
X178667066Y-61424484D01*
X178584080Y-61357477D01*
X178584073Y-61357472D01*
X178581311Y-61355929D01*
X178565643Y-61345542D01*
X178565634Y-61345535D01*
X178565628Y-61345532D01*
X178565626Y-61345530D01*
X178471837Y-61294774D01*
X178375954Y-61241210D01*
X178375953Y-61241209D01*
X178375952Y-61241209D01*
X178373381Y-61240047D01*
X178366284Y-61236898D01*
X178366188Y-61237119D01*
X178361506Y-61235065D01*
X178257723Y-61199436D01*
X178215322Y-61184455D01*
X178151171Y-61161789D01*
X178151170Y-61161788D01*
X178151168Y-61161788D01*
X178151160Y-61161786D01*
X178150612Y-61161692D01*
X178145889Y-61160691D01*
X178141989Y-61159703D01*
X178030675Y-61141128D01*
X177916209Y-61121500D01*
X177916200Y-61121500D01*
X177913049Y-61121500D01*
X177680951Y-61121500D01*
X177680950Y-61121500D01*
X177624533Y-61130913D01*
X177619587Y-61131535D01*
X177617099Y-61131747D01*
X177559469Y-61136652D01*
X177559461Y-61136653D01*
X177507397Y-61150208D01*
X177501981Y-61151363D01*
X177452013Y-61159703D01*
X177394840Y-61179331D01*
X177390330Y-61180690D01*
X177328749Y-61196725D01*
X177328744Y-61196727D01*
X177282711Y-61217535D01*
X177277304Y-61219680D01*
X177232503Y-61235060D01*
X177232498Y-61235063D01*
X177176448Y-61265395D01*
X177172478Y-61267363D01*
X177111514Y-61294922D01*
X177072359Y-61321385D01*
X177067149Y-61324544D01*
X177028379Y-61345526D01*
X177028367Y-61345533D01*
X176975487Y-61386692D01*
X176972124Y-61389133D01*
X176914001Y-61428417D01*
X176913994Y-61428422D01*
X176882248Y-61458847D01*
X176877430Y-61463011D01*
X176845218Y-61488085D01*
X176845209Y-61488093D01*
X176797613Y-61539795D01*
X176794900Y-61542564D01*
X176741882Y-61593378D01*
X176741880Y-61593380D01*
X176717681Y-61626098D01*
X176713448Y-61631223D01*
X176688022Y-61658845D01*
X176647797Y-61720412D01*
X176645741Y-61723367D01*
X176600124Y-61785047D01*
X176600120Y-61785054D01*
X176583268Y-61818475D01*
X176579811Y-61824472D01*
X176561076Y-61853149D01*
X176530219Y-61923496D01*
X176528803Y-61926503D01*
X176492790Y-61997931D01*
X176482792Y-62030573D01*
X176480288Y-62037323D01*
X176467845Y-62065691D01*
X176467845Y-62065692D01*
X176448178Y-62143347D01*
X176447358Y-62146279D01*
X176422984Y-62225876D01*
X176422983Y-62225879D01*
X176419063Y-62256485D01*
X176417668Y-62263830D01*
X176410867Y-62290688D01*
X176410864Y-62290705D01*
X176403867Y-62375154D01*
X176392702Y-62462344D01*
X176392701Y-62462344D01*
X176393872Y-62489900D01*
X176393716Y-62497655D01*
X176391700Y-62521995D01*
X176391700Y-62522000D01*
X173752300Y-62522000D01*
X173750742Y-62503202D01*
X173745044Y-62434432D01*
X173741180Y-62343468D01*
X173736059Y-62319709D01*
X173734879Y-62311762D01*
X173733134Y-62290695D01*
X173733133Y-62290692D01*
X173733133Y-62290688D01*
X173710794Y-62202480D01*
X173698682Y-62146279D01*
X173690954Y-62110419D01*
X173683115Y-62090912D01*
X173680541Y-62083015D01*
X173676157Y-62065700D01*
X173638344Y-61979495D01*
X173602064Y-61889210D01*
X173592768Y-61874112D01*
X173588779Y-61866500D01*
X173582924Y-61853151D01*
X173529724Y-61771721D01*
X173477071Y-61686208D01*
X173477070Y-61686207D01*
X173477069Y-61686205D01*
X173470451Y-61678686D01*
X173459727Y-61664584D01*
X173455978Y-61658845D01*
X173387972Y-61584971D01*
X173319565Y-61507246D01*
X173314439Y-61503107D01*
X173301117Y-61490621D01*
X173298785Y-61488088D01*
X173298783Y-61488086D01*
X173217066Y-61424484D01*
X173134080Y-61357477D01*
X173134073Y-61357472D01*
X173131311Y-61355929D01*
X173115643Y-61345542D01*
X173115634Y-61345535D01*
X173115628Y-61345532D01*
X173115626Y-61345530D01*
X173021837Y-61294774D01*
X172925954Y-61241210D01*
X172925953Y-61241209D01*
X172925952Y-61241209D01*
X172923381Y-61240047D01*
X172916284Y-61236898D01*
X172916188Y-61237119D01*
X172911506Y-61235065D01*
X172807723Y-61199436D01*
X172765322Y-61184455D01*
X172701171Y-61161789D01*
X172701170Y-61161788D01*
X172701168Y-61161788D01*
X172701160Y-61161786D01*
X172700612Y-61161692D01*
X172695889Y-61160691D01*
X172691989Y-61159703D01*
X172580675Y-61141128D01*
X172466209Y-61121500D01*
X172466200Y-61121500D01*
X172463049Y-61121500D01*
X172230951Y-61121500D01*
X172230950Y-61121500D01*
X172174533Y-61130913D01*
X172169587Y-61131535D01*
X172167099Y-61131747D01*
X172109469Y-61136652D01*
X172109461Y-61136653D01*
X172057397Y-61150208D01*
X172051981Y-61151363D01*
X172002013Y-61159703D01*
X171944840Y-61179331D01*
X171940330Y-61180690D01*
X171878749Y-61196725D01*
X171878744Y-61196727D01*
X171832711Y-61217535D01*
X171827304Y-61219680D01*
X171782503Y-61235060D01*
X171782498Y-61235063D01*
X171726448Y-61265395D01*
X171722478Y-61267363D01*
X171661514Y-61294922D01*
X171622359Y-61321385D01*
X171617149Y-61324544D01*
X171578379Y-61345526D01*
X171578367Y-61345533D01*
X171525487Y-61386692D01*
X171522124Y-61389133D01*
X171464001Y-61428417D01*
X171463994Y-61428422D01*
X171432248Y-61458847D01*
X171427430Y-61463011D01*
X171395218Y-61488085D01*
X171395209Y-61488093D01*
X171347613Y-61539795D01*
X171344900Y-61542564D01*
X171291882Y-61593378D01*
X171291880Y-61593380D01*
X171267681Y-61626098D01*
X171263448Y-61631223D01*
X171238022Y-61658845D01*
X171197797Y-61720412D01*
X171195741Y-61723367D01*
X171150124Y-61785047D01*
X171150120Y-61785054D01*
X171133268Y-61818475D01*
X171129811Y-61824472D01*
X171111076Y-61853149D01*
X171080219Y-61923496D01*
X171078803Y-61926503D01*
X171042790Y-61997931D01*
X171032792Y-62030573D01*
X171030288Y-62037323D01*
X171017845Y-62065691D01*
X171017845Y-62065692D01*
X170998178Y-62143347D01*
X170997358Y-62146279D01*
X170972984Y-62225876D01*
X170972983Y-62225879D01*
X170969063Y-62256485D01*
X170967668Y-62263830D01*
X170960867Y-62290688D01*
X170960864Y-62290705D01*
X170953867Y-62375154D01*
X170942702Y-62462344D01*
X170942701Y-62462344D01*
X170943872Y-62489900D01*
X170943716Y-62497655D01*
X170941700Y-62521995D01*
X170941700Y-62522000D01*
X167532499Y-62522000D01*
X167532499Y-62453677D01*
X167532735Y-62448272D01*
X167537659Y-62392000D01*
X167537659Y-62391999D01*
X167533413Y-62343474D01*
X167532734Y-62335722D01*
X167532499Y-62330319D01*
X167532499Y-61494129D01*
X167532498Y-61494123D01*
X167532497Y-61494116D01*
X167526091Y-61434517D01*
X167523817Y-61428421D01*
X167475797Y-61299671D01*
X167475793Y-61299664D01*
X167389547Y-61184455D01*
X167389544Y-61184452D01*
X167274335Y-61098206D01*
X167274328Y-61098202D01*
X167139482Y-61047908D01*
X167139483Y-61047908D01*
X167079883Y-61041501D01*
X167079881Y-61041500D01*
X167079873Y-61041500D01*
X167079865Y-61041500D01*
X166243674Y-61041500D01*
X166238272Y-61041264D01*
X166198117Y-61037751D01*
X166182001Y-61036341D01*
X166181998Y-61036341D01*
X166148895Y-61039237D01*
X166125726Y-61041264D01*
X166120323Y-61041500D01*
X163484129Y-61041500D01*
X163484123Y-61041501D01*
X163424516Y-61047908D01*
X163289671Y-61098202D01*
X163289664Y-61098206D01*
X163174455Y-61184452D01*
X163174452Y-61184455D01*
X163088206Y-61299664D01*
X163088202Y-61299671D01*
X163037908Y-61434517D01*
X163031877Y-61490621D01*
X163031501Y-61494123D01*
X163031500Y-61494135D01*
X163031500Y-63289870D01*
X163031501Y-63289876D01*
X163037908Y-63349483D01*
X163088202Y-63484328D01*
X163088203Y-63484330D01*
X163165578Y-63587689D01*
X163189995Y-63653153D01*
X163175144Y-63721426D01*
X163165578Y-63736311D01*
X163088203Y-63839669D01*
X163088202Y-63839671D01*
X163037908Y-63974517D01*
X163031501Y-64034116D01*
X163031501Y-64034123D01*
X163031500Y-64034135D01*
X163031500Y-65829870D01*
X163031501Y-65829876D01*
X163037908Y-65889483D01*
X163088202Y-66024328D01*
X163088206Y-66024335D01*
X163165889Y-66128105D01*
X163190307Y-66193569D01*
X163175456Y-66261842D01*
X163165890Y-66276727D01*
X163088647Y-66379910D01*
X163088645Y-66379913D01*
X163038403Y-66514620D01*
X163038401Y-66514627D01*
X163032000Y-66574155D01*
X163032000Y-67222000D01*
X165736428Y-67222000D01*
X165713318Y-67257960D01*
X165672000Y-67398673D01*
X165672000Y-67545327D01*
X165713318Y-67686040D01*
X165736428Y-67722000D01*
X163032000Y-67722000D01*
X163032000Y-68369844D01*
X163038401Y-68429372D01*
X163038403Y-68429379D01*
X163088645Y-68564086D01*
X163088646Y-68564088D01*
X163165890Y-68667272D01*
X163190307Y-68732736D01*
X163175456Y-68801009D01*
X163165890Y-68815894D01*
X163088204Y-68919669D01*
X163088202Y-68919671D01*
X163037908Y-69054517D01*
X163031501Y-69114116D01*
X163031501Y-69114123D01*
X163031500Y-69114135D01*
X163031500Y-70909870D01*
X163031501Y-70909876D01*
X163037908Y-70969483D01*
X163088202Y-71104328D01*
X163088203Y-71104330D01*
X163165578Y-71207689D01*
X163189995Y-71273153D01*
X163175144Y-71341426D01*
X163165578Y-71356311D01*
X163088203Y-71459669D01*
X163088202Y-71459671D01*
X163037908Y-71594517D01*
X163031501Y-71654116D01*
X163031501Y-71654123D01*
X163031500Y-71654135D01*
X163031500Y-73449870D01*
X163031501Y-73449876D01*
X163037908Y-73509483D01*
X163088202Y-73644328D01*
X163088203Y-73644330D01*
X163165578Y-73747689D01*
X163189995Y-73813153D01*
X163175144Y-73881426D01*
X163165578Y-73896311D01*
X163088203Y-73999669D01*
X163088202Y-73999671D01*
X163037908Y-74134517D01*
X163031501Y-74194116D01*
X163031501Y-74194123D01*
X163031500Y-74194135D01*
X163031500Y-75989870D01*
X163031501Y-75989876D01*
X163037908Y-76049483D01*
X163088202Y-76184328D01*
X163088203Y-76184330D01*
X163165578Y-76287689D01*
X163189995Y-76353153D01*
X163175144Y-76421426D01*
X163165578Y-76436311D01*
X163088203Y-76539669D01*
X163088202Y-76539671D01*
X163037908Y-76674517D01*
X163031501Y-76734116D01*
X163031501Y-76734123D01*
X163031500Y-76734135D01*
X163031500Y-78529870D01*
X163031501Y-78529876D01*
X163037908Y-78589483D01*
X163088202Y-78724328D01*
X163088206Y-78724335D01*
X163165889Y-78828105D01*
X163190307Y-78893569D01*
X163175456Y-78961842D01*
X163165890Y-78976727D01*
X163088647Y-79079910D01*
X163088645Y-79079913D01*
X163038403Y-79214620D01*
X163038401Y-79214627D01*
X163032000Y-79274155D01*
X163032000Y-79922000D01*
X165736428Y-79922000D01*
X165713318Y-79957960D01*
X165672000Y-80098673D01*
X165672000Y-80245327D01*
X165713318Y-80386040D01*
X165736428Y-80422000D01*
X163032000Y-80422000D01*
X163032000Y-81069844D01*
X163038401Y-81129372D01*
X163038403Y-81129379D01*
X163088645Y-81264086D01*
X163088646Y-81264088D01*
X163165890Y-81367272D01*
X163190307Y-81432736D01*
X163175456Y-81501009D01*
X163165890Y-81515894D01*
X163088204Y-81619669D01*
X163088202Y-81619671D01*
X163037908Y-81754517D01*
X163031501Y-81814116D01*
X163031501Y-81814123D01*
X163031500Y-81814135D01*
X163031500Y-83609870D01*
X163031501Y-83609876D01*
X163037908Y-83669483D01*
X163088202Y-83804328D01*
X163088203Y-83804330D01*
X163165578Y-83907689D01*
X163189995Y-83973153D01*
X163175144Y-84041426D01*
X163165578Y-84056311D01*
X163088203Y-84159669D01*
X163088202Y-84159671D01*
X163037908Y-84294517D01*
X163031501Y-84354116D01*
X163031501Y-84354123D01*
X163031500Y-84354135D01*
X163031500Y-86149870D01*
X163031501Y-86149876D01*
X163037908Y-86209483D01*
X163088202Y-86344328D01*
X163088203Y-86344330D01*
X163165578Y-86447689D01*
X163189995Y-86513153D01*
X163175144Y-86581426D01*
X163165578Y-86596311D01*
X163088203Y-86699669D01*
X163088202Y-86699671D01*
X163037908Y-86834517D01*
X163031501Y-86894116D01*
X163031501Y-86894123D01*
X163031500Y-86894135D01*
X163031500Y-88689870D01*
X163031501Y-88689876D01*
X163037908Y-88749483D01*
X163088202Y-88884328D01*
X163088203Y-88884330D01*
X163165578Y-88987689D01*
X163189995Y-89053153D01*
X163175144Y-89121426D01*
X163165578Y-89136311D01*
X163088203Y-89239669D01*
X163088202Y-89239671D01*
X163037908Y-89374517D01*
X163031501Y-89434116D01*
X163031501Y-89434123D01*
X163031500Y-89434135D01*
X163031500Y-91229870D01*
X163031501Y-91229876D01*
X163037908Y-91289483D01*
X163088202Y-91424328D01*
X163088206Y-91424335D01*
X163165889Y-91528105D01*
X163190307Y-91593569D01*
X163175456Y-91661842D01*
X163165890Y-91676727D01*
X163088647Y-91779910D01*
X163088645Y-91779913D01*
X163038403Y-91914620D01*
X163038401Y-91914627D01*
X163032000Y-91974155D01*
X163032000Y-92622000D01*
X165736428Y-92622000D01*
X165713318Y-92657960D01*
X165672000Y-92798673D01*
X165672000Y-92945327D01*
X165713318Y-93086040D01*
X165736428Y-93122000D01*
X163032000Y-93122000D01*
X163032000Y-93769844D01*
X163038401Y-93829372D01*
X163038403Y-93829379D01*
X163088645Y-93964086D01*
X163088646Y-93964088D01*
X163165890Y-94067272D01*
X163190307Y-94132736D01*
X163175456Y-94201009D01*
X163165890Y-94215894D01*
X163088204Y-94319669D01*
X163088202Y-94319671D01*
X163037908Y-94454517D01*
X163031501Y-94514116D01*
X163031501Y-94514123D01*
X163031500Y-94514135D01*
X163031500Y-96309870D01*
X163031501Y-96309876D01*
X163037908Y-96369483D01*
X163088202Y-96504328D01*
X163088203Y-96504330D01*
X163165578Y-96607689D01*
X163189995Y-96673153D01*
X163175144Y-96741426D01*
X163165578Y-96756311D01*
X163088203Y-96859669D01*
X163088202Y-96859671D01*
X163037908Y-96994517D01*
X163033230Y-97038032D01*
X163031501Y-97054123D01*
X163031500Y-97054135D01*
X163031500Y-98849870D01*
X163031501Y-98849876D01*
X163037908Y-98909483D01*
X163088202Y-99044328D01*
X163088203Y-99044330D01*
X163165578Y-99147689D01*
X163189995Y-99213153D01*
X163175144Y-99281426D01*
X163165578Y-99296311D01*
X163088203Y-99399669D01*
X163088202Y-99399671D01*
X163037908Y-99534517D01*
X163031501Y-99594116D01*
X163031501Y-99594123D01*
X163031500Y-99594135D01*
X163031500Y-101389870D01*
X163031501Y-101389876D01*
X163037908Y-101449483D01*
X163088202Y-101584328D01*
X163088203Y-101584330D01*
X163165578Y-101687689D01*
X163189995Y-101753153D01*
X163175144Y-101821426D01*
X163165578Y-101836311D01*
X163088203Y-101939669D01*
X163088202Y-101939671D01*
X163037908Y-102074517D01*
X163031501Y-102134116D01*
X163031501Y-102134123D01*
X163031500Y-102134135D01*
X163031500Y-103929870D01*
X163031501Y-103929876D01*
X163037908Y-103989483D01*
X163088202Y-104124328D01*
X163088206Y-104124335D01*
X163165889Y-104228105D01*
X163190307Y-104293569D01*
X163175456Y-104361842D01*
X163165890Y-104376727D01*
X163088647Y-104479910D01*
X163088645Y-104479913D01*
X163038403Y-104614620D01*
X163038401Y-104614627D01*
X163032000Y-104674155D01*
X163032000Y-105322000D01*
X165736428Y-105322000D01*
X165713318Y-105357960D01*
X165672000Y-105498673D01*
X165672000Y-105645327D01*
X165713318Y-105786040D01*
X165736428Y-105822000D01*
X163032000Y-105822000D01*
X163032000Y-106469844D01*
X163038401Y-106529372D01*
X163038403Y-106529379D01*
X163088645Y-106664086D01*
X163088646Y-106664088D01*
X163165890Y-106767272D01*
X163190307Y-106832736D01*
X163175456Y-106901009D01*
X163165890Y-106915894D01*
X163088204Y-107019669D01*
X163088202Y-107019671D01*
X163037908Y-107154517D01*
X163031501Y-107214116D01*
X163031501Y-107214123D01*
X163031500Y-107214135D01*
X163031500Y-109009870D01*
X163031501Y-109009876D01*
X163037908Y-109069483D01*
X163088202Y-109204328D01*
X163088203Y-109204330D01*
X163165578Y-109307689D01*
X163189995Y-109373153D01*
X163175144Y-109441426D01*
X163165578Y-109456311D01*
X163088203Y-109559669D01*
X163088202Y-109559671D01*
X163037908Y-109694517D01*
X163031501Y-109754116D01*
X163031501Y-109754123D01*
X163031500Y-109754135D01*
X163031500Y-111549870D01*
X152779184Y-111549870D01*
X152693116Y-111330573D01*
X152693117Y-111330573D01*
X152561971Y-111103426D01*
X152514125Y-111043427D01*
X151789195Y-111768357D01*
X151765941Y-111714447D01*
X151661244Y-111573815D01*
X151526938Y-111461118D01*
X151435333Y-111415112D01*
X152161167Y-110689278D01*
X151989447Y-110572202D01*
X151989445Y-110572201D01*
X151753142Y-110458404D01*
X151753144Y-110458404D01*
X151502505Y-110381092D01*
X151502499Y-110381090D01*
X151243151Y-110342000D01*
X150980848Y-110342000D01*
X150721500Y-110381090D01*
X150721494Y-110381092D01*
X150470858Y-110458404D01*
X150470854Y-110458405D01*
X150234550Y-110572204D01*
X150234546Y-110572206D01*
X150062832Y-110689278D01*
X150786055Y-111412501D01*
X150773109Y-111417213D01*
X150626627Y-111513555D01*
X150506312Y-111641082D01*
X150433552Y-111767106D01*
X149709873Y-111043427D01*
X149662029Y-111103423D01*
X149530883Y-111330573D01*
X149435058Y-111574729D01*
X149376693Y-111830449D01*
X149376692Y-111830454D01*
X149357093Y-112091995D01*
X149357093Y-112092004D01*
X133816907Y-112092004D01*
X133816907Y-112091995D01*
X133797307Y-111830454D01*
X133797306Y-111830449D01*
X133738941Y-111574729D01*
X133643116Y-111330573D01*
X133643117Y-111330573D01*
X133511971Y-111103426D01*
X133464125Y-111043427D01*
X132739195Y-111768357D01*
X132715941Y-111714447D01*
X132611244Y-111573815D01*
X132476938Y-111461118D01*
X132385333Y-111415112D01*
X133111167Y-110689278D01*
X132939447Y-110572202D01*
X132939445Y-110572201D01*
X132703142Y-110458404D01*
X132703144Y-110458404D01*
X132452505Y-110381092D01*
X132452499Y-110381090D01*
X132193151Y-110342000D01*
X131930848Y-110342000D01*
X131671500Y-110381090D01*
X131671494Y-110381092D01*
X131420858Y-110458404D01*
X131420854Y-110458405D01*
X131184550Y-110572204D01*
X131184546Y-110572206D01*
X131012832Y-110689278D01*
X131736055Y-111412501D01*
X131723109Y-111417213D01*
X131576627Y-111513555D01*
X131456312Y-111641082D01*
X131383552Y-111767105D01*
X130659873Y-111043427D01*
X130612029Y-111103423D01*
X130480883Y-111330573D01*
X130385058Y-111574729D01*
X130326693Y-111830449D01*
X130326692Y-111830454D01*
X130307093Y-112091995D01*
X130307093Y-112092004D01*
X114766907Y-112092004D01*
X114766907Y-112091995D01*
X114747307Y-111830454D01*
X114747306Y-111830449D01*
X114688941Y-111574729D01*
X114593116Y-111330573D01*
X114593117Y-111330573D01*
X114461971Y-111103426D01*
X114414125Y-111043427D01*
X113689195Y-111768357D01*
X113665941Y-111714447D01*
X113561244Y-111573815D01*
X113426938Y-111461118D01*
X113335333Y-111415112D01*
X114061167Y-110689278D01*
X113889447Y-110572202D01*
X113889445Y-110572201D01*
X113653142Y-110458404D01*
X113653144Y-110458404D01*
X113402505Y-110381092D01*
X113402499Y-110381090D01*
X113143151Y-110342000D01*
X112880848Y-110342000D01*
X112621500Y-110381090D01*
X112621494Y-110381092D01*
X112370858Y-110458404D01*
X112370854Y-110458405D01*
X112134550Y-110572204D01*
X112134546Y-110572206D01*
X111962832Y-110689278D01*
X112686055Y-111412501D01*
X112673109Y-111417213D01*
X112526627Y-111513555D01*
X112406312Y-111641082D01*
X112333552Y-111767106D01*
X111609873Y-111043427D01*
X111562029Y-111103423D01*
X111430883Y-111330573D01*
X111335058Y-111574729D01*
X111276693Y-111830449D01*
X111276692Y-111830454D01*
X111257093Y-112091995D01*
X111257093Y-112092004D01*
X80772500Y-112092004D01*
X80772500Y-102344870D01*
X88796500Y-102344870D01*
X88796501Y-102344876D01*
X88802908Y-102404483D01*
X88853202Y-102539328D01*
X88853206Y-102539335D01*
X88939452Y-102654544D01*
X88939455Y-102654547D01*
X89054664Y-102740793D01*
X89054671Y-102740797D01*
X89189517Y-102791091D01*
X89189516Y-102791091D01*
X89196444Y-102791835D01*
X89249127Y-102797500D01*
X92544872Y-102797499D01*
X92604483Y-102791091D01*
X92739331Y-102740796D01*
X92854546Y-102654546D01*
X92940796Y-102539331D01*
X92991091Y-102404483D01*
X92997500Y-102344873D01*
X92997499Y-100249128D01*
X92991091Y-100189517D01*
X92970797Y-100135107D01*
X92940797Y-100054671D01*
X92940793Y-100054664D01*
X92854547Y-99939455D01*
X92854544Y-99939452D01*
X92739335Y-99853206D01*
X92739328Y-99853202D01*
X92604482Y-99802908D01*
X92604483Y-99802908D01*
X92544883Y-99796501D01*
X92544881Y-99796500D01*
X92544873Y-99796500D01*
X92544864Y-99796500D01*
X89249129Y-99796500D01*
X89249123Y-99796501D01*
X89189516Y-99802908D01*
X89054671Y-99853202D01*
X89054664Y-99853206D01*
X88939455Y-99939452D01*
X88939452Y-99939455D01*
X88853206Y-100054664D01*
X88853202Y-100054671D01*
X88802908Y-100189517D01*
X88796501Y-100249116D01*
X88796501Y-100249123D01*
X88796500Y-100249135D01*
X88796500Y-102344870D01*
X80772500Y-102344870D01*
X80772500Y-98197005D01*
X81891357Y-98197005D01*
X81911890Y-98444812D01*
X81911892Y-98444824D01*
X81972936Y-98685881D01*
X82072826Y-98913606D01*
X82208833Y-99121782D01*
X82208836Y-99121785D01*
X82377256Y-99304738D01*
X82573491Y-99457474D01*
X82792190Y-99575828D01*
X83027386Y-99656571D01*
X83272665Y-99697500D01*
X83521335Y-99697500D01*
X83766614Y-99656571D01*
X84001810Y-99575828D01*
X84220509Y-99457474D01*
X84416744Y-99304738D01*
X84585164Y-99121785D01*
X84721173Y-98913607D01*
X84821063Y-98685881D01*
X84882108Y-98444821D01*
X84886770Y-98388557D01*
X84902643Y-98197005D01*
X96391357Y-98197005D01*
X96411890Y-98444812D01*
X96411892Y-98444824D01*
X96472936Y-98685881D01*
X96572826Y-98913606D01*
X96708833Y-99121782D01*
X96708836Y-99121785D01*
X96877256Y-99304738D01*
X97073491Y-99457474D01*
X97292190Y-99575828D01*
X97527386Y-99656571D01*
X97772665Y-99697500D01*
X98021335Y-99697500D01*
X98266614Y-99656571D01*
X98501810Y-99575828D01*
X98720509Y-99457474D01*
X98916744Y-99304738D01*
X99085164Y-99121785D01*
X99221173Y-98913607D01*
X99321063Y-98685881D01*
X99382108Y-98444821D01*
X99386770Y-98388557D01*
X99402643Y-98197005D01*
X99402643Y-98196994D01*
X99391971Y-98068202D01*
X104262660Y-98068202D01*
X104272887Y-98282901D01*
X104298519Y-98388557D01*
X104323563Y-98491790D01*
X104412854Y-98687310D01*
X104537534Y-98862399D01*
X104537535Y-98862400D01*
X104537540Y-98862406D01*
X104693094Y-99010725D01*
X104693096Y-99010726D01*
X104693097Y-99010727D01*
X104873920Y-99126935D01*
X105073468Y-99206822D01*
X105106317Y-99213153D01*
X105284527Y-99247500D01*
X105284528Y-99247500D01*
X105445612Y-99247500D01*
X105445618Y-99247500D01*
X105605971Y-99232188D01*
X105812209Y-99171631D01*
X106003259Y-99073138D01*
X106172217Y-98940268D01*
X106312976Y-98777824D01*
X106420448Y-98591677D01*
X106490750Y-98388554D01*
X106518237Y-98197373D01*
X108217723Y-98197373D01*
X108247881Y-98497160D01*
X108247882Y-98497162D01*
X108317728Y-98790252D01*
X108317733Y-98790266D01*
X108426020Y-99071427D01*
X108426024Y-99071436D01*
X108570825Y-99335665D01*
X108570829Y-99335671D01*
X108717339Y-99534516D01*
X108749554Y-99578238D01*
X108959020Y-99794824D01*
X108961144Y-99796501D01*
X109195478Y-99981553D01*
X109195480Y-99981554D01*
X109195485Y-99981558D01*
X109454730Y-100135109D01*
X109732128Y-100252736D01*
X110022729Y-100332340D01*
X110321347Y-100372500D01*
X110321351Y-100372500D01*
X110547252Y-100372500D01*
X110711164Y-100361526D01*
X110772634Y-100357412D01*
X111067903Y-100297396D01*
X111352537Y-100198560D01*
X111621459Y-100062668D01*
X111869869Y-99892144D01*
X112093333Y-99690032D01*
X112287865Y-99459939D01*
X112449993Y-99205970D01*
X112576823Y-98932658D01*
X112666093Y-98644879D01*
X112716209Y-98347770D01*
X112725556Y-98068202D01*
X114422660Y-98068202D01*
X114432887Y-98282901D01*
X114458519Y-98388557D01*
X114483563Y-98491790D01*
X114572854Y-98687310D01*
X114697534Y-98862399D01*
X114697535Y-98862400D01*
X114697540Y-98862406D01*
X114853094Y-99010725D01*
X114853096Y-99010726D01*
X114853097Y-99010727D01*
X115033920Y-99126935D01*
X115233468Y-99206822D01*
X115266317Y-99213153D01*
X115444527Y-99247500D01*
X115444528Y-99247500D01*
X115605612Y-99247500D01*
X115605618Y-99247500D01*
X115765971Y-99232188D01*
X115972209Y-99171631D01*
X116163259Y-99073138D01*
X116332217Y-98940268D01*
X116472976Y-98777824D01*
X116580448Y-98591677D01*
X116650750Y-98388554D01*
X116681339Y-98175797D01*
X116676214Y-98068202D01*
X123312660Y-98068202D01*
X123322887Y-98282901D01*
X123348519Y-98388557D01*
X123373563Y-98491790D01*
X123462854Y-98687310D01*
X123587534Y-98862399D01*
X123587535Y-98862400D01*
X123587540Y-98862406D01*
X123743094Y-99010725D01*
X123743096Y-99010726D01*
X123743097Y-99010727D01*
X123923920Y-99126935D01*
X124123468Y-99206822D01*
X124156317Y-99213153D01*
X124334527Y-99247500D01*
X124334528Y-99247500D01*
X124495612Y-99247500D01*
X124495618Y-99247500D01*
X124655971Y-99232188D01*
X124862209Y-99171631D01*
X125053259Y-99073138D01*
X125222217Y-98940268D01*
X125362976Y-98777824D01*
X125470448Y-98591677D01*
X125540750Y-98388554D01*
X125568237Y-98197373D01*
X127267723Y-98197373D01*
X127297881Y-98497160D01*
X127297882Y-98497162D01*
X127367728Y-98790252D01*
X127367733Y-98790266D01*
X127476020Y-99071427D01*
X127476024Y-99071436D01*
X127620825Y-99335665D01*
X127620829Y-99335671D01*
X127767339Y-99534516D01*
X127799554Y-99578238D01*
X128009020Y-99794824D01*
X128011144Y-99796501D01*
X128245478Y-99981553D01*
X128245480Y-99981554D01*
X128245485Y-99981558D01*
X128504730Y-100135109D01*
X128782128Y-100252736D01*
X129072729Y-100332340D01*
X129371347Y-100372500D01*
X129371351Y-100372500D01*
X129597252Y-100372500D01*
X129761164Y-100361526D01*
X129822634Y-100357412D01*
X130117903Y-100297396D01*
X130402537Y-100198560D01*
X130671459Y-100062668D01*
X130919869Y-99892144D01*
X131143333Y-99690032D01*
X131337865Y-99459939D01*
X131499993Y-99205970D01*
X131626823Y-98932658D01*
X131716093Y-98644879D01*
X131766209Y-98347770D01*
X131775556Y-98068202D01*
X133472660Y-98068202D01*
X133482887Y-98282901D01*
X133508519Y-98388557D01*
X133533563Y-98491790D01*
X133622854Y-98687310D01*
X133747534Y-98862399D01*
X133747535Y-98862400D01*
X133747540Y-98862406D01*
X133903094Y-99010725D01*
X133903096Y-99010726D01*
X133903097Y-99010727D01*
X134083920Y-99126935D01*
X134283468Y-99206822D01*
X134316317Y-99213153D01*
X134494527Y-99247500D01*
X134494528Y-99247500D01*
X134655612Y-99247500D01*
X134655618Y-99247500D01*
X134815971Y-99232188D01*
X135022209Y-99171631D01*
X135213259Y-99073138D01*
X135382217Y-98940268D01*
X135522976Y-98777824D01*
X135630448Y-98591677D01*
X135700750Y-98388554D01*
X135731339Y-98175797D01*
X135726214Y-98068202D01*
X142362660Y-98068202D01*
X142372887Y-98282901D01*
X142398519Y-98388557D01*
X142423563Y-98491790D01*
X142512854Y-98687310D01*
X142637534Y-98862399D01*
X142637535Y-98862400D01*
X142637540Y-98862406D01*
X142793094Y-99010725D01*
X142793096Y-99010726D01*
X142793097Y-99010727D01*
X142973920Y-99126935D01*
X143173468Y-99206822D01*
X143206317Y-99213153D01*
X143384527Y-99247500D01*
X143384528Y-99247500D01*
X143545612Y-99247500D01*
X143545618Y-99247500D01*
X143705971Y-99232188D01*
X143912209Y-99171631D01*
X144103259Y-99073138D01*
X144272217Y-98940268D01*
X144412976Y-98777824D01*
X144520448Y-98591677D01*
X144590750Y-98388554D01*
X144618237Y-98197373D01*
X146317723Y-98197373D01*
X146347881Y-98497160D01*
X146347882Y-98497162D01*
X146417728Y-98790252D01*
X146417733Y-98790266D01*
X146526020Y-99071427D01*
X146526024Y-99071436D01*
X146670825Y-99335665D01*
X146670829Y-99335671D01*
X146817339Y-99534516D01*
X146849554Y-99578238D01*
X147059020Y-99794824D01*
X147061144Y-99796501D01*
X147295478Y-99981553D01*
X147295480Y-99981554D01*
X147295485Y-99981558D01*
X147554730Y-100135109D01*
X147832128Y-100252736D01*
X148122729Y-100332340D01*
X148421347Y-100372500D01*
X148421351Y-100372500D01*
X148647252Y-100372500D01*
X148811164Y-100361526D01*
X148872634Y-100357412D01*
X149167903Y-100297396D01*
X149452537Y-100198560D01*
X149721459Y-100062668D01*
X149969869Y-99892144D01*
X150193333Y-99690032D01*
X150387865Y-99459939D01*
X150549993Y-99205970D01*
X150676823Y-98932658D01*
X150766093Y-98644879D01*
X150816209Y-98347770D01*
X150825556Y-98068202D01*
X152522660Y-98068202D01*
X152532887Y-98282901D01*
X152558519Y-98388557D01*
X152583563Y-98491790D01*
X152672854Y-98687310D01*
X152797534Y-98862399D01*
X152797535Y-98862400D01*
X152797540Y-98862406D01*
X152953094Y-99010725D01*
X152953096Y-99010726D01*
X152953097Y-99010727D01*
X153133920Y-99126935D01*
X153333468Y-99206822D01*
X153366317Y-99213153D01*
X153544527Y-99247500D01*
X153544528Y-99247500D01*
X153705612Y-99247500D01*
X153705618Y-99247500D01*
X153865971Y-99232188D01*
X154072209Y-99171631D01*
X154263259Y-99073138D01*
X154432217Y-98940268D01*
X154572976Y-98777824D01*
X154680448Y-98591677D01*
X154750750Y-98388554D01*
X154781339Y-98175797D01*
X154771112Y-97961096D01*
X154720437Y-97752210D01*
X154631146Y-97556690D01*
X154506466Y-97381601D01*
X154506464Y-97381599D01*
X154506459Y-97381593D01*
X154350905Y-97233274D01*
X154170080Y-97117065D01*
X153970530Y-97037177D01*
X153759473Y-96996500D01*
X153759472Y-96996500D01*
X153598382Y-96996500D01*
X153438050Y-97011810D01*
X153438029Y-97011812D01*
X153438025Y-97011813D01*
X153231793Y-97072368D01*
X153040736Y-97170864D01*
X152871785Y-97303729D01*
X152871782Y-97303733D01*
X152731021Y-97466178D01*
X152623553Y-97652319D01*
X152553251Y-97855442D01*
X152553250Y-97855444D01*
X152522661Y-98068200D01*
X152522660Y-98068202D01*
X150825556Y-98068202D01*
X150826277Y-98046631D01*
X150796118Y-97746838D01*
X150726269Y-97453739D01*
X150617977Y-97172566D01*
X150473175Y-96908335D01*
X150294446Y-96665762D01*
X150084980Y-96449176D01*
X150039631Y-96413364D01*
X149848521Y-96262446D01*
X149848517Y-96262443D01*
X149848515Y-96262442D01*
X149589270Y-96108891D01*
X149311872Y-95991264D01*
X149311863Y-95991261D01*
X149021272Y-95911660D01*
X148946616Y-95901620D01*
X148722653Y-95871500D01*
X148496756Y-95871500D01*
X148496748Y-95871500D01*
X148271368Y-95886587D01*
X148271359Y-95886589D01*
X147976094Y-95946604D01*
X147691464Y-96045439D01*
X147691459Y-96045441D01*
X147422546Y-96181328D01*
X147174125Y-96351860D01*
X146950665Y-96553969D01*
X146756132Y-96784064D01*
X146594006Y-97038030D01*
X146594005Y-97038032D01*
X146503404Y-97233274D01*
X146467177Y-97311342D01*
X146460614Y-97332499D01*
X146377907Y-97599118D01*
X146359521Y-97708119D01*
X146327791Y-97896230D01*
X146322042Y-98068202D01*
X146317723Y-98197373D01*
X144618237Y-98197373D01*
X144621339Y-98175797D01*
X144611112Y-97961096D01*
X144560437Y-97752210D01*
X144471146Y-97556690D01*
X144442664Y-97516692D01*
X144419811Y-97450665D01*
X144436284Y-97382765D01*
X144486851Y-97334549D01*
X144555458Y-97321326D01*
X144562140Y-97322148D01*
X144630818Y-97332500D01*
X144893182Y-97332500D01*
X145152615Y-97293396D01*
X145403323Y-97216063D01*
X145639704Y-97102228D01*
X145856479Y-96954433D01*
X146048805Y-96775981D01*
X146212386Y-96570857D01*
X146343568Y-96343643D01*
X146439420Y-96099416D01*
X146497802Y-95843630D01*
X146508791Y-95696994D01*
X146517408Y-95582004D01*
X146517408Y-95581995D01*
X146497803Y-95320379D01*
X146497802Y-95320374D01*
X146497802Y-95320370D01*
X146439420Y-95064584D01*
X146343568Y-94820357D01*
X146212386Y-94593143D01*
X146048805Y-94388019D01*
X146048804Y-94388018D01*
X146048801Y-94388014D01*
X145856479Y-94209567D01*
X145769741Y-94150430D01*
X145639704Y-94061772D01*
X145639700Y-94061770D01*
X145639697Y-94061768D01*
X145639696Y-94061767D01*
X145403325Y-93947938D01*
X145403327Y-93947938D01*
X145152623Y-93870606D01*
X145152619Y-93870605D01*
X145152615Y-93870604D01*
X145027823Y-93851794D01*
X144893187Y-93831500D01*
X144893182Y-93831500D01*
X144630818Y-93831500D01*
X144630812Y-93831500D01*
X144469247Y-93855853D01*
X144371385Y-93870604D01*
X144371382Y-93870605D01*
X144371376Y-93870606D01*
X144120673Y-93947938D01*
X143884303Y-94061767D01*
X143884302Y-94061768D01*
X143884296Y-94061771D01*
X143884296Y-94061772D01*
X143876229Y-94067272D01*
X143667520Y-94209567D01*
X143475198Y-94388014D01*
X143311614Y-94593143D01*
X143180432Y-94820356D01*
X143084582Y-95064578D01*
X143084576Y-95064597D01*
X143026197Y-95320374D01*
X143026196Y-95320379D01*
X143006592Y-95581995D01*
X143006592Y-95582004D01*
X143026196Y-95843620D01*
X143026197Y-95843625D01*
X143084576Y-96099402D01*
X143084578Y-96099411D01*
X143084580Y-96099416D01*
X143180432Y-96343643D01*
X143311614Y-96570857D01*
X143475195Y-96775981D01*
X143475197Y-96775983D01*
X143475198Y-96775984D01*
X143484569Y-96784679D01*
X143520324Y-96844707D01*
X143517950Y-96914536D01*
X143478200Y-96971997D01*
X143413695Y-96998846D01*
X143412016Y-96999017D01*
X143278039Y-97011810D01*
X143278030Y-97011811D01*
X143278029Y-97011812D01*
X143278027Y-97011812D01*
X143278025Y-97011813D01*
X143071793Y-97072368D01*
X142880736Y-97170864D01*
X142711785Y-97303729D01*
X142711782Y-97303733D01*
X142571021Y-97466178D01*
X142463553Y-97652319D01*
X142393251Y-97855442D01*
X142393250Y-97855444D01*
X142362661Y-98068200D01*
X142362660Y-98068202D01*
X135726214Y-98068202D01*
X135721112Y-97961096D01*
X135670437Y-97752210D01*
X135581146Y-97556690D01*
X135456466Y-97381601D01*
X135456464Y-97381599D01*
X135456459Y-97381593D01*
X135300905Y-97233274D01*
X135120080Y-97117065D01*
X134920530Y-97037177D01*
X134709473Y-96996500D01*
X134709472Y-96996500D01*
X134548382Y-96996500D01*
X134388050Y-97011810D01*
X134388029Y-97011812D01*
X134388025Y-97011813D01*
X134181793Y-97072368D01*
X133990736Y-97170864D01*
X133821785Y-97303729D01*
X133821782Y-97303733D01*
X133681021Y-97466178D01*
X133573553Y-97652319D01*
X133503251Y-97855442D01*
X133503250Y-97855444D01*
X133472661Y-98068200D01*
X133472660Y-98068202D01*
X131775556Y-98068202D01*
X131776277Y-98046631D01*
X131746118Y-97746838D01*
X131676269Y-97453739D01*
X131567977Y-97172566D01*
X131423175Y-96908335D01*
X131244446Y-96665762D01*
X131034980Y-96449176D01*
X130989631Y-96413364D01*
X130798521Y-96262446D01*
X130798517Y-96262443D01*
X130798515Y-96262442D01*
X130539270Y-96108891D01*
X130261872Y-95991264D01*
X130261863Y-95991261D01*
X129971272Y-95911660D01*
X129896616Y-95901620D01*
X129672653Y-95871500D01*
X129446756Y-95871500D01*
X129446748Y-95871500D01*
X129221368Y-95886587D01*
X129221359Y-95886589D01*
X128926094Y-95946604D01*
X128641464Y-96045439D01*
X128641459Y-96045441D01*
X128372546Y-96181328D01*
X128124125Y-96351860D01*
X127900665Y-96553969D01*
X127706132Y-96784064D01*
X127544006Y-97038030D01*
X127544005Y-97038032D01*
X127453404Y-97233274D01*
X127417177Y-97311342D01*
X127410614Y-97332499D01*
X127327907Y-97599118D01*
X127309521Y-97708119D01*
X127277791Y-97896230D01*
X127272042Y-98068202D01*
X127267723Y-98197373D01*
X125568237Y-98197373D01*
X125571339Y-98175797D01*
X125561112Y-97961096D01*
X125510437Y-97752210D01*
X125421146Y-97556690D01*
X125392664Y-97516692D01*
X125369811Y-97450665D01*
X125386284Y-97382765D01*
X125436851Y-97334549D01*
X125505458Y-97321326D01*
X125512140Y-97322148D01*
X125580818Y-97332500D01*
X125843182Y-97332500D01*
X126102615Y-97293396D01*
X126353323Y-97216063D01*
X126589704Y-97102228D01*
X126806479Y-96954433D01*
X126998805Y-96775981D01*
X127162386Y-96570857D01*
X127293568Y-96343643D01*
X127389420Y-96099416D01*
X127447802Y-95843630D01*
X127458791Y-95696994D01*
X127467408Y-95582004D01*
X127467408Y-95581995D01*
X127447803Y-95320379D01*
X127447802Y-95320374D01*
X127447802Y-95320370D01*
X127389420Y-95064584D01*
X127293568Y-94820357D01*
X127162386Y-94593143D01*
X126998805Y-94388019D01*
X126998804Y-94388018D01*
X126998801Y-94388014D01*
X126806479Y-94209567D01*
X126719741Y-94150430D01*
X126589704Y-94061772D01*
X126589700Y-94061770D01*
X126589697Y-94061768D01*
X126589696Y-94061767D01*
X126353325Y-93947938D01*
X126353327Y-93947938D01*
X126102623Y-93870606D01*
X126102619Y-93870605D01*
X126102615Y-93870604D01*
X125977823Y-93851794D01*
X125843187Y-93831500D01*
X125843182Y-93831500D01*
X125580818Y-93831500D01*
X125580812Y-93831500D01*
X125419247Y-93855853D01*
X125321385Y-93870604D01*
X125321382Y-93870605D01*
X125321376Y-93870606D01*
X125070673Y-93947938D01*
X124834303Y-94061767D01*
X124834302Y-94061768D01*
X124834296Y-94061771D01*
X124834296Y-94061772D01*
X124826229Y-94067272D01*
X124617520Y-94209567D01*
X124425198Y-94388014D01*
X124261614Y-94593143D01*
X124130432Y-94820356D01*
X124034582Y-95064578D01*
X124034576Y-95064597D01*
X123976197Y-95320374D01*
X123976196Y-95320379D01*
X123956592Y-95581995D01*
X123956592Y-95582004D01*
X123976196Y-95843620D01*
X123976197Y-95843625D01*
X124034576Y-96099402D01*
X124034578Y-96099411D01*
X124034580Y-96099416D01*
X124130432Y-96343643D01*
X124261614Y-96570857D01*
X124425195Y-96775981D01*
X124425197Y-96775983D01*
X124425198Y-96775984D01*
X124434569Y-96784679D01*
X124470324Y-96844707D01*
X124467950Y-96914536D01*
X124428200Y-96971997D01*
X124363695Y-96998846D01*
X124362016Y-96999017D01*
X124228039Y-97011810D01*
X124228030Y-97011811D01*
X124228029Y-97011812D01*
X124228027Y-97011812D01*
X124228025Y-97011813D01*
X124021793Y-97072368D01*
X123830736Y-97170864D01*
X123661785Y-97303729D01*
X123661782Y-97303733D01*
X123521021Y-97466178D01*
X123413553Y-97652319D01*
X123343251Y-97855442D01*
X123343250Y-97855444D01*
X123312661Y-98068200D01*
X123312660Y-98068202D01*
X116676214Y-98068202D01*
X116671112Y-97961096D01*
X116620437Y-97752210D01*
X116531146Y-97556690D01*
X116406466Y-97381601D01*
X116406464Y-97381599D01*
X116406459Y-97381593D01*
X116250905Y-97233274D01*
X116070080Y-97117065D01*
X115870530Y-97037177D01*
X115659473Y-96996500D01*
X115659472Y-96996500D01*
X115498382Y-96996500D01*
X115338050Y-97011810D01*
X115338029Y-97011812D01*
X115338025Y-97011813D01*
X115131793Y-97072368D01*
X114940736Y-97170864D01*
X114771785Y-97303729D01*
X114771782Y-97303733D01*
X114631021Y-97466178D01*
X114523553Y-97652319D01*
X114453251Y-97855442D01*
X114453250Y-97855444D01*
X114422661Y-98068200D01*
X114422660Y-98068202D01*
X112725556Y-98068202D01*
X112726277Y-98046631D01*
X112696118Y-97746838D01*
X112626269Y-97453739D01*
X112517977Y-97172566D01*
X112373175Y-96908335D01*
X112194446Y-96665762D01*
X111984980Y-96449176D01*
X111939631Y-96413364D01*
X111748521Y-96262446D01*
X111748517Y-96262443D01*
X111748515Y-96262442D01*
X111489270Y-96108891D01*
X111211872Y-95991264D01*
X111211863Y-95991261D01*
X110921272Y-95911660D01*
X110846616Y-95901620D01*
X110622653Y-95871500D01*
X110396756Y-95871500D01*
X110396748Y-95871500D01*
X110171368Y-95886587D01*
X110171359Y-95886589D01*
X109876094Y-95946604D01*
X109591464Y-96045439D01*
X109591459Y-96045441D01*
X109322546Y-96181328D01*
X109074125Y-96351860D01*
X108850665Y-96553969D01*
X108656132Y-96784064D01*
X108494006Y-97038030D01*
X108494005Y-97038032D01*
X108403404Y-97233274D01*
X108367177Y-97311342D01*
X108360614Y-97332499D01*
X108277907Y-97599118D01*
X108259521Y-97708119D01*
X108227791Y-97896230D01*
X108222042Y-98068202D01*
X108217723Y-98197373D01*
X106518237Y-98197373D01*
X106521339Y-98175797D01*
X106511112Y-97961096D01*
X106460437Y-97752210D01*
X106371146Y-97556690D01*
X106342664Y-97516692D01*
X106319811Y-97450665D01*
X106336284Y-97382765D01*
X106386851Y-97334549D01*
X106455458Y-97321326D01*
X106462140Y-97322148D01*
X106530818Y-97332500D01*
X106793182Y-97332500D01*
X107052615Y-97293396D01*
X107303323Y-97216063D01*
X107539704Y-97102228D01*
X107756479Y-96954433D01*
X107948805Y-96775981D01*
X108112386Y-96570857D01*
X108243568Y-96343643D01*
X108339420Y-96099416D01*
X108397802Y-95843630D01*
X108408791Y-95696994D01*
X108417408Y-95582004D01*
X108417408Y-95581995D01*
X108397803Y-95320379D01*
X108397802Y-95320374D01*
X108397802Y-95320370D01*
X108339420Y-95064584D01*
X108243568Y-94820357D01*
X108112386Y-94593143D01*
X107948805Y-94388019D01*
X107948804Y-94388018D01*
X107948801Y-94388014D01*
X107756479Y-94209567D01*
X107669741Y-94150430D01*
X107539704Y-94061772D01*
X107539700Y-94061770D01*
X107539697Y-94061768D01*
X107539696Y-94061767D01*
X107303325Y-93947938D01*
X107303327Y-93947938D01*
X107052623Y-93870606D01*
X107052619Y-93870605D01*
X107052615Y-93870604D01*
X106927823Y-93851794D01*
X106793187Y-93831500D01*
X106793182Y-93831500D01*
X106530818Y-93831500D01*
X106530812Y-93831500D01*
X106369247Y-93855853D01*
X106271385Y-93870604D01*
X106271382Y-93870605D01*
X106271376Y-93870606D01*
X106020673Y-93947938D01*
X105784303Y-94061767D01*
X105784302Y-94061768D01*
X105784296Y-94061771D01*
X105784296Y-94061772D01*
X105776229Y-94067272D01*
X105567520Y-94209567D01*
X105375198Y-94388014D01*
X105211614Y-94593143D01*
X105080432Y-94820356D01*
X104984582Y-95064578D01*
X104984576Y-95064597D01*
X104926197Y-95320374D01*
X104926196Y-95320379D01*
X104906592Y-95581995D01*
X104906592Y-95582004D01*
X104926196Y-95843620D01*
X104926197Y-95843625D01*
X104984576Y-96099402D01*
X104984578Y-96099411D01*
X104984580Y-96099416D01*
X105080432Y-96343643D01*
X105211614Y-96570857D01*
X105375195Y-96775981D01*
X105375197Y-96775983D01*
X105375198Y-96775984D01*
X105384569Y-96784679D01*
X105420324Y-96844707D01*
X105417950Y-96914536D01*
X105378200Y-96971997D01*
X105313695Y-96998846D01*
X105312016Y-96999017D01*
X105178039Y-97011810D01*
X105178030Y-97011811D01*
X105178029Y-97011812D01*
X105178027Y-97011812D01*
X105178025Y-97011813D01*
X104971793Y-97072368D01*
X104780736Y-97170864D01*
X104611785Y-97303729D01*
X104611782Y-97303733D01*
X104471021Y-97466178D01*
X104363553Y-97652319D01*
X104293251Y-97855442D01*
X104293250Y-97855444D01*
X104262661Y-98068200D01*
X104262660Y-98068202D01*
X99391971Y-98068202D01*
X99382109Y-97949187D01*
X99382107Y-97949175D01*
X99321063Y-97708118D01*
X99221173Y-97480393D01*
X99085166Y-97272217D01*
X99033472Y-97216063D01*
X98916744Y-97089262D01*
X98720509Y-96936526D01*
X98720507Y-96936525D01*
X98720506Y-96936524D01*
X98501811Y-96818172D01*
X98501802Y-96818169D01*
X98266616Y-96737429D01*
X98021335Y-96696500D01*
X97772665Y-96696500D01*
X97527383Y-96737429D01*
X97292197Y-96818169D01*
X97292188Y-96818172D01*
X97073493Y-96936524D01*
X96877257Y-97089261D01*
X96708833Y-97272217D01*
X96572826Y-97480393D01*
X96472936Y-97708118D01*
X96411892Y-97949175D01*
X96411890Y-97949187D01*
X96391357Y-98196994D01*
X96391357Y-98197005D01*
X84902643Y-98197005D01*
X84902643Y-98196994D01*
X84882109Y-97949187D01*
X84882107Y-97949175D01*
X84821063Y-97708118D01*
X84721173Y-97480393D01*
X84585166Y-97272217D01*
X84533472Y-97216063D01*
X84416744Y-97089262D01*
X84317238Y-97011813D01*
X84315623Y-97010556D01*
X84274810Y-96953846D01*
X84270697Y-96924249D01*
X83529533Y-96183086D01*
X83539315Y-96181680D01*
X83670100Y-96121952D01*
X83778761Y-96027798D01*
X83856493Y-95906844D01*
X83880076Y-95826524D01*
X84620434Y-96566882D01*
X84720731Y-96413369D01*
X84820587Y-96185717D01*
X84881612Y-95944738D01*
X84881614Y-95944729D01*
X84902141Y-95697005D01*
X84902141Y-95696994D01*
X84881614Y-95449270D01*
X84881612Y-95449261D01*
X84820587Y-95208282D01*
X84720732Y-94980632D01*
X84608515Y-94808870D01*
X84588328Y-94741981D01*
X84607508Y-94674795D01*
X84638013Y-94641782D01*
X84639329Y-94640796D01*
X84639331Y-94640796D01*
X84754546Y-94554546D01*
X84840796Y-94439331D01*
X84891091Y-94304483D01*
X84897500Y-94244873D01*
X84897500Y-93197005D01*
X96391859Y-93197005D01*
X96412385Y-93444729D01*
X96412387Y-93444738D01*
X96473412Y-93685717D01*
X96573266Y-93913364D01*
X96673564Y-94066882D01*
X97413923Y-93326523D01*
X97437507Y-93406844D01*
X97515239Y-93527798D01*
X97623900Y-93621952D01*
X97754685Y-93681680D01*
X97764466Y-93683086D01*
X97026942Y-94420609D01*
X97073768Y-94457055D01*
X97073770Y-94457056D01*
X97292385Y-94575364D01*
X97292396Y-94575369D01*
X97527506Y-94656083D01*
X97772707Y-94697000D01*
X98021293Y-94697000D01*
X98266493Y-94656083D01*
X98501603Y-94575369D01*
X98501614Y-94575364D01*
X98720228Y-94457057D01*
X98720231Y-94457055D01*
X98767056Y-94420609D01*
X98029533Y-93683086D01*
X98039315Y-93681680D01*
X98170100Y-93621952D01*
X98278761Y-93527798D01*
X98356493Y-93406844D01*
X98380076Y-93326524D01*
X99120434Y-94066882D01*
X99220731Y-93913369D01*
X99320587Y-93685717D01*
X99381612Y-93444738D01*
X99381614Y-93444729D01*
X99402141Y-93197005D01*
X99402141Y-93196994D01*
X99389298Y-93042004D01*
X111257093Y-93042004D01*
X111276692Y-93303545D01*
X111276693Y-93303550D01*
X111335058Y-93559270D01*
X111430883Y-93803426D01*
X111430882Y-93803426D01*
X111562030Y-94030577D01*
X111609873Y-94090571D01*
X111609874Y-94090571D01*
X112334803Y-93365641D01*
X112358059Y-93419553D01*
X112462756Y-93560185D01*
X112597062Y-93672882D01*
X112688665Y-93718886D01*
X111962831Y-94444720D01*
X112134546Y-94561793D01*
X112134550Y-94561795D01*
X112370854Y-94675594D01*
X112370858Y-94675595D01*
X112621494Y-94752907D01*
X112621500Y-94752909D01*
X112880848Y-94791999D01*
X112880857Y-94792000D01*
X113143143Y-94792000D01*
X113143151Y-94791999D01*
X113402499Y-94752909D01*
X113402505Y-94752907D01*
X113653143Y-94675595D01*
X113889445Y-94561798D01*
X113889456Y-94561791D01*
X114061167Y-94444720D01*
X113337946Y-93721498D01*
X113350891Y-93716787D01*
X113497373Y-93620445D01*
X113617688Y-93492918D01*
X113690447Y-93366894D01*
X114414124Y-94090571D01*
X114461974Y-94030570D01*
X114593116Y-93803426D01*
X114688941Y-93559270D01*
X114747306Y-93303550D01*
X114747307Y-93303545D01*
X114766907Y-93042004D01*
X130307093Y-93042004D01*
X130326692Y-93303545D01*
X130326693Y-93303550D01*
X130385058Y-93559270D01*
X130480883Y-93803426D01*
X130480882Y-93803426D01*
X130612030Y-94030577D01*
X130659873Y-94090571D01*
X130659874Y-94090571D01*
X131384803Y-93365641D01*
X131408059Y-93419553D01*
X131512756Y-93560185D01*
X131647062Y-93672882D01*
X131738665Y-93718886D01*
X131012831Y-94444720D01*
X131184546Y-94561793D01*
X131184550Y-94561795D01*
X131420854Y-94675594D01*
X131420858Y-94675595D01*
X131671494Y-94752907D01*
X131671500Y-94752909D01*
X131930848Y-94791999D01*
X131930857Y-94792000D01*
X132193143Y-94792000D01*
X132193151Y-94791999D01*
X132452499Y-94752909D01*
X132452505Y-94752907D01*
X132703143Y-94675595D01*
X132939445Y-94561798D01*
X132939456Y-94561791D01*
X133111167Y-94444720D01*
X132387946Y-93721498D01*
X132400891Y-93716787D01*
X132547373Y-93620445D01*
X132667688Y-93492918D01*
X132740447Y-93366894D01*
X133464124Y-94090571D01*
X133511974Y-94030570D01*
X133643116Y-93803426D01*
X133738941Y-93559270D01*
X133797306Y-93303550D01*
X133797307Y-93303545D01*
X133816907Y-93042004D01*
X149357093Y-93042004D01*
X149376692Y-93303545D01*
X149376693Y-93303550D01*
X149435058Y-93559270D01*
X149530883Y-93803426D01*
X149530882Y-93803426D01*
X149662030Y-94030577D01*
X149709873Y-94090571D01*
X149709874Y-94090571D01*
X150434803Y-93365641D01*
X150458059Y-93419553D01*
X150562756Y-93560185D01*
X150697062Y-93672882D01*
X150788665Y-93718886D01*
X150062831Y-94444720D01*
X150234546Y-94561793D01*
X150234550Y-94561795D01*
X150470854Y-94675594D01*
X150470858Y-94675595D01*
X150721494Y-94752907D01*
X150721500Y-94752909D01*
X150980848Y-94791999D01*
X150980857Y-94792000D01*
X151243143Y-94792000D01*
X151243151Y-94791999D01*
X151502499Y-94752909D01*
X151502505Y-94752907D01*
X151753143Y-94675595D01*
X151989445Y-94561798D01*
X151989456Y-94561791D01*
X152161167Y-94444720D01*
X151437946Y-93721498D01*
X151450891Y-93716787D01*
X151597373Y-93620445D01*
X151717688Y-93492918D01*
X151790447Y-93366894D01*
X152514124Y-94090571D01*
X152561974Y-94030570D01*
X152693116Y-93803426D01*
X152788941Y-93559270D01*
X152847306Y-93303550D01*
X152847307Y-93303545D01*
X152866907Y-93042004D01*
X152866907Y-93041995D01*
X152847307Y-92780454D01*
X152847306Y-92780449D01*
X152788941Y-92524729D01*
X152693116Y-92280573D01*
X152693117Y-92280573D01*
X152561971Y-92053426D01*
X152514125Y-91993427D01*
X151789195Y-92718357D01*
X151765941Y-92664447D01*
X151661244Y-92523815D01*
X151526938Y-92411118D01*
X151435333Y-92365112D01*
X152161167Y-91639278D01*
X151989447Y-91522202D01*
X151989445Y-91522201D01*
X151753142Y-91408404D01*
X151753144Y-91408404D01*
X151502505Y-91331092D01*
X151502499Y-91331090D01*
X151243151Y-91292000D01*
X150980848Y-91292000D01*
X150721500Y-91331090D01*
X150721494Y-91331092D01*
X150470858Y-91408404D01*
X150470854Y-91408405D01*
X150234550Y-91522204D01*
X150234546Y-91522206D01*
X150062832Y-91639278D01*
X150786055Y-92362501D01*
X150773109Y-92367213D01*
X150626627Y-92463555D01*
X150506312Y-92591082D01*
X150433552Y-92717106D01*
X149709873Y-91993427D01*
X149662029Y-92053423D01*
X149530883Y-92280573D01*
X149435058Y-92524729D01*
X149376693Y-92780449D01*
X149376692Y-92780454D01*
X149357093Y-93041995D01*
X149357093Y-93042004D01*
X133816907Y-93042004D01*
X133816907Y-93041995D01*
X133797307Y-92780454D01*
X133797306Y-92780449D01*
X133738941Y-92524729D01*
X133643116Y-92280573D01*
X133643117Y-92280573D01*
X133511971Y-92053426D01*
X133464125Y-91993427D01*
X132739195Y-92718357D01*
X132715941Y-92664447D01*
X132611244Y-92523815D01*
X132476938Y-92411118D01*
X132385333Y-92365112D01*
X133111167Y-91639278D01*
X132939447Y-91522202D01*
X132939445Y-91522201D01*
X132703142Y-91408404D01*
X132703144Y-91408404D01*
X132452505Y-91331092D01*
X132452499Y-91331090D01*
X132193151Y-91292000D01*
X131930848Y-91292000D01*
X131671500Y-91331090D01*
X131671494Y-91331092D01*
X131420858Y-91408404D01*
X131420854Y-91408405D01*
X131184550Y-91522204D01*
X131184546Y-91522206D01*
X131012832Y-91639278D01*
X131736055Y-92362501D01*
X131723109Y-92367213D01*
X131576627Y-92463555D01*
X131456312Y-92591082D01*
X131383552Y-92717105D01*
X130659873Y-91993427D01*
X130612029Y-92053423D01*
X130480883Y-92280573D01*
X130385058Y-92524729D01*
X130326693Y-92780449D01*
X130326692Y-92780454D01*
X130307093Y-93041995D01*
X130307093Y-93042004D01*
X114766907Y-93042004D01*
X114766907Y-93041995D01*
X114747307Y-92780454D01*
X114747306Y-92780449D01*
X114688941Y-92524729D01*
X114593116Y-92280573D01*
X114593117Y-92280573D01*
X114461971Y-92053426D01*
X114414125Y-91993427D01*
X113689195Y-92718357D01*
X113665941Y-92664447D01*
X113561244Y-92523815D01*
X113426938Y-92411118D01*
X113335333Y-92365112D01*
X114061167Y-91639278D01*
X113889447Y-91522202D01*
X113889445Y-91522201D01*
X113653142Y-91408404D01*
X113653144Y-91408404D01*
X113402505Y-91331092D01*
X113402499Y-91331090D01*
X113143151Y-91292000D01*
X112880848Y-91292000D01*
X112621500Y-91331090D01*
X112621494Y-91331092D01*
X112370858Y-91408404D01*
X112370854Y-91408405D01*
X112134550Y-91522204D01*
X112134546Y-91522206D01*
X111962832Y-91639278D01*
X112686055Y-92362501D01*
X112673109Y-92367213D01*
X112526627Y-92463555D01*
X112406312Y-92591082D01*
X112333552Y-92717106D01*
X111609873Y-91993427D01*
X111562029Y-92053423D01*
X111430883Y-92280573D01*
X111335058Y-92524729D01*
X111276693Y-92780449D01*
X111276692Y-92780454D01*
X111257093Y-93041995D01*
X111257093Y-93042004D01*
X99389298Y-93042004D01*
X99381614Y-92949270D01*
X99381612Y-92949261D01*
X99320587Y-92708282D01*
X99220731Y-92480630D01*
X99120434Y-92327116D01*
X98380076Y-93067475D01*
X98356493Y-92987156D01*
X98278761Y-92866202D01*
X98170100Y-92772048D01*
X98039315Y-92712320D01*
X98029534Y-92710913D01*
X98767057Y-91973390D01*
X98767056Y-91973389D01*
X98720229Y-91936943D01*
X98501614Y-91818635D01*
X98501603Y-91818630D01*
X98266493Y-91737916D01*
X98021293Y-91697000D01*
X97772707Y-91697000D01*
X97527506Y-91737916D01*
X97292396Y-91818630D01*
X97292390Y-91818632D01*
X97073761Y-91936949D01*
X97026942Y-91973388D01*
X97026942Y-91973390D01*
X97764466Y-92710913D01*
X97754685Y-92712320D01*
X97623900Y-92772048D01*
X97515239Y-92866202D01*
X97437507Y-92987156D01*
X97413923Y-93067475D01*
X96673564Y-92327116D01*
X96573267Y-92480632D01*
X96473412Y-92708282D01*
X96412387Y-92949261D01*
X96412385Y-92949270D01*
X96391859Y-93196994D01*
X96391859Y-93197005D01*
X84897500Y-93197005D01*
X84897499Y-92149128D01*
X84891091Y-92089517D01*
X84847778Y-91973390D01*
X84840797Y-91954671D01*
X84840793Y-91954664D01*
X84754547Y-91839455D01*
X84754544Y-91839452D01*
X84639335Y-91753206D01*
X84639328Y-91753202D01*
X84504482Y-91702908D01*
X84504483Y-91702908D01*
X84444883Y-91696501D01*
X84444881Y-91696500D01*
X84444873Y-91696500D01*
X84444864Y-91696500D01*
X82349129Y-91696500D01*
X82349123Y-91696501D01*
X82289516Y-91702908D01*
X82154671Y-91753202D01*
X82154664Y-91753206D01*
X82039455Y-91839452D01*
X82039452Y-91839455D01*
X81953206Y-91954664D01*
X81953202Y-91954671D01*
X81902908Y-92089517D01*
X81896501Y-92149116D01*
X81896501Y-92149123D01*
X81896500Y-92149135D01*
X81896500Y-94244870D01*
X81896501Y-94244876D01*
X81902908Y-94304483D01*
X81953202Y-94439328D01*
X81953206Y-94439335D01*
X82039452Y-94554544D01*
X82039455Y-94554547D01*
X82155986Y-94641783D01*
X82197857Y-94697717D01*
X82202841Y-94767408D01*
X82185484Y-94808870D01*
X82073267Y-94980631D01*
X81973412Y-95208282D01*
X81912387Y-95449261D01*
X81912385Y-95449270D01*
X81891859Y-95696994D01*
X81891859Y-95697005D01*
X81912385Y-95944729D01*
X81912387Y-95944738D01*
X81973412Y-96185717D01*
X82073266Y-96413364D01*
X82173564Y-96566882D01*
X82913922Y-95826523D01*
X82937507Y-95906844D01*
X83015239Y-96027798D01*
X83123900Y-96121952D01*
X83254685Y-96181680D01*
X83264466Y-96183086D01*
X82521100Y-96926450D01*
X82510482Y-96973148D01*
X82478376Y-97010556D01*
X82377255Y-97089262D01*
X82208833Y-97272217D01*
X82072826Y-97480393D01*
X81972936Y-97708118D01*
X81911892Y-97949175D01*
X81911890Y-97949187D01*
X81891357Y-98196994D01*
X81891357Y-98197005D01*
X80772500Y-98197005D01*
X80772500Y-91144870D01*
X88796500Y-91144870D01*
X88796501Y-91144876D01*
X88802908Y-91204483D01*
X88853202Y-91339328D01*
X88853206Y-91339335D01*
X88939452Y-91454544D01*
X88939455Y-91454547D01*
X89054664Y-91540793D01*
X89054671Y-91540797D01*
X89189517Y-91591091D01*
X89189516Y-91591091D01*
X89196444Y-91591835D01*
X89249127Y-91597500D01*
X92544872Y-91597499D01*
X92604483Y-91591091D01*
X92739331Y-91540796D01*
X92854546Y-91454546D01*
X92940796Y-91339331D01*
X92991091Y-91204483D01*
X92997500Y-91144873D01*
X92997499Y-89049128D01*
X92991091Y-88989517D01*
X92990409Y-88987689D01*
X92940797Y-88854671D01*
X92940793Y-88854664D01*
X92854547Y-88739455D01*
X92854544Y-88739452D01*
X92739335Y-88653206D01*
X92739328Y-88653202D01*
X92604482Y-88602908D01*
X92604483Y-88602908D01*
X92544883Y-88596501D01*
X92544881Y-88596500D01*
X92544873Y-88596500D01*
X92544864Y-88596500D01*
X89249129Y-88596500D01*
X89249123Y-88596501D01*
X89189516Y-88602908D01*
X89054671Y-88653202D01*
X89054664Y-88653206D01*
X88939455Y-88739452D01*
X88939452Y-88739455D01*
X88853206Y-88854664D01*
X88853202Y-88854671D01*
X88802908Y-88989517D01*
X88796501Y-89049116D01*
X88796501Y-89049123D01*
X88796500Y-89049135D01*
X88796500Y-91144870D01*
X80772500Y-91144870D01*
X80772500Y-76194870D01*
X108621500Y-76194870D01*
X108621501Y-76194876D01*
X108627908Y-76254483D01*
X108678202Y-76389328D01*
X108678206Y-76389335D01*
X108764452Y-76504544D01*
X108764455Y-76504547D01*
X108879664Y-76590793D01*
X108879671Y-76590797D01*
X109014517Y-76641091D01*
X109014516Y-76641091D01*
X109021444Y-76641835D01*
X109074127Y-76647500D01*
X112369872Y-76647499D01*
X112429483Y-76641091D01*
X112564331Y-76590796D01*
X112679546Y-76504546D01*
X112765796Y-76389331D01*
X112816091Y-76254483D01*
X112822500Y-76194873D01*
X112822499Y-74099128D01*
X112816091Y-74039517D01*
X112801229Y-73999671D01*
X112765797Y-73904671D01*
X112765793Y-73904664D01*
X112679547Y-73789455D01*
X112679544Y-73789452D01*
X112564335Y-73703206D01*
X112564328Y-73703202D01*
X112429482Y-73652908D01*
X112429483Y-73652908D01*
X112369883Y-73646501D01*
X112369881Y-73646500D01*
X112369873Y-73646500D01*
X112369864Y-73646500D01*
X109074129Y-73646500D01*
X109074123Y-73646501D01*
X109014516Y-73652908D01*
X108879671Y-73703202D01*
X108879664Y-73703206D01*
X108764455Y-73789452D01*
X108764452Y-73789455D01*
X108678206Y-73904664D01*
X108678202Y-73904671D01*
X108627908Y-74039517D01*
X108621501Y-74099116D01*
X108621501Y-74099123D01*
X108621500Y-74099135D01*
X108621500Y-76194870D01*
X80772500Y-76194870D01*
X80772500Y-72047005D01*
X101716357Y-72047005D01*
X101736890Y-72294812D01*
X101736892Y-72294824D01*
X101797936Y-72535881D01*
X101897826Y-72763606D01*
X102033833Y-72971782D01*
X102033836Y-72971785D01*
X102202256Y-73154738D01*
X102398491Y-73307474D01*
X102617190Y-73425828D01*
X102852386Y-73506571D01*
X103097665Y-73547500D01*
X103346335Y-73547500D01*
X103591614Y-73506571D01*
X103826810Y-73425828D01*
X104045509Y-73307474D01*
X104241744Y-73154738D01*
X104410164Y-72971785D01*
X104546173Y-72763607D01*
X104646063Y-72535881D01*
X104707108Y-72294821D01*
X104727643Y-72047005D01*
X116216357Y-72047005D01*
X116236890Y-72294812D01*
X116236892Y-72294824D01*
X116297936Y-72535881D01*
X116397826Y-72763606D01*
X116533833Y-72971782D01*
X116533836Y-72971785D01*
X116702256Y-73154738D01*
X116898491Y-73307474D01*
X117117190Y-73425828D01*
X117352386Y-73506571D01*
X117597665Y-73547500D01*
X117846335Y-73547500D01*
X118091614Y-73506571D01*
X118326810Y-73425828D01*
X118545509Y-73307474D01*
X118741744Y-73154738D01*
X118910164Y-72971785D01*
X119046173Y-72763607D01*
X119146063Y-72535881D01*
X119207108Y-72294821D01*
X119227643Y-72047000D01*
X119207108Y-71799179D01*
X119146063Y-71558119D01*
X119102878Y-71459668D01*
X119046173Y-71330393D01*
X118910166Y-71122217D01*
X118888557Y-71098744D01*
X118741744Y-70939262D01*
X118545509Y-70786526D01*
X118545507Y-70786525D01*
X118545506Y-70786524D01*
X118326811Y-70668172D01*
X118326802Y-70668169D01*
X118091616Y-70587429D01*
X117846335Y-70546500D01*
X117597665Y-70546500D01*
X117352383Y-70587429D01*
X117117197Y-70668169D01*
X117117188Y-70668172D01*
X116898493Y-70786524D01*
X116702257Y-70939261D01*
X116533833Y-71122217D01*
X116397826Y-71330393D01*
X116297936Y-71558118D01*
X116236892Y-71799175D01*
X116236890Y-71799187D01*
X116216357Y-72046994D01*
X116216357Y-72047005D01*
X104727643Y-72047005D01*
X104727643Y-72047000D01*
X104707108Y-71799179D01*
X104646063Y-71558119D01*
X104602878Y-71459668D01*
X104546173Y-71330393D01*
X104410166Y-71122217D01*
X104389860Y-71100159D01*
X104241744Y-70939262D01*
X104140623Y-70860556D01*
X104099810Y-70803846D01*
X104095697Y-70774249D01*
X103354533Y-70033086D01*
X103364315Y-70031680D01*
X103495100Y-69971952D01*
X103603761Y-69877798D01*
X103681493Y-69756844D01*
X103705076Y-69676524D01*
X104445434Y-70416882D01*
X104545731Y-70263369D01*
X104645587Y-70035717D01*
X104706612Y-69794738D01*
X104706614Y-69794729D01*
X104727141Y-69547005D01*
X104727141Y-69546994D01*
X104706614Y-69299270D01*
X104706612Y-69299261D01*
X104645587Y-69058282D01*
X104545732Y-68830632D01*
X104433515Y-68658870D01*
X104413328Y-68591981D01*
X104432508Y-68524795D01*
X104463013Y-68491782D01*
X104464329Y-68490796D01*
X104464331Y-68490796D01*
X104579546Y-68404546D01*
X104665796Y-68289331D01*
X104716091Y-68154483D01*
X104722500Y-68094873D01*
X104722500Y-67047005D01*
X116216859Y-67047005D01*
X116237385Y-67294729D01*
X116237387Y-67294738D01*
X116298412Y-67535717D01*
X116398266Y-67763364D01*
X116498564Y-67916882D01*
X117238923Y-67176523D01*
X117262507Y-67256844D01*
X117340239Y-67377798D01*
X117448900Y-67471952D01*
X117579685Y-67531680D01*
X117589466Y-67533086D01*
X116851942Y-68270609D01*
X116898768Y-68307055D01*
X116898770Y-68307056D01*
X117117385Y-68425364D01*
X117117396Y-68425369D01*
X117352506Y-68506083D01*
X117597707Y-68547000D01*
X117846293Y-68547000D01*
X118091493Y-68506083D01*
X118326603Y-68425369D01*
X118326614Y-68425364D01*
X118545228Y-68307057D01*
X118545231Y-68307055D01*
X118592056Y-68270609D01*
X117854533Y-67533086D01*
X117864315Y-67531680D01*
X117995100Y-67471952D01*
X118103761Y-67377798D01*
X118181493Y-67256844D01*
X118205076Y-67176524D01*
X118945434Y-67916882D01*
X119045731Y-67763369D01*
X119145587Y-67535717D01*
X119206612Y-67294738D01*
X119206614Y-67294729D01*
X119227141Y-67047005D01*
X119227141Y-67046994D01*
X119206614Y-66799270D01*
X119206612Y-66799261D01*
X119145587Y-66558282D01*
X119045731Y-66330630D01*
X118945434Y-66177116D01*
X118205076Y-66917475D01*
X118181493Y-66837156D01*
X118103761Y-66716202D01*
X117995100Y-66622048D01*
X117864315Y-66562320D01*
X117854534Y-66560913D01*
X118592057Y-65823390D01*
X118592056Y-65823389D01*
X118545229Y-65786943D01*
X118326614Y-65668635D01*
X118326603Y-65668630D01*
X118091493Y-65587916D01*
X117846293Y-65547000D01*
X117597707Y-65547000D01*
X117352506Y-65587916D01*
X117117396Y-65668630D01*
X117117390Y-65668632D01*
X116898761Y-65786949D01*
X116851942Y-65823388D01*
X116851942Y-65823390D01*
X117589466Y-66560913D01*
X117579685Y-66562320D01*
X117448900Y-66622048D01*
X117340239Y-66716202D01*
X117262507Y-66837156D01*
X117238923Y-66917475D01*
X116498564Y-66177116D01*
X116398267Y-66330632D01*
X116298412Y-66558282D01*
X116237387Y-66799261D01*
X116237385Y-66799270D01*
X116216859Y-67046994D01*
X116216859Y-67047005D01*
X104722500Y-67047005D01*
X104722499Y-65999128D01*
X104716091Y-65939517D01*
X104704061Y-65907264D01*
X104665797Y-65804671D01*
X104665793Y-65804664D01*
X104579547Y-65689455D01*
X104579544Y-65689452D01*
X104464335Y-65603206D01*
X104464328Y-65603202D01*
X104329482Y-65552908D01*
X104329483Y-65552908D01*
X104269883Y-65546501D01*
X104269881Y-65546500D01*
X104269873Y-65546500D01*
X104269864Y-65546500D01*
X102174129Y-65546500D01*
X102174123Y-65546501D01*
X102114516Y-65552908D01*
X101979671Y-65603202D01*
X101979664Y-65603206D01*
X101864455Y-65689452D01*
X101864452Y-65689455D01*
X101778206Y-65804664D01*
X101778202Y-65804671D01*
X101727908Y-65939517D01*
X101721501Y-65999116D01*
X101721501Y-65999123D01*
X101721500Y-65999135D01*
X101721500Y-68094870D01*
X101721501Y-68094876D01*
X101727908Y-68154483D01*
X101778202Y-68289328D01*
X101778206Y-68289335D01*
X101864452Y-68404544D01*
X101864455Y-68404547D01*
X101980986Y-68491783D01*
X102022857Y-68547717D01*
X102027841Y-68617408D01*
X102010484Y-68658870D01*
X101898267Y-68830631D01*
X101798412Y-69058282D01*
X101737387Y-69299261D01*
X101737385Y-69299270D01*
X101716859Y-69546994D01*
X101716859Y-69547005D01*
X101737385Y-69794729D01*
X101737387Y-69794738D01*
X101798412Y-70035717D01*
X101898266Y-70263364D01*
X101998564Y-70416882D01*
X102738922Y-69676523D01*
X102762507Y-69756844D01*
X102840239Y-69877798D01*
X102948900Y-69971952D01*
X103079685Y-70031680D01*
X103089466Y-70033086D01*
X102346100Y-70776450D01*
X102335482Y-70823148D01*
X102303376Y-70860556D01*
X102202255Y-70939262D01*
X102033833Y-71122217D01*
X101897826Y-71330393D01*
X101797936Y-71558118D01*
X101736892Y-71799175D01*
X101736890Y-71799187D01*
X101716357Y-72046994D01*
X101716357Y-72047005D01*
X80772500Y-72047005D01*
X80772500Y-64994870D01*
X108621500Y-64994870D01*
X108621501Y-64994876D01*
X108627908Y-65054483D01*
X108678202Y-65189328D01*
X108678206Y-65189335D01*
X108764452Y-65304544D01*
X108764455Y-65304547D01*
X108879664Y-65390793D01*
X108879671Y-65390797D01*
X109014517Y-65441091D01*
X109014516Y-65441091D01*
X109021444Y-65441835D01*
X109074127Y-65447500D01*
X112369872Y-65447499D01*
X112429483Y-65441091D01*
X112564331Y-65390796D01*
X112679546Y-65304546D01*
X112765796Y-65189331D01*
X112816091Y-65054483D01*
X112822500Y-64994873D01*
X112822499Y-62899128D01*
X112816091Y-62839517D01*
X112808111Y-62818122D01*
X112765797Y-62704671D01*
X112765793Y-62704664D01*
X112679547Y-62589455D01*
X112679544Y-62589452D01*
X112564335Y-62503206D01*
X112564328Y-62503202D01*
X112429482Y-62452908D01*
X112429483Y-62452908D01*
X112369883Y-62446501D01*
X112369881Y-62446500D01*
X112369873Y-62446500D01*
X112369864Y-62446500D01*
X109074129Y-62446500D01*
X109074123Y-62446501D01*
X109014516Y-62452908D01*
X108879671Y-62503202D01*
X108879664Y-62503206D01*
X108764455Y-62589452D01*
X108764452Y-62589455D01*
X108678206Y-62704664D01*
X108678202Y-62704671D01*
X108627908Y-62839517D01*
X108622147Y-62893107D01*
X108621501Y-62899123D01*
X108621500Y-62899135D01*
X108621500Y-64994870D01*
X80772500Y-64994870D01*
X80772500Y-60955373D01*
X83517723Y-60955373D01*
X83547881Y-61255160D01*
X83547882Y-61255162D01*
X83617728Y-61548252D01*
X83617733Y-61548266D01*
X83726020Y-61829427D01*
X83726024Y-61829436D01*
X83870825Y-62093665D01*
X83870829Y-62093671D01*
X84015998Y-62290695D01*
X84049554Y-62336238D01*
X84056552Y-62343474D01*
X84259019Y-62552823D01*
X84495478Y-62739553D01*
X84495480Y-62739554D01*
X84495485Y-62739558D01*
X84754730Y-62893109D01*
X85032128Y-63010736D01*
X85322729Y-63090340D01*
X85621347Y-63130500D01*
X85621351Y-63130500D01*
X85847252Y-63130500D01*
X86011164Y-63119526D01*
X86072634Y-63115412D01*
X86367903Y-63055396D01*
X86652537Y-62956560D01*
X86921459Y-62820668D01*
X87169869Y-62650144D01*
X87393333Y-62448032D01*
X87587865Y-62217939D01*
X87749993Y-61963970D01*
X87876823Y-61690658D01*
X87966093Y-61402879D01*
X88016209Y-61105770D01*
X88021237Y-60955373D01*
X192707723Y-60955373D01*
X192737881Y-61255160D01*
X192737882Y-61255162D01*
X192807728Y-61548252D01*
X192807733Y-61548266D01*
X192916020Y-61829427D01*
X192916024Y-61829436D01*
X193060825Y-62093665D01*
X193060829Y-62093671D01*
X193205998Y-62290695D01*
X193239554Y-62336238D01*
X193246552Y-62343474D01*
X193449019Y-62552823D01*
X193685478Y-62739553D01*
X193685480Y-62739554D01*
X193685485Y-62739558D01*
X193944730Y-62893109D01*
X194222128Y-63010736D01*
X194512729Y-63090340D01*
X194811347Y-63130500D01*
X194811351Y-63130500D01*
X195037252Y-63130500D01*
X195201164Y-63119526D01*
X195262634Y-63115412D01*
X195557903Y-63055396D01*
X195842537Y-62956560D01*
X196111459Y-62820668D01*
X196359869Y-62650144D01*
X196583333Y-62448032D01*
X196777865Y-62217939D01*
X196939993Y-61963970D01*
X197066823Y-61690658D01*
X197156093Y-61402879D01*
X197206209Y-61105770D01*
X197216277Y-60804631D01*
X197186118Y-60504838D01*
X197116269Y-60211739D01*
X197007977Y-59930566D01*
X196863175Y-59666335D01*
X196684446Y-59423762D01*
X196474980Y-59207176D01*
X196351742Y-59109856D01*
X196238521Y-59020446D01*
X196238517Y-59020443D01*
X196238515Y-59020442D01*
X195979270Y-58866891D01*
X195701872Y-58749264D01*
X195701863Y-58749261D01*
X195411272Y-58669660D01*
X195336616Y-58659620D01*
X195112653Y-58629500D01*
X194886756Y-58629500D01*
X194886748Y-58629500D01*
X194661368Y-58644587D01*
X194661359Y-58644589D01*
X194366094Y-58704604D01*
X194081464Y-58803439D01*
X194081459Y-58803441D01*
X193812546Y-58939328D01*
X193564125Y-59109860D01*
X193340665Y-59311969D01*
X193146132Y-59542064D01*
X192984006Y-59796030D01*
X192984005Y-59796032D01*
X192895935Y-59985820D01*
X192857177Y-60069342D01*
X192857176Y-60069346D01*
X192767907Y-60357118D01*
X192717791Y-60654230D01*
X192707723Y-60955373D01*
X88021237Y-60955373D01*
X88026277Y-60804631D01*
X87996118Y-60504838D01*
X87926269Y-60211739D01*
X87817977Y-59930566D01*
X87673175Y-59666335D01*
X87494446Y-59423762D01*
X87284980Y-59207176D01*
X87280658Y-59203763D01*
X139177000Y-59203763D01*
X139191858Y-59373599D01*
X139191860Y-59373610D01*
X139250730Y-59593317D01*
X139250734Y-59593326D01*
X139346865Y-59799482D01*
X139477342Y-59985820D01*
X139638179Y-60146657D01*
X139824517Y-60277134D01*
X140030673Y-60373265D01*
X140030682Y-60373269D01*
X140226999Y-60425872D01*
X140227000Y-60425871D01*
X140227000Y-59382501D01*
X140334685Y-59431680D01*
X140441237Y-59447000D01*
X140512763Y-59447000D01*
X140619315Y-59431680D01*
X140727000Y-59382501D01*
X140727000Y-60425872D01*
X140923317Y-60373269D01*
X140923326Y-60373265D01*
X141129482Y-60277134D01*
X141315820Y-60146657D01*
X141476657Y-59985820D01*
X141607132Y-59799484D01*
X141634341Y-59741134D01*
X141680513Y-59688695D01*
X141747707Y-59669542D01*
X141814588Y-59689757D01*
X141859106Y-59741133D01*
X141886431Y-59799732D01*
X141886432Y-59799734D01*
X142016954Y-59986141D01*
X142177858Y-60147045D01*
X142177861Y-60147047D01*
X142364266Y-60277568D01*
X142570504Y-60373739D01*
X142790308Y-60432635D01*
X142952230Y-60446801D01*
X143016998Y-60452468D01*
X143017000Y-60452468D01*
X143017002Y-60452468D01*
X143073673Y-60447509D01*
X143243692Y-60432635D01*
X143463496Y-60373739D01*
X143669734Y-60277568D01*
X143856139Y-60147047D01*
X144017047Y-59986139D01*
X144147568Y-59799734D01*
X144174618Y-59741724D01*
X144220790Y-59689285D01*
X144287983Y-59670133D01*
X144354865Y-59690348D01*
X144399382Y-59741725D01*
X144426429Y-59799728D01*
X144426432Y-59799734D01*
X144556954Y-59986141D01*
X144717858Y-60147045D01*
X144717861Y-60147047D01*
X144904266Y-60277568D01*
X145110504Y-60373739D01*
X145330308Y-60432635D01*
X145492230Y-60446801D01*
X145556998Y-60452468D01*
X145557000Y-60452468D01*
X145557002Y-60452468D01*
X145613673Y-60447509D01*
X145783692Y-60432635D01*
X146003496Y-60373739D01*
X146209734Y-60277568D01*
X146396139Y-60147047D01*
X146557047Y-59986139D01*
X146687568Y-59799734D01*
X146714618Y-59741724D01*
X146760790Y-59689285D01*
X146827983Y-59670133D01*
X146894865Y-59690348D01*
X146939382Y-59741725D01*
X146966429Y-59799728D01*
X146966432Y-59799734D01*
X147096954Y-59986141D01*
X147257858Y-60147045D01*
X147257861Y-60147047D01*
X147444266Y-60277568D01*
X147650504Y-60373739D01*
X147870308Y-60432635D01*
X148032230Y-60446801D01*
X148096998Y-60452468D01*
X148097000Y-60452468D01*
X148097002Y-60452468D01*
X148153673Y-60447509D01*
X148323692Y-60432635D01*
X148543496Y-60373739D01*
X148749734Y-60277568D01*
X148936139Y-60147047D01*
X149097047Y-59986139D01*
X149227568Y-59799734D01*
X149323739Y-59593496D01*
X149382635Y-59373692D01*
X149397500Y-59203784D01*
X149397500Y-58690216D01*
X149382635Y-58520308D01*
X149323739Y-58300504D01*
X149227568Y-58094266D01*
X149097047Y-57907861D01*
X149097045Y-57907858D01*
X148936141Y-57746954D01*
X148749734Y-57616432D01*
X148749732Y-57616431D01*
X148543497Y-57520261D01*
X148543488Y-57520258D01*
X148323697Y-57461366D01*
X148323693Y-57461365D01*
X148323692Y-57461365D01*
X148323691Y-57461364D01*
X148323686Y-57461364D01*
X148097002Y-57441532D01*
X148096998Y-57441532D01*
X147870313Y-57461364D01*
X147870302Y-57461366D01*
X147650511Y-57520258D01*
X147650502Y-57520261D01*
X147444267Y-57616431D01*
X147444265Y-57616432D01*
X147257858Y-57746954D01*
X147096954Y-57907858D01*
X146966432Y-58094265D01*
X146966431Y-58094267D01*
X146939382Y-58152275D01*
X146893209Y-58204714D01*
X146826016Y-58223866D01*
X146759135Y-58203650D01*
X146714618Y-58152275D01*
X146687686Y-58094520D01*
X146687568Y-58094266D01*
X146557047Y-57907861D01*
X146557045Y-57907858D01*
X146396141Y-57746954D01*
X146209734Y-57616432D01*
X146209732Y-57616431D01*
X146003497Y-57520261D01*
X146003488Y-57520258D01*
X145783697Y-57461366D01*
X145783693Y-57461365D01*
X145783692Y-57461365D01*
X145783691Y-57461364D01*
X145783686Y-57461364D01*
X145557002Y-57441532D01*
X145556998Y-57441532D01*
X145330313Y-57461364D01*
X145330302Y-57461366D01*
X145110511Y-57520258D01*
X145110502Y-57520261D01*
X144904267Y-57616431D01*
X144904265Y-57616432D01*
X144717858Y-57746954D01*
X144556954Y-57907858D01*
X144426432Y-58094265D01*
X144426431Y-58094267D01*
X144399382Y-58152275D01*
X144353209Y-58204714D01*
X144286016Y-58223866D01*
X144219135Y-58203650D01*
X144174618Y-58152275D01*
X144147686Y-58094520D01*
X144147568Y-58094266D01*
X144017047Y-57907861D01*
X144017045Y-57907858D01*
X143856141Y-57746954D01*
X143669734Y-57616432D01*
X143669732Y-57616431D01*
X143463497Y-57520261D01*
X143463488Y-57520258D01*
X143243697Y-57461366D01*
X143243693Y-57461365D01*
X143243692Y-57461365D01*
X143243691Y-57461364D01*
X143243686Y-57461364D01*
X143017002Y-57441532D01*
X143016998Y-57441532D01*
X142790313Y-57461364D01*
X142790302Y-57461366D01*
X142570511Y-57520258D01*
X142570502Y-57520261D01*
X142364267Y-57616431D01*
X142364265Y-57616432D01*
X142177858Y-57746954D01*
X142016954Y-57907858D01*
X141886433Y-58094264D01*
X141886432Y-58094266D01*
X141886315Y-58094518D01*
X141859106Y-58152867D01*
X141812933Y-58205306D01*
X141745739Y-58224457D01*
X141678858Y-58204241D01*
X141634342Y-58152865D01*
X141607135Y-58094520D01*
X141607134Y-58094518D01*
X141476657Y-57908179D01*
X141315820Y-57747342D01*
X141129482Y-57616865D01*
X140923328Y-57520734D01*
X140727000Y-57468127D01*
X140727000Y-58511498D01*
X140619315Y-58462320D01*
X140512763Y-58447000D01*
X140441237Y-58447000D01*
X140334685Y-58462320D01*
X140227000Y-58511498D01*
X140227000Y-57468127D01*
X140030671Y-57520734D01*
X139824517Y-57616865D01*
X139638179Y-57747342D01*
X139477342Y-57908179D01*
X139346865Y-58094517D01*
X139250734Y-58300673D01*
X139250730Y-58300682D01*
X139191860Y-58520389D01*
X139191858Y-58520400D01*
X139177000Y-58690237D01*
X139177000Y-58697000D01*
X140043314Y-58697000D01*
X140017507Y-58737156D01*
X139977000Y-58875111D01*
X139977000Y-59018889D01*
X140017507Y-59156844D01*
X140043314Y-59197000D01*
X139177000Y-59197000D01*
X139177000Y-59203763D01*
X87280658Y-59203763D01*
X87161742Y-59109856D01*
X87048521Y-59020446D01*
X87048517Y-59020443D01*
X87048515Y-59020442D01*
X86789270Y-58866891D01*
X86511872Y-58749264D01*
X86511863Y-58749261D01*
X86221272Y-58669660D01*
X86146616Y-58659620D01*
X85922653Y-58629500D01*
X85696756Y-58629500D01*
X85696748Y-58629500D01*
X85471368Y-58644587D01*
X85471359Y-58644589D01*
X85176094Y-58704604D01*
X84891464Y-58803439D01*
X84891459Y-58803441D01*
X84622546Y-58939328D01*
X84374125Y-59109860D01*
X84150665Y-59311969D01*
X83956132Y-59542064D01*
X83794006Y-59796030D01*
X83794005Y-59796032D01*
X83705935Y-59985820D01*
X83667177Y-60069342D01*
X83667176Y-60069346D01*
X83577907Y-60357118D01*
X83527791Y-60654230D01*
X83517723Y-60955373D01*
X80772500Y-60955373D01*
X80772500Y-56004500D01*
X80792185Y-55937461D01*
X80844989Y-55891706D01*
X80896500Y-55880500D01*
X199837500Y-55880500D01*
X199904539Y-55900185D01*
G37*
%TD.AperFunction*%
%TD*%
M02*
