%TF.GenerationSoftware,KiCad,Pcbnew,7.0.9*%
%TF.CreationDate,2023-12-30T23:00:49+00:00*%
%TF.ProjectId,MacroPad V2,4d616372-6f50-4616-9420-56322e6b6963,rev?*%
%TF.SameCoordinates,Original*%
%TF.FileFunction,Plated,1,2,PTH,Mixed*%
%TF.FilePolarity,Positive*%
%FSLAX46Y46*%
G04 Gerber Fmt 4.6, Leading zero omitted, Abs format (unit mm)*
G04 Created by KiCad (PCBNEW 7.0.9) date 2023-12-30 23:00:49*
%MOMM*%
%LPD*%
G01*
G04 APERTURE LIST*
%TA.AperFunction,ComponentDrill*%
%ADD10C,0.762000*%
%TD*%
%TA.AperFunction,ComponentDrill*%
%ADD11C,1.000000*%
%TD*%
%TA.AperFunction,ComponentDrill*%
%ADD12C,1.020000*%
%TD*%
G04 aperture for slot hole*
%TA.AperFunction,ComponentDrill*%
%ADD13O,2.800000X1.500000*%
%TD*%
%TA.AperFunction,ComponentDrill*%
%ADD14C,1.500000*%
%TD*%
G04 APERTURE END LIST*
D10*
%TO.C,toggle1*%
X176342000Y-126697000D03*
X176342000Y-129237000D03*
X176342000Y-131777000D03*
D11*
%TO.C,SW3*%
X83397000Y-93197000D03*
X83397000Y-95697000D03*
X83397000Y-98197000D03*
%TO.C,SW1*%
X83397000Y-133176000D03*
X83397000Y-135676000D03*
X83397000Y-138176000D03*
%TO.C,SW3*%
X97897000Y-93197000D03*
X97897000Y-98197000D03*
%TO.C,SW1*%
X97897000Y-133176000D03*
X97897000Y-138176000D03*
%TO.C,SW2*%
X103222000Y-67047000D03*
X103222000Y-69547000D03*
X103222000Y-72047000D03*
X117722000Y-67047000D03*
X117722000Y-72047000D03*
%TO.C,Brd1*%
X140477000Y-58947000D03*
X143017000Y-58947000D03*
X145557000Y-58947000D03*
X148097000Y-58947000D03*
D12*
%TO.C,U1*%
X166182000Y-62392000D03*
X166182000Y-64932000D03*
X166182000Y-67472000D03*
X166182000Y-70012000D03*
X166182000Y-72552000D03*
X166182000Y-75092000D03*
X166182000Y-77632000D03*
X166182000Y-80172000D03*
X166182000Y-82712000D03*
X166182000Y-85252000D03*
X166182000Y-87792000D03*
X166182000Y-90332000D03*
X166182000Y-92872000D03*
X166182000Y-95412000D03*
X166182000Y-97952000D03*
X166182000Y-100492000D03*
X166182000Y-103032000D03*
X166182000Y-105572000D03*
X166182000Y-108112000D03*
X166182000Y-110652000D03*
X172532000Y-110422000D03*
X175072000Y-110422000D03*
X177612000Y-110422000D03*
X183962000Y-62392000D03*
X183962000Y-64932000D03*
X183962000Y-67472000D03*
X183962000Y-70012000D03*
X183962000Y-72552000D03*
X183962000Y-75092000D03*
X183962000Y-77632000D03*
X183962000Y-80172000D03*
X183962000Y-82712000D03*
X183962000Y-85252000D03*
X183962000Y-87792000D03*
X183962000Y-90332000D03*
X183962000Y-92872000D03*
X183962000Y-95412000D03*
X183962000Y-97952000D03*
X183962000Y-100492000D03*
X183962000Y-103032000D03*
X183962000Y-105572000D03*
X183962000Y-108112000D03*
X183962000Y-110652000D03*
D13*
%TO.C,SW3*%
X90897000Y-90097000D03*
X90897000Y-101297000D03*
%TO.C,SW1*%
X90897000Y-130076000D03*
X90897000Y-141276000D03*
D14*
%TO.C,S1*%
X106662000Y-95582000D03*
%TO.C,S4*%
X106662000Y-114632000D03*
%TO.C,S7*%
X106662000Y-133682000D03*
D13*
%TO.C,SW2*%
X110722000Y-63947000D03*
X110722000Y-75147000D03*
D14*
%TO.C,S1*%
X113012000Y-93042000D03*
%TO.C,S4*%
X113012000Y-112092000D03*
%TO.C,S7*%
X113012000Y-131142000D03*
%TO.C,S2*%
X125712000Y-95582000D03*
%TO.C,S5*%
X125712000Y-114632000D03*
%TO.C,S8*%
X125712000Y-133682000D03*
%TO.C,S2*%
X132062000Y-93042000D03*
%TO.C,S5*%
X132062000Y-112092000D03*
%TO.C,S8*%
X132062000Y-131142000D03*
%TO.C,S3*%
X144762000Y-95582000D03*
%TO.C,S6*%
X144762000Y-114632000D03*
%TO.C,S9*%
X144762000Y-133682000D03*
%TO.C,S3*%
X151112000Y-93042000D03*
%TO.C,S6*%
X151112000Y-112092000D03*
%TO.C,S9*%
X151112000Y-131142000D03*
M02*
