%TF.GenerationSoftware,KiCad,Pcbnew,7.0.9*%
%TF.CreationDate,2023-12-23T17:51:51+00:00*%
%TF.ProjectId,MacroPad,4d616372-6f50-4616-942e-6b696361645f,rev?*%
%TF.SameCoordinates,Original*%
%TF.FileFunction,Plated,1,2,PTH,Mixed*%
%TF.FilePolarity,Positive*%
%FSLAX46Y46*%
G04 Gerber Fmt 4.6, Leading zero omitted, Abs format (unit mm)*
G04 Created by KiCad (PCBNEW 7.0.9) date 2023-12-23 17:51:51*
%MOMM*%
%LPD*%
G01*
G04 APERTURE LIST*
%TA.AperFunction,ComponentDrill*%
%ADD10C,0.762000*%
%TD*%
%TA.AperFunction,ComponentDrill*%
%ADD11C,1.000000*%
%TD*%
%TA.AperFunction,ComponentDrill*%
%ADD12C,1.020000*%
%TD*%
G04 aperture for slot hole*
%TA.AperFunction,ComponentDrill*%
%ADD13O,2.800000X1.500000*%
%TD*%
%TA.AperFunction,ComponentDrill*%
%ADD14C,1.500000*%
%TD*%
G04 APERTURE END LIST*
D10*
%TO.C,toggle1*%
X182880000Y-130345000D03*
X182880000Y-132885000D03*
X182880000Y-135425000D03*
D11*
%TO.C,SW3*%
X89935000Y-96845000D03*
X89935000Y-99345000D03*
X89935000Y-101845000D03*
%TO.C,SW1*%
X89935000Y-139707500D03*
X89935000Y-142207500D03*
X89935000Y-144707500D03*
%TO.C,SW3*%
X104435000Y-96845000D03*
X104435000Y-101845000D03*
%TO.C,SW1*%
X104435000Y-139707500D03*
X104435000Y-144707500D03*
%TO.C,SW2*%
X109760000Y-70695000D03*
X109760000Y-73195000D03*
X109760000Y-75695000D03*
X124260000Y-70695000D03*
X124260000Y-75695000D03*
%TO.C,Brd1*%
X147015000Y-62595000D03*
X149555000Y-62595000D03*
X152095000Y-62595000D03*
X154635000Y-62595000D03*
D12*
%TO.C,U1*%
X172720000Y-66040000D03*
X172720000Y-68580000D03*
X172720000Y-71120000D03*
X172720000Y-73660000D03*
X172720000Y-76200000D03*
X172720000Y-78740000D03*
X172720000Y-81280000D03*
X172720000Y-83820000D03*
X172720000Y-86360000D03*
X172720000Y-88900000D03*
X172720000Y-91440000D03*
X172720000Y-93980000D03*
X172720000Y-96520000D03*
X172720000Y-99060000D03*
X172720000Y-101600000D03*
X172720000Y-104140000D03*
X172720000Y-106680000D03*
X172720000Y-109220000D03*
X172720000Y-111760000D03*
X172720000Y-114300000D03*
X179070000Y-114070000D03*
X181610000Y-114070000D03*
X184150000Y-114070000D03*
X190500000Y-66040000D03*
X190500000Y-68580000D03*
X190500000Y-71120000D03*
X190500000Y-73660000D03*
X190500000Y-76200000D03*
X190500000Y-78740000D03*
X190500000Y-81280000D03*
X190500000Y-83820000D03*
X190500000Y-86360000D03*
X190500000Y-88900000D03*
X190500000Y-91440000D03*
X190500000Y-93980000D03*
X190500000Y-96520000D03*
X190500000Y-99060000D03*
X190500000Y-101600000D03*
X190500000Y-104140000D03*
X190500000Y-106680000D03*
X190500000Y-109220000D03*
X190500000Y-111760000D03*
X190500000Y-114300000D03*
D13*
%TO.C,SW3*%
X97435000Y-93745000D03*
X97435000Y-104945000D03*
%TO.C,SW1*%
X97435000Y-136607500D03*
X97435000Y-147807500D03*
D14*
%TO.C,S1*%
X113200000Y-99230000D03*
%TO.C,S4*%
X113200000Y-118280000D03*
%TO.C,S7*%
X113200000Y-137330000D03*
D13*
%TO.C,SW2*%
X117260000Y-67595000D03*
X117260000Y-78795000D03*
D14*
%TO.C,S1*%
X119550000Y-96690000D03*
%TO.C,S4*%
X119550000Y-115740000D03*
%TO.C,S7*%
X119550000Y-134790000D03*
%TO.C,S2*%
X132250000Y-99230000D03*
%TO.C,S5*%
X132250000Y-118280000D03*
%TO.C,S8*%
X132250000Y-137330000D03*
%TO.C,S2*%
X138600000Y-96690000D03*
%TO.C,S5*%
X138600000Y-115740000D03*
%TO.C,S8*%
X138600000Y-134790000D03*
%TO.C,S3*%
X151300000Y-99230000D03*
%TO.C,S6*%
X151300000Y-118280000D03*
%TO.C,S9*%
X151300000Y-137330000D03*
%TO.C,S3*%
X157650000Y-96690000D03*
%TO.C,S6*%
X157650000Y-115740000D03*
%TO.C,S9*%
X157650000Y-134790000D03*
M02*
